<svg xmlns="http://www.w3.org/2000/svg" viewBox="0 0 750 500"><g id="freepik--background-complete--inject-65"><rect x="459.86" y="78.06" width="51.1" height="13.52" style="fill:#e0e0e0"></rect><path d="M526.09,78.06a.77.77,0,0,1,0-.25c0-.18,0-.41,0-.69,0-.64,0-1.53,0-2.66,0-2.34,0-5.69-.08-9.92l.16.16-51.1.1.26-.26h0v6.85q0,3.38,0,6.65L475,77.8l36.41.12,10.75.07,2.91,0,.76,0,.27,0h-.24l-.73,0-2.85,0-10.69.08L475,78.31h-.26V64.56h0c.52-.52.14-.15.26-.26l51.1.1h.16v.16c0,4.27-.06,7.66-.08,10,0,1.12,0,2,0,2.63l0,.66A1.76,1.76,0,0,1,526.09,78.06Z" style="fill:#e0e0e0"></path><rect x="149" y="199.38" width="51.1" height="13.52" style="fill:#e0e0e0"></rect><rect x="185.73" y="171.63" width="51.1" height="13.52" style="fill:#fafafa"></rect><path d="M215.23,199.38a1.1,1.1,0,0,1,0-.24c0-.18,0-.41,0-.69,0-.64,0-1.53,0-2.66,0-2.34-.06-5.69-.09-9.92l.16.16-51.1.1.26-.26h0v6.85c0,2.25,0,4.47,0,6.64l-.25-.25,36.41.12,10.75.07,2.91,0,.76,0h.27a.64.64,0,0,1-.24,0l-.73,0-2.85,0-10.69.07-36.59.12h-.26V185.89h0c.52-.52.14-.15.26-.26l51.1.1h.16v.16c0,4.27-.06,7.65-.08,10,0,1.12,0,2,0,2.62,0,.28,0,.5,0,.67A1.31,1.31,0,0,1,215.23,199.38Z" style="fill:#e0e0e0"></path><path d="M147.32,118.27a1.22,1.22,0,0,1,0-.24c0-.18,0-.41,0-.7,0-.63,0-1.52,0-2.66,0-2.33-.05-5.69-.09-9.92l.16.16-51.09.1c.11-.11-.27.26.25-.26h0v13.51l-.26-.25,36.42.11,10.74.08,2.91,0,.76,0h.27s-.07,0-.24,0h-.73l-2.85,0-10.69.07-36.59.12H96v-.26c0-2.17,0-4.39,0-6.65v-6.86h0c.52-.52.15-.14.27-.26l51.09.11h.16v.15c0,4.27-.07,7.66-.09,10,0,1.12,0,2,0,2.62,0,.27,0,.49,0,.67S147.33,118.28,147.32,118.27Z" style="fill:#e0e0e0"></path><path d="M154.25,104.75a1.27,1.27,0,0,1,0-.25c0-.2,0-.43,0-.72,0-.66,0-1.57-.05-2.71,0-2.37-.06-5.72-.1-9.83l.19.18-30.7.08.26-.26h0v3.5c0,1.16,0,2.31,0,3.44,0,2.26,0,4.45,0,6.55l-.24-.24,22,.11,6.4.07,1.72,0,.62,0a3.67,3.67,0,0,1-.56,0l-1.67,0-6.34.06-22.13.12h-.25v-.25c0-2.1,0-4.29,0-6.55V91.26h0c-.06.05.49-.5.26-.26l30.7.07h.19v.19c-.05,4.16-.08,7.55-.11,9.94,0,1.13,0,2,0,2.67S154.26,104.77,154.25,104.75Z" style="fill:#e0e0e0"></path><path d="M523.74,364.37a1.1,1.1,0,0,1,0-.24c0-.18,0-.41,0-.69,0-.64,0-1.53,0-2.66,0-2.34,0-5.69-.09-9.92l.16.15-51.1.11.26-.26h0v6.85c0,2.25,0,4.47,0,6.64l-.25-.25,36.41.12,10.75.07,2.91,0,.76,0h.27a.64.64,0,0,1-.24,0l-.73,0-2.85,0-10.69.07-36.59.12h-.26V350.88h0c.52-.52.14-.15.26-.26l51.1.1h.16v.16c0,4.27-.06,7.65-.08,10,0,1.12,0,2,0,2.62l0,.67A1.31,1.31,0,0,1,523.74,364.37Z" style="fill:#e0e0e0"></path><path d="M530.66,350.86s0-.1,0-.26,0-.43,0-.72c0-.66,0-1.57,0-2.71,0-2.37-.06-5.72-.1-9.83l.18.19-30.7.07.26-.26h0v6.94c0,2.26,0,4.46,0,6.56l-.25-.25,22,.12,6.39.06,1.73,0,.61,0a3.59,3.59,0,0,1-.55,0l-1.68,0-6.34.07L500,351.1h-.24V344.3c0-1.13,0-2.28,0-3.44v-3.5h0c-.05.05.5-.49.26-.26l30.7.07h.19v.19c0,4.16-.07,7.55-.1,10,0,1.12,0,2,0,2.66A5.51,5.51,0,0,1,530.66,350.86Z" style="fill:#e0e0e0"></path><polygon points="612.04 263.8 611.27 255.04 647.36 257.69 647.36 263.8 612.04 263.8" style="fill:#fafafa"></polygon><polygon points="613.28 255.18 613.28 250.08 646.83 250.08 646.17 257.6 613.28 255.18" style="fill:#fafafa"></polygon><polygon points="609.97 245.39 610.65 250.08 643.8 250.08 643.8 245.39 609.97 245.39" style="fill:#fafafa"></polygon><g style="opacity:0.29"><polygon points="613.28 250.08 613.28 251.18 645.67 250.08 613.28 250.08" style="fill:#e0e0e0"></polygon></g><g style="opacity:0.29"><polygon points="613.28 255.18 646.17 257.6 646.28 256.39 613.28 255.18" style="fill:#e0e0e0"></polygon></g><g style="opacity:0.29"><polygon points="631.36 253.21 637.04 252.48 645.67 253.21 631.36 253.21" style="fill:#e0e0e0"></polygon></g><g style="opacity:0.29"><polygon points="611.72 260.16 622.46 260.16 611.79 260.92 611.72 260.16" style="fill:#e0e0e0"></polygon></g><g style="opacity:0.29"><path d="M621.72,247.73l22.08-.68C643.82,247.58,621.72,247.73,621.72,247.73Z" style="fill:#e0e0e0"></path></g><rect x="584.07" y="214.31" width="5.04" height="37.73" transform="translate(353.41 819.77) rotate(-90)" style="fill:#e0e0e0"></rect><path d="M572.86,230.87a11.72,11.72,0,0,1,0,4.72,11.72,11.72,0,0,1,0-4.72Z" style="fill:#fafafa"></path><path d="M572,230.77a11.72,11.72,0,0,1,0,4.72,11.72,11.72,0,0,1,0-4.72Z" style="fill:#fafafa"></path><path d="M602.53,230.87a11.72,11.72,0,0,1,0,4.72,12.22,12.22,0,0,1,0-4.72Z" style="fill:#fafafa"></path><path d="M601.71,230.77a11.72,11.72,0,0,1,0,4.72,12.22,12.22,0,0,1,0-4.72Z" style="fill:#fafafa"></path><path d="M596.79,233.33c0,.13-4.33.24-9.66.24s-9.65-.11-9.65-.24,4.32-.23,9.65-.23S596.79,233.2,596.79,233.33Z" style="fill:#fafafa"></path><rect x="581.38" y="239.53" width="10.08" height="37.73" transform="translate(328.03 844.82) rotate(-90)" style="fill:#e0e0e0"></rect><path d="M605.77,260.6s-.06,0-.2.12-.35.17-.63.28a10.94,10.94,0,0,1-2.56.74,6.71,6.71,0,0,1-4.15-.59,5.48,5.48,0,0,1-2-1.79,4.16,4.16,0,0,1-.69-2.9,3,3,0,0,1,.7-1.5,2,2,0,0,1,1.59-.73,2.28,2.28,0,0,1,1.6.87,3.11,3.11,0,0,1,.73,1.71,4.59,4.59,0,0,1-1.3,3.58,5.79,5.79,0,0,1-3.63,1.77,9.65,9.65,0,0,1-4.21-.52,7.85,7.85,0,0,1-3.68-2.47,4.08,4.08,0,0,1-.85-2.18,2.83,2.83,0,0,1,.8-2.27,1.9,1.9,0,0,1,1.18-.51,2.12,2.12,0,0,1,1.23.34,3.28,3.28,0,0,1,1.39,2,4.74,4.74,0,0,1-1.49,4.44,7.42,7.42,0,0,1-4.24,1.73,10.37,10.37,0,0,1-4.41-.44,6.11,6.11,0,0,1-3.35-2.6,4.45,4.45,0,0,1-.42-4,2.11,2.11,0,0,1,1.54-1.31,2.45,2.45,0,0,1,1.9.46,3.16,3.16,0,0,1,.9,3.4,5.92,5.92,0,0,1-1.9,2.68,8.57,8.57,0,0,1-5.18,2,8.25,8.25,0,0,1-4.09-.93,8,8,0,0,1-2.14-1.59,6.06,6.06,0,0,1-.45-.52,1.17,1.17,0,0,1-.14-.2,9.62,9.62,0,0,0,2.81,2.14,8.16,8.16,0,0,0,9-1.17,5.55,5.55,0,0,0,1.77-2.53,2.75,2.75,0,0,0-.79-3,2,2,0,0,0-1.58-.38,1.71,1.71,0,0,0-1.24,1.07,4.08,4.08,0,0,0,.42,3.62,5.65,5.65,0,0,0,3.12,2.4,10.22,10.22,0,0,0,4.21.4,7.06,7.06,0,0,0,4-1.62,4.31,4.31,0,0,0,1.34-4,2.8,2.8,0,0,0-1.18-1.73,1.45,1.45,0,0,0-1.84.11A2.4,2.4,0,0,0,587,257a3.7,3.7,0,0,0,.76,1.93,7.37,7.37,0,0,0,3.46,2.32,9.29,9.29,0,0,0,4,.52,5.32,5.32,0,0,0,3.37-1.63,4.2,4.2,0,0,0,1.22-3.24,2.42,2.42,0,0,0-2-2.26,1.59,1.59,0,0,0-1.31.59,2.79,2.79,0,0,0-.63,1.32,3.89,3.89,0,0,0,.61,2.69,5.18,5.18,0,0,0,1.85,1.71,6.47,6.47,0,0,0,4,.64,12,12,0,0,0,2.54-.63C605.47,260.71,605.76,260.58,605.77,260.6Z" style="fill:#fafafa"></path><rect x="579.36" y="227.41" width="17.49" height="34.36" transform="translate(343.52 832.7) rotate(-90)" style="fill:#ebebeb"></rect><path d="M576.64,236.45a77.13,77.13,0,0,1,.23,8.46,77.25,77.25,0,0,1-.23,8.47,75.63,75.63,0,0,1-.24-8.47A75.52,75.52,0,0,1,576.64,236.45Z" style="fill:#e0e0e0"></path><path d="M579.24,236.23a73.68,73.68,0,0,1,.24,8.36,73.57,73.57,0,0,1-.24,8.35,73.57,73.57,0,0,1-.24-8.35A73.68,73.68,0,0,1,579.24,236.23Z" style="fill:#e0e0e0"></path><path d="M601.4,235.67a78.67,78.67,0,0,1,.24,8.8,78.67,78.67,0,0,1-.24,8.8,83.4,83.4,0,0,1-.23-8.8A83.4,83.4,0,0,1,601.4,235.67Z" style="fill:#e0e0e0"></path><path d="M598.34,235.9a77.62,77.62,0,0,1,.24,8.58,77.5,77.5,0,0,1-.24,8.57,79.16,79.16,0,0,1-.23-8.57A79.27,79.27,0,0,1,598.34,235.9Z" style="fill:#e0e0e0"></path><rect x="557.02" y="263.17" width="51.12" height="165.46" style="fill:#f5f5f5"></rect><rect x="608.14" y="263.2" width="43.4" height="165.4" style="fill:#e0e0e0"></rect><rect x="561.01" y="269.87" width="41.01" height="35.64" style="fill:#e0e0e0"></rect><rect x="561.01" y="309.55" width="41.01" height="35.64" style="fill:#e0e0e0"></rect><rect x="561.01" y="349.24" width="41.01" height="35.64" style="fill:#e0e0e0"></rect><rect x="561.01" y="388.92" width="41.01" height="35.64" style="fill:#e0e0e0"></rect><path d="M581.52,276.45a1.43,1.43,0,1,1-1.43-1.42A1.43,1.43,0,0,1,581.52,276.45Z" style="fill:#fafafa"></path><path d="M581.52,316.6a1.43,1.43,0,1,1-1.43-1.43A1.43,1.43,0,0,1,581.52,316.6Z" style="fill:#fafafa"></path><path d="M581.52,356.74a1.43,1.43,0,1,1-2.85,0,1.43,1.43,0,0,1,2.85,0Z" style="fill:#fafafa"></path><path d="M581.52,396.89a1.43,1.43,0,1,1-1.43-1.43A1.43,1.43,0,0,1,581.52,396.89Z" style="fill:#fafafa"></path><rect x="557.02" y="428.63" width="5.91" height="33.19" style="fill:#e0e0e0"></rect><rect x="602.02" y="428.63" width="5.91" height="33.19" style="fill:#e0e0e0"></rect><rect x="644.99" y="428.63" width="5.91" height="33.19" style="fill:#e0e0e0"></rect></g><g id="freepik--Floor--inject-65"><path d="M675,462.12c0,.14-128.15.26-286.19.26s-286.23-.12-286.23-.26,128.13-.26,286.23-.26S675,462,675,462.12Z" style="fill:#263238"></path></g><g id="freepik--Frame--inject-65"><rect x="517.25" y="154.49" width="87.51" height="57.54" style="fill:#455a64"></rect><rect x="520.3" y="156.85" width="81.38" height="52.61" style="fill:#fafafa"></rect><rect x="547.71" y="176.03" width="26.55" height="14.48" style="fill:#23D07E"></rect></g><g id="freepik--speech-bubble--inject-65"><path d="M472.94,128.71a3.24,3.24,0,0,1,.36,0l1.05,0a12,12,0,0,1,1.69.17c.34,0,.7.09,1.08.16l1.2.3A20.18,20.18,0,0,1,490.38,159a20.35,20.35,0,0,1-9.72,8.45,19.91,19.91,0,0,1-6.74,1.49,19.35,19.35,0,0,1-7.05-.88l-.21-.07h.17l-11.78,4.08-.48.17.15-.49c1.06-3.38,2.08-6.66,3.06-9.81l.05.24a20.17,20.17,0,0,1-4.73-17.45,19.89,19.89,0,0,1,3-7.26,20.33,20.33,0,0,1,4.67-4.86,21.51,21.51,0,0,1,2.44-1.59A22.41,22.41,0,0,1,465.6,130a16.62,16.62,0,0,1,2.12-.68,14.86,14.86,0,0,1,1.82-.38c.55-.07,1-.15,1.46-.19l1.07,0,.65,0h.22l-.22,0-.65.05-1.06.07c-.42,0-.9.15-1.45.23a13.36,13.36,0,0,0-1.79.42,15.53,15.53,0,0,0-2.09.7,23.34,23.34,0,0,0-2.3,1.08,21.52,21.52,0,0,0-2.39,1.59,20.15,20.15,0,0,0-4.54,4.83,19.59,19.59,0,0,0-2.94,7.14,19.77,19.77,0,0,0,4.69,17l.09.1,0,.14-3,9.82-.33-.32,11.78-4.09.08,0,.09,0,.2.06a18.75,18.75,0,0,0,6.87.86,19.43,19.43,0,0,0,6.57-1.44A19.83,19.83,0,0,0,490,158.8a19.9,19.9,0,0,0-6-26.59,19.83,19.83,0,0,0-5.71-2.65l-1.19-.32c-.37-.09-.73-.13-1.06-.19a11.24,11.24,0,0,0-1.68-.21l-1-.08A1.45,1.45,0,0,1,472.94,128.71Z" style="fill:#263238"></path><polygon points="461.1 150.2 464.2 147.1 470.18 152.42 481.91 141.13 484.79 144.22 469.73 158.39 461.1 150.2" style="fill:#23D07E"></polygon></g><g id="freepik--character-2--inject-65"><path d="M380.19,323c1.89.66,5-7.07,5.35-7.7s1.24-.21.92.35c-.45.8-5,9.34-3.14,10,1,.37,1.52-1.53,1.52-1.53s3.66-8.3,4.52-8-1.11,5.3-1.89,6.92-.33,2.62.66,2.38c.68-.17,3.2-5.08,3.94-6.7s2.69-6.1,3.53-3.11,2.61,5,3.46,5.18a1,1,0,0,0,.82-1.64,11.5,11.5,0,0,1-1.4-2.81,5.52,5.52,0,0,1-.48-2.46c0-.46.07-.88.1-1.28h0l.05-1.32c.1-1.6.1-2.47.1-2.47h0l2.55-66.18-14.5-16.13L386,306.87l.06,0a88.56,88.56,0,0,0-5.61,7.51c-2.41,3.95-2.05,4.17-1.55,4.38,1.37.54,4.5-6.79,4.74-4.82S378.75,322.48,380.19,323Z" style="fill:#a36957"></path><polygon points="353.04 327.51 414.49 327.51 414.49 368.38 352.74 368.38 353.04 327.51" style="fill:#455a64"></polygon><polygon points="360.18 327.51 421.63 327.51 421.63 368.38 359.88 368.38 360.18 327.51" style="fill:#263238"></polygon><path d="M373.8,327.51s.3-9.65,11.23-9.65,17,.09,17,.09v2.66H385s-7.49-.43-7.34,6.9Z" style="fill:#263238"></path><path d="M356.35,327.78a9.55,9.55,0,0,1,.1,1.66c0,1.16.05,2.68.08,4.52.05,3.82.08,9.09.08,14.91,0,6.56,0,12.41-.1,16.2v.08l-.05.05-2.71,2.37a7.53,7.53,0,0,1-1,.81,6.59,6.59,0,0,1,.89-.94l2.61-2.49-.06.12c-.05-3.79-.09-9.64-.09-16.2,0-5.82,0-11.09.08-14.91,0-1.84.06-3.36.08-4.52A9.55,9.55,0,0,1,356.35,327.78Z" style="fill:#263238"></path><path d="M356.35,365.07c.1-.1,1,.55,1.94,1.47s1.69,1.73,1.59,1.84-1-.55-1.94-1.46S356.25,365.18,356.35,365.07Z" style="fill:#263238"></path><path d="M392.11,350.43a2.1,2.1,0,0,1-.42.05,12.08,12.08,0,0,1-1.22,0,27.32,27.32,0,0,1-4.45-.33,31.49,31.49,0,0,1-23.26-16.45,27.49,27.49,0,0,1-1.78-4.09,12.07,12.07,0,0,1-.36-1.16c-.08-.26-.11-.41-.09-.41a12,12,0,0,1,.63,1.5,37.44,37.44,0,0,0,1.93,4,32.48,32.48,0,0,0,23,16.26,35.46,35.46,0,0,0,4.4.49A9.35,9.35,0,0,1,392.11,350.43Z" style="fill:#455a64"></path><path d="M440.85,288.81c0-.13,0-.26,0-.34S440.87,288.64,440.85,288.81Z" style="fill:#b78876"></path><path d="M440.82,289.12c0-.13,0-.22,0-.31C440.83,289,440.82,289.12,440.82,289.12Z" style="fill:#b78876"></path><path d="M452.8,448.67s-23.91-82.7-24.37-85.3c-.41-2.35,10.77-59.44,12.39-74.25l-33.94.32s0,.09,0,.24l-16.4.46L399,455l18.1.26-.77-55.47c8.9,26.1,20.16,55.58,20.16,55.58Z" style="fill:#b78876"></path><path d="M440.89,288.44Z" style="fill:#b78876"></path><path d="M440.89,288.47v0Z" style="fill:#b78876"></path><path d="M405.58,359.71c.05,0-.05.63-.1,1.77a33.91,33.91,0,0,0,.08,4.83,44.18,44.18,0,0,0,1.21,7.05,70.9,70.9,0,0,0,2.87,8.29c2.24,5.84,4.23,11.14,5.66,15,.67,1.87,1.23,3.41,1.65,4.57a10.81,10.81,0,0,1,.54,1.69,11.51,11.51,0,0,1-.73-1.62L415,396.76c-1.51-3.81-3.56-9.08-5.79-14.92l-1.62-4.27a38.39,38.39,0,0,1-1.24-4.09,42,42,0,0,1-1.1-7.14,29.65,29.65,0,0,1,.07-4.88c.06-.57.14-1,.2-1.31S405.56,359.7,405.58,359.71Z" style="fill:#a36957"></path><path d="M416.47,419.16c0-.49.31-18.12.31-18.12s-5.91-16.35-6.06-15.85S416.47,419.16,416.47,419.16Z" style="fill:#a36957"></path><path d="M451.11,232.9s-1-2.37-2.88-17.33c-.81-6.51-5.24-10.54-10-13v-.09l-.42-.12a39.06,39.06,0,0,0-12.43-3.61l-16.78-.28s-11.64-.88-20.13,7c-2.78,2.58-5.64,25.68-5.64,25.68l8.4,3-.07-3.41s-.35,6.92,1.94,10.94,5.4,9.52,5.4,9.52l-3.58,16.78c-2.22,6.4-9.54,29.77-6.67,52.91,3.56,28.67,4.12,37,4.12,37l40.54,5.55s16.21-60.7,10.66-84.82c-3.82-16.56-6.73-15.79-7.66-19.38l1.05-25.8Z" style="fill:#455a64"></path><path d="M430.71,256.48a5.56,5.56,0,0,1-1.29.26c-.83.14-2.05.29-3.56.45a101.64,101.64,0,0,1-11.83.48,100.08,100.08,0,0,1-11.81-.9c-1.5-.21-2.71-.41-3.54-.58a6.8,6.8,0,0,1-1.28-.3,5.84,5.84,0,0,1,1.31.1l3.56.41c3,.33,7.16.67,11.77.75s8.78-.11,11.79-.33l3.57-.28A7.17,7.17,0,0,1,430.71,256.48Z" style="fill:#263238"></path><path d="M444.38,301.91a4.57,4.57,0,0,1-.16.8l-.55,2.27c-.12.5-.26,1-.41,1.64s-.39,1.23-.61,1.91c-.47,1.37-.91,3-1.65,4.61q-.51,1.28-1.08,2.64c-.38.92-.87,1.83-1.33,2.79-.88,1.95-2.06,3.9-3.26,6a78.54,78.54,0,0,1-21,22.85c-2,1.36-3.84,2.7-5.7,3.75-.93.53-1.79,1.1-2.67,1.55l-2.54,1.3c-1.6.86-3.14,1.44-4.46,2-.67.27-1.28.55-1.86.77l-1.6.54-2.22.73a5,5,0,0,1-.78.23,5.32,5.32,0,0,1,.75-.33l2.18-.82,1.58-.59c.57-.22,1.17-.51,1.83-.8,1.31-.6,2.83-1.2,4.41-2.08l2.51-1.32c.87-.46,1.73-1,2.64-1.57,1.85-1.06,3.68-2.4,5.64-3.76a80.59,80.59,0,0,0,20.92-22.72c1.19-2.07,2.38-4,3.28-5.93.46-1,1-1.86,1.35-2.76l1.1-2.61c.75-1.65,1.22-3.22,1.71-4.57.24-.68.47-1.3.65-1.89l.46-1.62c.26-.94.48-1.69.64-2.24A4.19,4.19,0,0,1,444.38,301.91Z" style="fill:#263238"></path><path d="M448.78,224.22a3.38,3.38,0,0,1-.63.36c-.42.23-1,.55-1.87.94A25.69,25.69,0,0,1,439,228a13.56,13.56,0,0,1-5.36-.3,9.85,9.85,0,0,1-2.76-1.2,10.48,10.48,0,0,1-2.37-2.15,46.23,46.23,0,0,1-3.59-5.75c-1.18-2-2.69-4-5-4.75s-4.75-.2-7,.43a26.88,26.88,0,0,1-6.63,1.43,9.67,9.67,0,0,1-10-10.27,10.06,10.06,0,0,1,.74-3.25,7.43,7.43,0,0,1,1.51-2.4,14.66,14.66,0,0,0-1.32,2.47,10.38,10.38,0,0,0-.64,3.19,9.15,9.15,0,0,0,4.11,8.12,9.22,9.22,0,0,0,5.62,1.66,26.68,26.68,0,0,0,6.5-1.44,22.22,22.22,0,0,1,3.52-.77,8.51,8.51,0,0,1,3.74.33,7.91,7.91,0,0,1,3.14,2.07,15.89,15.89,0,0,1,2.13,2.92,48.26,48.26,0,0,0,3.53,5.7,9.29,9.29,0,0,0,4.88,3.25,13.48,13.48,0,0,0,5.19.34,26.92,26.92,0,0,0,7.29-2.24l1.91-.85A4.1,4.1,0,0,1,448.78,224.22Z" style="fill:#fff"></path><path d="M425,259.64a4.67,4.67,0,0,0,.71-1.68,5.5,5.5,0,0,0-1.56-4.56,7.1,7.1,0,0,0-2.89-1.8,18,18,0,0,0-3.9-.85c-1.41-.19-2.91-.3-4.45-.64a10.81,10.81,0,0,1-4.49-1.93,6.83,6.83,0,0,1-1.66-1.9,13,13,0,0,1-1-2.2,23.43,23.43,0,0,0-1.63-4.12,7.35,7.35,0,0,0-6.08-3.59,7.6,7.6,0,0,0-4.68,1.51c-1,.72-1.34,1.29-1.38,1.25a2.08,2.08,0,0,1,.27-.41,6.74,6.74,0,0,1,1-1,7.55,7.55,0,0,1,11.3,2,22.72,22.72,0,0,1,1.7,4.18,8.1,8.1,0,0,0,2.49,3.88,10.45,10.45,0,0,0,4.27,1.83c1.5.34,3,.46,4.41.66,2.82.36,5.5,1.16,7,2.88a5.64,5.64,0,0,1,1.48,4.85,3.41,3.41,0,0,1-.57,1.29C425.1,259.53,425,259.66,425,259.64Z" style="fill:#fff"></path><path d="M440.68,330.66a14.18,14.18,0,0,0-4,.17c-1.27.23-2.79.68-4.56,1.2a21.85,21.85,0,0,1-6.19,1.11,18.17,18.17,0,0,1-7.49-1.46,15.62,15.62,0,0,1-6.77-5.51,14,14,0,0,1-2.17-9.36,13.36,13.36,0,0,1,1.54-4.93,12.08,12.08,0,0,1,3.53-4c1.42-1.05,3-2,3.71-3.46a3.75,3.75,0,0,0,.34-2.35,8.92,8.92,0,0,0-.8-2.31,13.6,13.6,0,0,1-1.67-4.68,9.82,9.82,0,0,1,.7-4.74,11.54,11.54,0,0,1,6.13-6.14,17.14,17.14,0,0,1,7.5-1.34,38.54,38.54,0,0,0,6.23-.18A10.17,10.17,0,0,0,441,281a6.32,6.32,0,0,0,2-2.16c.32-.6.4-1,.43-.95a3.52,3.52,0,0,1-.33,1,6.19,6.19,0,0,1-2,2.29,10.41,10.41,0,0,1-4.39,1.81,38.78,38.78,0,0,1-6.28.26,16.8,16.8,0,0,0-7.32,1.37,11.11,11.11,0,0,0-5.87,5.92,9.38,9.38,0,0,0-.65,4.5,13.21,13.21,0,0,0,1.64,4.52,9.47,9.47,0,0,1,.85,2.45,4.38,4.38,0,0,1-.38,2.66c-.86,1.66-2.48,2.61-3.87,3.65a12,12,0,0,0-4.88,8.54,13.64,13.64,0,0,0,2.07,9,15.1,15.1,0,0,0,6.55,5.37,17.6,17.6,0,0,0,7.3,1.49,22.09,22.09,0,0,0,6.12-1,41.83,41.83,0,0,1,4.61-1.12,11.63,11.63,0,0,1,3-.13A6.12,6.12,0,0,1,440.68,330.66Z" style="fill:#fff"></path><path d="M426.53,362.55s.05-.69.08-1.94a11.63,11.63,0,0,0-.91-5.12,5.06,5.06,0,0,0-2.43-2.47,9.4,9.4,0,0,0-4-.6,11.77,11.77,0,0,1-4.69-.59,5.44,5.44,0,0,1-2-1.57,12.07,12.07,0,0,1-1.38-2.19,18.11,18.11,0,0,0-2.56-4.21A12.7,12.7,0,0,0,405,341a12.12,12.12,0,0,0-7.51-1.34,13,13,0,0,0-4.92,1.74c-1.07.65-1.59,1.12-1.62,1.08a1.87,1.87,0,0,1,.36-.36,8.34,8.34,0,0,1,1.15-.89,12.64,12.64,0,0,1,5-1.94,12.47,12.47,0,0,1,7.79,1.28,13.33,13.33,0,0,1,3.72,2.93,13.2,13.2,0,0,1,1.46,2c.42.74.78,1.51,1.18,2.26a6.9,6.9,0,0,0,3.15,3.53,11.64,11.64,0,0,0,4.49.58,9.68,9.68,0,0,1,4.22.69,5.39,5.39,0,0,1,2.58,2.7,11.27,11.27,0,0,1,.78,5.29,12.45,12.45,0,0,1-.17,1.44C426.59,362.39,426.55,362.56,426.53,362.55Z" style="fill:#fff"></path><path d="M402.55,279.86s-.29.62-.82,1.71a13.34,13.34,0,0,0-1.5,4.86,6.46,6.46,0,0,0,.73,3.35,27.07,27.07,0,0,0,2.28,3.37,12.09,12.09,0,0,1,2.26,9.08,10.26,10.26,0,0,1-5.5,7.49,9.21,9.21,0,0,1-4.06,1,8.78,8.78,0,0,1-7.42-4.23,6.17,6.17,0,0,1-.58-1.3,2.84,2.84,0,0,1-.12-.48c.06,0,.23.65.87,1.67a8.69,8.69,0,0,0,3.85,3.22,8.35,8.35,0,0,0,3.4.69,8.85,8.85,0,0,0,3.84-1,9.81,9.81,0,0,0,5.2-7.15,11.67,11.67,0,0,0-2.13-8.71,27.73,27.73,0,0,1-2.28-3.45,6.76,6.76,0,0,1-.7-3.57,12.59,12.59,0,0,1,1.67-4.93c.3-.54.55-.94.72-1.22S402.53,279.85,402.55,279.86Z" style="fill:#fff"></path><path d="M432.68,246.3a5,5,0,0,1-.13-1.19c0-.88-.1-2-.16-3.25-.14-2.86-.32-6.6-.52-10.73s-.33-8-.37-10.74c0-1.37,0-2.49,0-3.26a6,6,0,0,1,.08-1.19,5,5,0,0,1,.13,1.19c0,.88.09,2,.16,3.25.14,2.86.32,6.6.52,10.73s.33,8,.37,10.74c0,1.37,0,2.49,0,3.26A5.92,5.92,0,0,1,432.68,246.3Z" style="fill:#263238"></path><path d="M432.77,234s0,17.91-4.48,19.61c-12.2,4.61-26.79,3.55-31.92,3.07-.62-.43-1.33-.95-2.13-1.61a7.74,7.74,0,0,1-1.76-2,12.5,12.5,0,0,1-1.46-3,1,1,0,0,0-1.89-.37c-.37.86-.25,4,1.72,6.65a1.34,1.34,0,0,1-.74,1.9c-2.05,1-9.32,4.08-10.47,4.77s-2,1.64-.83,1.71,7.26-1.44,7.26-1.44-8,1.82-7.72,3c.22.8,2.45,1,7.65-.76,0,0-6.62,1.54-7.25,2.32-1.42,1.74,6.56,0,6.56,0-5.58,1.3-5.55,1-5.53,1.77,0,.59,1.31.7,4.42.42,2.52-.22,5.17.06,9-.07h0s49.81,8.88,54.34-13.11c2.45-11.85,2-16.23,2.53-23.88" style="fill:#b78876"></path><path d="M388.68,267.06a14.79,14.79,0,0,1-3.78,1.05,15.05,15.05,0,0,1-3.89.54,15.12,15.12,0,0,1,3.78-1A16,16,0,0,1,388.68,267.06Z" style="fill:#a36957"></path><path d="M388.41,264.87a16.84,16.84,0,0,1-4,1.34,16.54,16.54,0,0,1-4.11.84,33.85,33.85,0,0,1,8.08-2.18Z" style="fill:#a36957"></path><path d="M388.11,262.59a15.06,15.06,0,0,1-3.73,1.34,15.51,15.51,0,0,1-3.88.83,14.8,14.8,0,0,1,3.74-1.33A15.89,15.89,0,0,1,388.11,262.59Z" style="fill:#a36957"></path><path d="M403.55,158.59a11.41,11.41,0,0,0-1.2,6.44c.16,1.45.55,3-.25,4.25-1,1.47-3.26,1.59-4.22,3.07-1.38,2.14,1.05,5.15-.06,7.44-.73,1.52-2.65,2-3.95,3a5.33,5.33,0,0,0-1.22,6.41c.94,1.83,2.8,3,4.56,4.05l4.05,2.44a3.77,3.77,0,0,0,2.36.77c1.48-.21,2.18-2,3.52-2.69,1.66-.83,3.6.32,5.45.44a4.85,4.85,0,0,0,5.16-5.16" style="fill:#263238"></path><path d="M408.1,201.07c.45-4.66.83-9.58.83-9.58S403,189.9,402.55,182c-.45-7.58,2.48-24.71,2.48-24.71h0a22.63,22.63,0,0,1,24.47,8.2h0l-4.23,37.79a8.17,8.17,0,0,1-9.35,6.9h0C411.18,209.56,407.68,205.51,408.1,201.07Z" style="fill:#b78876"></path><path d="M404.4,170.75a1,1,0,0,0,.87,1.11,1,1,0,0,0,1.13-.8,1,1,0,0,0-.87-1.11A1,1,0,0,0,404.4,170.75Z" style="fill:#263238"></path><path d="M404.41,169.64c.11.15.92-.34,2-.23s1.82.73,1.95.61,0-.31-.36-.59a2.68,2.68,0,0,0-1.54-.65,2.71,2.71,0,0,0-1.62.35C404.49,169.35,404.35,169.58,404.41,169.64Z" style="fill:#263238"></path><path d="M415.64,172.21a1,1,0,0,0,.87,1.11,1,1,0,0,0,1.12-.81,1,1,0,0,0-.86-1.1A1,1,0,0,0,415.64,172.21Z" style="fill:#263238"></path><path d="M415.64,171.15c.12.14.93-.35,2-.24s1.82.73,2,.61,0-.3-.36-.59a2.82,2.82,0,0,0-1.54-.65,2.69,2.69,0,0,0-1.62.35C415.73,170.86,415.59,171.08,415.64,171.15Z" style="fill:#263238"></path><path d="M410.93,178.78a6.91,6.91,0,0,0-1.72-.49c-.27-.06-.53-.14-.56-.33a1.43,1.43,0,0,1,.27-.8c.32-.64.66-1.32,1-2a35,35,0,0,0,2.37-5.32,37.47,37.47,0,0,0-2.79,5.11q-.52,1.06-1,2a1.57,1.57,0,0,0-.25,1.07.71.71,0,0,0,.41.45,1.89,1.89,0,0,0,.46.11A7,7,0,0,0,410.93,178.78Z" style="fill:#263238"></path><path d="M408.93,191.49a20,20,0,0,0,10.76-1.76s-3.07,5.13-10.84,3.62Z" style="fill:#a36957"></path><path d="M411.13,181.43a2,2,0,0,1,1.82-.56,1.76,1.76,0,0,1,1.16.78,1.12,1.12,0,0,1,0,1.3,1.31,1.31,0,0,1-1.45.22,4.18,4.18,0,0,1-1.3-1,1.31,1.31,0,0,1-.28-.35.36.36,0,0,1,0-.4" style="fill:#a36957"></path><path d="M414,179.84c-.17,0-.29,1.14-1.38,1.88s-2.32.48-2.35.64.26.26.79.32a2.91,2.91,0,0,0,1.95-.47,2.59,2.59,0,0,0,1.08-1.58C414.22,180.14,414.12,179.84,414,179.84Z" style="fill:#263238"></path><path d="M425.77,173.8a4.8,4.8,0,0,1,2.51.4,3.33,3.33,0,0,1,1.68,1.86,3.47,3.47,0,0,1-.23,2.51,5.81,5.81,0,0,1-1.63,2,4,4,0,0,1-1.62.86,1.87,1.87,0,0,1-1.72-.44" style="fill:#ffbe9d"></path><path d="M425.73,178.92c-.1,0,.22.56,1,.43a1.67,1.67,0,0,0,1-.73,3.81,3.81,0,0,0,.56-1.35,2.22,2.22,0,0,0-.21-1.51,1.49,1.49,0,0,0-1-.76c-.78-.09-1.08.43-1,.45s.39-.18.89,0a1.42,1.42,0,0,1,.71,1.7c-.18.85-.58,1.61-1.06,1.76S425.79,178.85,425.73,178.92Z" style="fill:#eb996e"></path><path d="M407.07,155.3a5.72,5.72,0,0,0,1.92,6.58c2,1.45,4.69,1.39,7.13,1.81s5.16,1.89,5.33,4.36c.1,1.5-.8,3-.26,4.45.63,1.64,2.87,2.12,3.66,3.69,1.27,2.52-2,5.28-1.57,8.06.28,1.65,1.83,2.85,2.17,4.49.49,2.33-1.55,5.09,0,6.93,1.15,1.42,3.43,1,5,.09s3.35-2,5.12-1.52a15,15,0,0,1,2.85,1.62,5.08,5.08,0,0,0,7.21-6,14.15,14.15,0,0,0-2.29-3.75A5.66,5.66,0,0,1,442,182a9.8,9.8,0,0,1,1.53-3,3.32,3.32,0,0,0,.41-3.2c-1-1.74-3.84-1.26-5.08-2.8-1.7-2.13,1.33-5.41.19-7.88-1.3-2.8-6.39-1.71-7.7-4.5-.47-1-.23-2.22-.46-3.32-.54-2.51-3.38-3.84-5.94-4s-5.15.46-7.68.08c-1.39-.21-2.72-.71-4.1-1a6.25,6.25,0,0,0-4.12.28,3.09,3.09,0,0,0-1.74,3.46" style="fill:#263238"></path><path d="M408.81,160.59a9.57,9.57,0,0,1-6.46,5.44,23,23,0,0,1,0-5.8,9.13,9.13,0,0,1,2.49-5.16,5.8,5.8,0,0,1,5.34-1.57" style="fill:#263238"></path><path d="M440.57,195.57a1.22,1.22,0,0,0,.4-.47,1.82,1.82,0,0,0-.15-1.68,2.5,2.5,0,0,0-.91-.85,8,8,0,0,0-1.41-.58,8,8,0,0,1-1.64-.67,2.49,2.49,0,0,1-1.26-1.54,3.17,3.17,0,0,1,.42-2.15c.34-.68.79-1.34,1.09-2.08a5.46,5.46,0,0,0-.54-4.9,5,5,0,0,0-2-1.85c-.84-.42-1.81-.65-2.73-1.05a4.11,4.11,0,0,1-1.29-.86,2.56,2.56,0,0,1-.7-1.41,10.66,10.66,0,0,1,.28-3.14,5.81,5.81,0,0,0-.4-3,7.87,7.87,0,0,0-1.66-2.49,11.58,11.58,0,0,0-4.9-2.79,44.61,44.61,0,0,0-5.07-1.13,32.5,32.5,0,0,1-4.43-1,12.82,12.82,0,0,1-3.38-1.64,9.27,9.27,0,0,1-2.06-1.94,7.12,7.12,0,0,1-.9-1.55,4.9,4.9,0,0,1-.2-.59s.08.2.24.57a7.19,7.19,0,0,0,.93,1.52,11,11,0,0,0,5.42,3.48,33.89,33.89,0,0,0,4.41,1,43.63,43.63,0,0,1,5.1,1.11,11.72,11.72,0,0,1,5,2.84,8,8,0,0,1,1.71,2.55,6.05,6.05,0,0,1,.41,3.13,10.92,10.92,0,0,0-.28,3.08,2.43,2.43,0,0,0,.64,1.29,3.69,3.69,0,0,0,1.22.8c.9.4,1.86.63,2.74,1.06a5.4,5.4,0,0,1,2.08,1.94,5.68,5.68,0,0,1,.53,5.08c-.31.77-.77,1.42-1.1,2.09a3,3,0,0,0-.42,2,2.35,2.35,0,0,0,1.17,1.45,8.16,8.16,0,0,0,1.61.68,7.4,7.4,0,0,1,1.42.61,2.55,2.55,0,0,1,.94.9,1.87,1.87,0,0,1,.11,1.75A.9.9,0,0,1,440.57,195.57Z" style="fill:#455a64"></path><path d="M438.72,171.34l-.1,0-.29,0a9.5,9.5,0,0,1-1.12.16,5.57,5.57,0,0,1-1.79-.07,3.55,3.55,0,0,1-2-1.21,7,7,0,0,1-1.28-2.58,28.85,28.85,0,0,0-.93-3.14,7.37,7.37,0,0,0-2.15-2.82,11.34,11.34,0,0,0-3.37-1.85,30.82,30.82,0,0,0-7.39-1.2c-1.15-.1-2.25-.21-3.27-.39a17.25,17.25,0,0,1-2.79-.69,10.74,10.74,0,0,1-3.62-2,6.56,6.56,0,0,1-1-1.12l.07.07.2.21a8.35,8.35,0,0,0,.82.77,10.76,10.76,0,0,0,3.61,1.94,18.17,18.17,0,0,0,2.77.66c1,.17,2.11.27,3.26.36a30.21,30.21,0,0,1,7.45,1.2,11.43,11.43,0,0,1,3.43,1.89,7.51,7.51,0,0,1,2.2,2.91,27.25,27.25,0,0,1,.92,3.16,6.72,6.72,0,0,0,1.23,2.53,3.46,3.46,0,0,0,1.93,1.2,6.1,6.1,0,0,0,1.76.1c.48,0,.86-.08,1.12-.11Z" style="fill:#455a64"></path><path d="M397.41,192.26s-.05,0-.15,0a2.94,2.94,0,0,1-.42-.22,4.25,4.25,0,0,1-1.24-1.18,4.58,4.58,0,0,1-.85-2.4,4.37,4.37,0,0,1,1-2.95,4.57,4.57,0,0,1,2.65-1.63,16,16,0,0,0,2.49-.35,1.93,1.93,0,0,0,1.16-1.1,1.52,1.52,0,0,0,.06-.6s0,.05,0,.15a1.15,1.15,0,0,1,0,.48,2,2,0,0,1-1.19,1.22,13.33,13.33,0,0,1-2.51.4,4.48,4.48,0,0,0-2.52,1.57,4.23,4.23,0,0,0-1,2.8,4.5,4.5,0,0,0,.77,2.32,4.6,4.6,0,0,0,1.16,1.2C397.22,192.15,397.42,192.24,397.41,192.26Z" style="fill:#455a64"></path><path d="M401.6,198.71c-.65.11.14,21.88,14.4,22.71,13.5.77,14.6-21.48,14.6-21.48S414.27,196.51,401.6,198.71Z" style="fill:#b78876"></path><path d="M399,456.71v-1.93l18.19,0,.05,6.37-1.12.08c-5,.29-25.43,1.14-28.77.14C383.61,460.22,399,456.71,399,456.71Z" style="fill:#23D07E"></path><g style="opacity:0.30000000000000004"><path d="M410.66,461a6.33,6.33,0,0,1,2.3-3.87,6.18,6.18,0,0,1,4.23-1.33l0,5.06Z" style="fill:#fff"></path></g><g style="opacity:0.30000000000000004"><path d="M391.47,458.69s-5.38,1.58-4.71,2.46,21.35.81,30.47,0l0-.4-24.12.3S392.53,458.73,391.47,458.69Z" style="fill:#fff"></path></g><path d="M417.48,460.71l-.31,0-.89.06L413,461c-2.78.11-6.62.22-10.87.24s-8.09-.05-10.87-.13l-3.29-.13-.89-.05a1.11,1.11,0,0,1-.31,0,1.43,1.43,0,0,1,.31,0H388l3.3,0c2.78.05,6.62.09,10.86.07s8.08-.1,10.86-.17l3.29-.09h1.21Z" style="fill:#263238"></path><path d="M393.09,461.3a7.54,7.54,0,0,0-.62-1.57,7.23,7.23,0,0,0-1.13-1.25,2.42,2.42,0,0,1,1.32,1.14A2.45,2.45,0,0,1,393.09,461.3Z" style="fill:#263238"></path><path d="M398.42,458.57c-.05,0-.31-.28-.57-.69s-.44-.78-.39-.81.31.27.57.69S398.47,458.54,398.42,458.57Z" style="fill:#263238"></path><path d="M399.88,457.79s-.32-.15-.64-.43-.53-.54-.49-.58.33.14.64.42S399.93,457.74,399.88,457.79Z" style="fill:#263238"></path><path d="M400.8,456.08a2.16,2.16,0,0,1-.94.12,2.09,2.09,0,0,1-.95-.1,2.23,2.23,0,0,1,.95-.12C400.38,456,400.8,456,400.8,456.08Z" style="fill:#263238"></path><path d="M401.12,454.87a1.9,1.9,0,0,1-1.05.31A1.78,1.78,0,0,1,399,455a6,6,0,0,1,1.07-.08A6.16,6.16,0,0,1,401.12,454.87Z" style="fill:#263238"></path><path d="M397.8,457a3.23,3.23,0,0,1-1.16,0,6.82,6.82,0,0,1-1.24-.27,3.22,3.22,0,0,1-.71-.29.57.57,0,0,1-.29-.36.44.44,0,0,1,.17-.46,2.17,2.17,0,0,1,3,1.38.87.87,0,0,1,0,.32,3.1,3.1,0,0,0-.54-1,2,2,0,0,0-1-.64,1.82,1.82,0,0,0-1.39.1c-.18.13-.11.35.1.47a3.11,3.11,0,0,0,.65.28,7.9,7.9,0,0,0,1.2.31C397.36,457,397.8,457,397.8,457Z" style="fill:#263238"></path><path d="M397.5,457.05a1.13,1.13,0,0,1-.14-.81,1.91,1.91,0,0,1,.32-.85,1.14,1.14,0,0,1,1-.59.45.45,0,0,1,.36.53,1.34,1.34,0,0,1-.19.52,3.57,3.57,0,0,1-.55.71,1.64,1.64,0,0,1-.66.47s.23-.21.55-.58a3.7,3.7,0,0,0,.48-.7c.16-.24.27-.69,0-.74s-.59.27-.77.5a1.83,1.83,0,0,0-.32.76A4.28,4.28,0,0,0,397.5,457.05Z" style="fill:#263238"></path><path d="M417.09,455.75s-.52,0-1.33.05a6,6,0,0,0-2.92,1.22A5.86,5.86,0,0,0,411,459.6c-.27.78-.3,1.3-.34,1.3a1.17,1.17,0,0,1,0-.37,4.89,4.89,0,0,1,.19-1,5.5,5.5,0,0,1,4.86-3.91,5.16,5.16,0,0,1,1,0A1,1,0,0,1,417.09,455.75Z" style="fill:#263238"></path><path d="M408.38,459.25a10.86,10.86,0,0,1-2.65.27,10.68,10.68,0,0,1-2.64-.2c0-.07,1.18,0,2.64,0S408.37,459.18,408.38,459.25Z" style="fill:#263238"></path><path d="M411.93,459.23s-.1.25-.22.52-.18.51-.25.51-.09-.29.05-.6S411.89,459.18,411.93,459.23Z" style="fill:#263238"></path><path d="M413.26,457.56s-.08.23-.26.42-.38.31-.42.27.07-.23.26-.42S413.21,457.51,413.26,457.56Z" style="fill:#263238"></path><path d="M415.17,456.79c0,.06-.26.06-.52.15s-.46.24-.51.2.11-.29.44-.4S415.19,456.73,415.17,456.79Z" style="fill:#263238"></path><path d="M416.53,456.42c0,.06-.08.15-.23.21s-.29.06-.31,0,.08-.15.23-.21S416.51,456.37,416.53,456.42Z" style="fill:#263238"></path><path d="M437.19,457.18l-.82-1.75,16.44-7.78,2.76,5.74-1,.54c-4.39,2.4-22.5,11.89-25.95,12.42C424.79,466.93,437.19,457.18,437.19,457.18Z" style="fill:#23D07E"></path><g style="opacity:0.30000000000000004"><path d="M449.58,456.08a6.31,6.31,0,0,1,.43-4.48,6.13,6.13,0,0,1,3.25-3l2.18,4.57Z" style="fill:#fff"></path></g><g style="opacity:0.30000000000000004"><path d="M431.25,462.19s-4.2,3.72-3.21,4.23,19.64-8.39,27.53-13l-.2-.36L433.69,463.6S432.22,461.77,431.25,462.19Z" style="fill:#fff"></path></g><path d="M455.62,452.9s-.08.06-.26.16l-.79.44L451.66,455c-2.46,1.29-5.89,3-9.72,4.86s-7.34,3.41-9.89,4.52l-3,1.29-.82.34a2,2,0,0,1-.3.1l.28-.14.81-.38,3-1.35c2.53-1.15,6-2.75,9.85-4.58s7.27-3.54,9.75-4.79l2.94-1.49.81-.39Z" style="fill:#263238"></path><path d="M433.82,463.85a7.64,7.64,0,0,0-1.23-1.15,6.64,6.64,0,0,0-1.56-.65,2.42,2.42,0,0,1,1.68.47A2.48,2.48,0,0,1,433.82,463.85Z" style="fill:#263238"></path><path d="M437.48,459.11c0,.05-.4-.12-.82-.38s-.73-.52-.7-.57.4.12.82.38S437.51,459.06,437.48,459.11Z" style="fill:#263238"></path><path d="M438.46,457.78a1.46,1.46,0,0,1-.75-.11c-.41-.12-.72-.27-.7-.32s.36,0,.76.11S438.48,457.72,438.46,457.78Z" style="fill:#263238"></path><path d="M438.57,455.83c0,.06-.34.29-.81.52a2.21,2.21,0,0,1-.89.32c0-.06.33-.29.8-.52A2.23,2.23,0,0,1,438.57,455.83Z" style="fill:#263238"></path><path d="M438.33,454.61c.05,0-.28.43-.82.73a1.88,1.88,0,0,1-1,.34,132.8,132.8,0,0,0,1.86-1.07Z" style="fill:#263238"></path><path d="M436.24,458a3.5,3.5,0,0,1-1.05.49,6.69,6.69,0,0,1-1.24.29,3.72,3.72,0,0,1-.76,0,.64.64,0,0,1-.42-.2.46.46,0,0,1,0-.5,2.15,2.15,0,0,1,3.33,0,.66.66,0,0,1,.16.27,3.29,3.29,0,0,0-.91-.67,2.08,2.08,0,0,0-1.17-.16,1.77,1.77,0,0,0-1.21.69c-.11.2.05.36.29.39a3.41,3.41,0,0,0,.71,0,8.08,8.08,0,0,0,1.21-.24C435.82,458.1,436.23,457.91,436.24,458Z" style="fill:#263238"></path><path d="M436,458.13a1.17,1.17,0,0,1-.47-.67,2,2,0,0,1-.08-.91,1.18,1.18,0,0,1,.62-.95.47.47,0,0,1,.56.33,1.17,1.17,0,0,1,0,.55,3.39,3.39,0,0,1-.19.88,1.62,1.62,0,0,1-.4.71s.12-.29.25-.76a3.87,3.87,0,0,0,.14-.84c0-.29,0-.74-.34-.66s-.42.49-.48.78a2,2,0,0,0,0,.82A5.12,5.12,0,0,0,436,458.13Z" style="fill:#263238"></path><path d="M453.16,448.59s-.49.18-1.19.62a5.64,5.64,0,0,0-2.65,5.45c.08.82.28,1.3.24,1.32a1.25,1.25,0,0,1-.15-.33,4.74,4.74,0,0,1-.25-1,5.53,5.53,0,0,1,2.73-5.61,5.51,5.51,0,0,1,.91-.4A1.12,1.12,0,0,1,453.16,448.59Z" style="fill:#263238"></path><path d="M446.77,455.47a10.08,10.08,0,0,1-2.28,1.37,9.89,9.89,0,0,1-2.48,1c0-.06,1.08-.5,2.39-1.14S446.73,455.41,446.77,455.47Z" style="fill:#263238"></path><path d="M450,453.94c.06,0,0,.26,0,.56s.05.54,0,.57-.21-.22-.21-.57S449.91,453.91,450,453.94Z" style="fill:#263238"></path><path d="M450.46,451.86c.06,0,0,.24-.06.49s-.2.44-.26.42,0-.24.06-.49S450.4,451.84,450.46,451.86Z" style="fill:#263238"></path><path d="M451.86,450.35c0,.06-.21.16-.41.36s-.31.41-.37.39,0-.31.22-.55S451.85,450.29,451.86,450.35Z" style="fill:#263238"></path><path d="M452.93,449.44c.05,0,0,.17-.12.28s-.23.18-.28.14,0-.17.12-.29S452.89,449.39,452.93,449.44Z" style="fill:#263238"></path></g><g id="freepik--character-1--inject-65"><path d="M288.65,457.39l-.21-9.21-17.24.29.17,13.46,1.07.05c4.76.19,24.22.61,27.38-.4C303.35,460.44,288.65,457.39,288.65,457.39Z" style="fill:#23D07E"></path><g style="opacity:0.4"><path d="M295.84,459.14s5.16,1.39,4.53,2.25-20.31,1.16-29,.54l0-.38,23-.17S294.84,459.19,295.84,459.14Z" style="fill:#fff"></path></g><path d="M271.12,461.54l.29,0,.86,0,3.13.08c2.65.05,6.31.08,10.35,0s7.7-.2,10.34-.33l3.14-.18.85-.06.29,0a1.13,1.13,0,0,0-.3,0l-.85,0-3.13.11c-2.65.1-6.3.21-10.34.27s-7.7.06-10.35,0l-3.13,0h-.85A1.36,1.36,0,0,0,271.12,461.54Z" style="fill:#263238"></path><path d="M294.35,461.65a4.49,4.49,0,0,1,1.61-2.72,2.78,2.78,0,0,0-1.61,2.72Z" style="fill:#263238"></path><path d="M289.22,459.15s.29-.27.54-.67.4-.75.35-.78-.29.27-.53.67S289.17,459.12,289.22,459.15Z" style="fill:#263238"></path><path d="M287.81,458.43s.31-.14.61-.41.49-.53.46-.57-.31.14-.61.41S287.78,458.39,287.81,458.43Z" style="fill:#263238"></path><path d="M286.91,456.82a2,2,0,0,0,.9.1,1.94,1.94,0,0,0,.9-.11,2.05,2.05,0,0,0-.9-.1A1.94,1.94,0,0,0,286.91,456.82Z" style="fill:#263238"></path><path d="M286.59,455.68a1.73,1.73,0,0,0,1,.27,1.79,1.79,0,0,0,1-.15,5.7,5.7,0,0,0-1-.06A5.06,5.06,0,0,0,286.59,455.68Z" style="fill:#263238"></path><path d="M289.78,457.63a3,3,0,0,0,1.11,0,6.58,6.58,0,0,0,1.18-.28,3.16,3.16,0,0,0,.67-.29.58.58,0,0,0,.27-.35.44.44,0,0,0-.18-.44,2,2,0,0,0-2.5.64,1.92,1.92,0,0,0-.35.74.76.76,0,0,0,0,.3,3.36,3.36,0,0,1,.49-.95,2.05,2.05,0,0,1,.94-.63,1.73,1.73,0,0,1,1.32.07c.18.13.11.33-.08.45a3.17,3.17,0,0,1-.62.28,7,7,0,0,1-1.13.31C290.21,457.59,289.78,457.6,289.78,457.63Z" style="fill:#263238"></path><path d="M290.07,457.68a1,1,0,0,0,.12-.77,1.82,1.82,0,0,0-.32-.8,1.1,1.1,0,0,0-.93-.55.43.43,0,0,0-.33.52,1.26,1.26,0,0,0,.19.49,3.41,3.41,0,0,0,.54.66,1.68,1.68,0,0,0,.64.44s-.23-.2-.54-.54a4.71,4.71,0,0,1-.47-.66c-.16-.23-.27-.65,0-.71s.56.24.74.46a1.88,1.88,0,0,1,.32.72A4.57,4.57,0,0,1,290.07,457.68Z" style="fill:#263238"></path><path d="M271.4,456.82s.49-.06,1.27,0a5.74,5.74,0,0,1,2.8,1.1,5.61,5.61,0,0,1,1.77,2.43c.28.74.31,1.23.35,1.23a1.36,1.36,0,0,0,0-.35,4.62,4.62,0,0,0-.2-.93,5.31,5.31,0,0,0-1.79-2.54,5.23,5.23,0,0,0-2.91-1.08,4.51,4.51,0,0,0-.95,0C271.51,456.77,271.39,456.8,271.4,456.82Z" style="fill:#263238"></path><path d="M273.07,449.62a62.71,62.71,0,0,0,0,7.08,29,29,0,0,0,.09-3.54A28.69,28.69,0,0,0,273.07,449.62Z" style="fill:#263238"></path><path d="M279.76,460a10,10,0,0,0,2.52.21,10.33,10.33,0,0,0,2.52-.24c0-.06-1.13,0-2.52,0S279.76,459.92,279.76,460Z" style="fill:#263238"></path><path d="M276.38,460s.1.23.21.49.19.49.25.48.08-.27-.06-.57S276.42,460,276.38,460Z" style="fill:#263238"></path><path d="M275.08,458.46s.07.22.26.4.36.29.4.25-.08-.22-.26-.4S275.12,458.42,275.08,458.46Z" style="fill:#263238"></path><path d="M273.25,457.77c0,.06.24.05.49.14s.44.21.49.17-.11-.27-.42-.37S273.23,457.71,273.25,457.77Z" style="fill:#263238"></path><path d="M272,457.45c0,.05.08.14.22.19s.28.05.3,0-.08-.14-.23-.2S272,457.39,272,457.45Z" style="fill:#263238"></path><g style="opacity:0.30000000000000004"><polygon points="271.41 456.36 288.63 455.8 288.57 453.72 271.26 455.27 271.41 456.36"></polygon></g><path d="M325.67,457.37l-.25-9.2-17.24.37.23,13.47,1.07,0c4.77.16,24.23.49,27.39-.54C340.39,460.35,325.67,457.37,325.67,457.37Z" style="fill:#23D07E"></path><g style="opacity:0.4"><path d="M332.87,459.08s5.17,1.37,4.54,2.23-20.3,1.27-29,.7l0-.39,23-.29S331.87,459.15,332.87,459.08Z" style="fill:#fff"></path></g><path d="M308.16,461.61l.3,0,.85,0,3.14.07c2.65,0,6.3.05,10.35,0s7.69-.24,10.34-.38l3.13-.2.85-.07.29,0h-.29l-.86,0-3.13.13c-2.64.11-6.3.24-10.34.32s-7.69.1-10.34.1h-4.29Z" style="fill:#263238"></path><path d="M331.39,461.6a4.68,4.68,0,0,1,1.6-2.73,2.82,2.82,0,0,0-1.6,2.73Z" style="fill:#263238"></path><path d="M326.25,459.13c.05,0,.29-.27.53-.67s.4-.76.35-.78-.28.27-.52.67A1.94,1.94,0,0,0,326.25,459.13Z" style="fill:#263238"></path><path d="M324.84,458.42s.31-.15.6-.42.5-.53.46-.57-.31.15-.6.42S324.8,458.38,324.84,458.42Z" style="fill:#263238"></path><path d="M323.93,456.81a3.74,3.74,0,0,0,1.8,0,2.14,2.14,0,0,0-.9-.09A1.94,1.94,0,0,0,323.93,456.81Z" style="fill:#263238"></path><path d="M323.6,455.67a1.75,1.75,0,0,0,1,.27,1.7,1.7,0,0,0,1-.16,6.22,6.22,0,0,0-1,0A5,5,0,0,0,323.6,455.67Z" style="fill:#263238"></path><path d="M326.81,457.61a2.92,2.92,0,0,0,1.11,0,6.31,6.31,0,0,0,1.17-.28,3.77,3.77,0,0,0,.67-.29.61.61,0,0,0,.27-.35.45.45,0,0,0-.18-.44,2.05,2.05,0,0,0-2.85,1.39.63.63,0,0,0,0,.3,3.3,3.3,0,0,1,.48-1,2.05,2.05,0,0,1,.94-.63,1.73,1.73,0,0,1,1.32.06c.18.13.11.34-.08.46a3.17,3.17,0,0,1-.62.28,8.31,8.31,0,0,1-1.13.32C327.23,457.57,326.81,457.58,326.81,457.61Z" style="fill:#263238"></path><path d="M327.1,457.66a1.14,1.14,0,0,0,.11-.77,1.82,1.82,0,0,0-.32-.8,1.12,1.12,0,0,0-.94-.55.45.45,0,0,0-.33.52,1.36,1.36,0,0,0,.2.49,3.41,3.41,0,0,0,.54.66,1.68,1.68,0,0,0,.64.44s-.22-.2-.54-.54a3.76,3.76,0,0,1-.47-.66c-.16-.23-.27-.65,0-.7s.57.23.74.45a1.85,1.85,0,0,1,.33.72A4,4,0,0,1,327.1,457.66Z" style="fill:#263238"></path><path d="M308.42,456.89s.49-.06,1.27,0a5.43,5.43,0,0,1,4.59,3.5c.28.74.31,1.23.35,1.23s0-.13,0-.35a5.9,5.9,0,0,0-.21-.93,5.32,5.32,0,0,0-1.8-2.53,5.42,5.42,0,0,0-2.92-1.07,4.28,4.28,0,0,0-.95.05A.84.84,0,0,0,308.42,456.89Z" style="fill:#263238"></path><path d="M310.05,449.68a29.28,29.28,0,0,0-.07,3.54,28.7,28.7,0,0,0,.13,3.55,30.56,30.56,0,0,0,.08-3.55A29.71,29.71,0,0,0,310.05,449.68Z" style="fill:#263238"></path><path d="M316.79,460a10.53,10.53,0,0,0,2.53.2,9.54,9.54,0,0,0,2.51-.26c0-.06-1.13,0-2.52.05S316.8,460,316.79,460Z" style="fill:#263238"></path><path d="M313.42,460.08s.09.23.21.49.19.48.25.48.08-.28-.06-.57S313.45,460,313.42,460.08Z" style="fill:#263238"></path><path d="M312.11,458.52s.07.22.26.39.36.29.4.25-.08-.22-.26-.4S312.15,458.48,312.11,458.52Z" style="fill:#263238"></path><path d="M310.27,457.83c0,.06.25.05.5.14s.44.21.49.17-.11-.27-.43-.37S310.25,457.78,310.27,457.83Z" style="fill:#263238"></path><path d="M309,457.52c0,.05.08.14.22.19s.28.05.3,0-.08-.14-.22-.2S309,457.46,309,457.52Z" style="fill:#263238"></path><g style="opacity:0.30000000000000004"><polygon points="308.43 456.43 325.64 455.78 325.57 453.71 308.27 455.34 308.43 456.43"></polygon></g><polygon points="267.94 274.63 267.94 455.35 294.78 454.31 297.09 296.45 306.2 454.95 333.56 456.28 320.08 276.21 267.94 274.63" style="fill:#263238"></polygon><path d="M299.36,276.23a17.76,17.76,0,0,1,.23,3.08c.07,1.89.14,4.52.18,7.41,0,1.44,0,2.82,0,4.09a8,8,0,0,1-.55,3.35,3.75,3.75,0,0,1-1.53,1.73,1.38,1.38,0,0,1-.8.25s.27-.12.7-.42a3.78,3.78,0,0,0,1.29-1.7,8.18,8.18,0,0,0,.42-3.21c0-1.27-.05-2.64-.08-4.08,0-2.9,0-5.52,0-7.42A19.21,19.21,0,0,1,299.36,276.23Z" style="fill:#455a64"></path><path d="M295.26,278.25c.05.06-.35.3-.36.92a1,1,0,0,0,.38.85.93.93,0,0,0,1.07-.08.81.81,0,0,0,.06-1.34,1.12,1.12,0,0,0-1.08-.26v-.2c.22.11.33.19.31.23s-.14,0-.39,0l-.21-.05.2-.15a1.26,1.26,0,0,1,1.45.11,1.31,1.31,0,0,1,.55,1,1.3,1.3,0,0,1-.58,1.13,1.4,1.4,0,0,1-1.66,0,1.35,1.35,0,0,1-.46-1.27,1.21,1.21,0,0,1,.43-.77C295.13,278.23,295.25,278.23,295.26,278.25Z" style="fill:#455a64"></path><path d="M295.07,449.36c0,.14-6,.26-13.44.26s-13.44-.12-13.44-.26,6-.26,13.44-.26S295.07,449.21,295.07,449.36Z" style="fill:#455a64"></path><path d="M332.41,448.33c0,.15-6,.26-13.34.26s-13.33-.11-13.33-.26,6-.26,13.33-.26S332.41,448.19,332.41,448.33Z" style="fill:#455a64"></path><path d="M279.14,162.45a1.61,1.61,0,0,1-2.27,1.9c-1.06-.54-1.19-2-1-3.17s.6-2.42.11-3.5a7.87,7.87,0,0,0-1.82-2,5.11,5.11,0,0,1-1.43-4.35,4.3,4.3,0,0,1,3-3.39c1.56-.44,3.48,0,4.64-1.09.84-.82.89-2.16,1.54-3.13,1-1.52,3.15-1.76,5-1.51s3.64.82,5.41.38c1.47-.36,2.68-1.39,4.07-2a8,8,0,0,1,10.37,10.94,5.07,5.07,0,0,1-2.47,2.45" style="fill:#263238"></path><path d="M288.11,200.88h0a9,9,0,0,0,8.95-9.1l-.11-8.55s7.18-.72,7.66-7.84.13-23.54.13-23.54h0a24.82,24.82,0,0,0-25.05,1.77l-1.1.76.54,37.66A9,9,0,0,0,288.11,200.88Z" style="fill:#ffbe9d"></path><path d="M302.86,164.74a1.06,1.06,0,0,1,0-2.11h.18a1.07,1.07,0,0,1,0,2.12A.33.33,0,0,1,302.86,164.74Z" style="fill:#263238"></path><path d="M304.26,162.47c-.12.12-.79-.46-1.77-.52s-1.72.41-1.82.28.07-.27.39-.49a2.41,2.41,0,0,1,2.87.19C304.22,162.19,304.31,162.42,304.26,162.47Z" style="fill:#263238"></path><path d="M292.91,162.71a1,1,0,1,1-1.44.26A1,1,0,0,1,292.91,162.71Z" style="fill:#263238"></path><path d="M293.55,162.76c-.11.11-.78-.46-1.76-.52s-1.73.41-1.83.28.08-.28.4-.5a2.45,2.45,0,0,1,2.87.19C293.52,162.47,293.61,162.7,293.55,162.76Z" style="fill:#263238"></path><path d="M297.05,171.06a5.16,5.16,0,0,1,1.6-.25c.26,0,.46-.06.49-.19a1.37,1.37,0,0,0-.14-.75l-.67-2a26.63,26.63,0,0,1-1.39-5.34,28,28,0,0,1,1.92,5.17c.22.7.42,1.38.63,2.05a1.58,1.58,0,0,1,.08,1.07.68.68,0,0,1-.46.39,1.85,1.85,0,0,1-.45,0A4.6,4.6,0,0,1,297.05,171.06Z" style="fill:#263238"></path><path d="M293.8,172a18,18,0,0,0,4.74,1.66,2.72,2.72,0,0,1-3.26.91C293.19,173.64,293.8,172,293.8,172Z" style="fill:#fff"></path><path d="M297,183.13a16.57,16.57,0,0,1-9.14-3.15s1.92,5.25,9.06,5Z" style="fill:#eb996e"></path><path d="M304.8,153.65s-4.3,2.19-10-.52c-3.75-1.78-8.08-2.6-9-1.84s-1.07,4.59-4.72,5.78c0,0,.4,7.28-2.51,7.07s-1.32-11.52-1.32-11.52l7-3.61L292,147.4l7.33.88,5.68,1.44Z" style="fill:#263238"></path><path d="M279.08,161.8c-.12-.05-4.82-1.71-4.93,3.17s4.81,4,4.83,3.84S279.08,161.8,279.08,161.8Z" style="fill:#ffbe9d"></path><path d="M277.53,166.93s-.09.06-.23.12a.87.87,0,0,1-.64,0,2.1,2.1,0,0,1-.93-1.91,2.91,2.91,0,0,1,.26-1.21,1,1,0,0,1,.66-.64.43.43,0,0,1,.49.24c.07.14,0,.24.06.25s.11-.08.07-.28a.53.53,0,0,0-.18-.31.68.68,0,0,0-.47-.14,1.22,1.22,0,0,0-.91.74,2.92,2.92,0,0,0-.32,1.35,2.22,2.22,0,0,0,1.19,2.14.9.9,0,0,0,.78-.12C277.52,167.05,277.54,166.94,277.53,166.93Z" style="fill:#eb996e"></path><path d="M276.59,146.53a2.32,2.32,0,0,1,1.7.06,2.24,2.24,0,0,1,1.32,1.07,8,8,0,0,0-1.41-.84A8.48,8.48,0,0,0,276.59,146.53Z" style="fill:#263238"></path><path d="M279.53,143.61c.08,0,0,1,.12,2.25a10,10,0,0,0,.68,2.12s-.2-.17-.41-.53a4.77,4.77,0,0,1-.51-1.55A5.12,5.12,0,0,1,279.53,143.61Z" style="fill:#263238"></path><path d="M299.57,160.13c0-.06.19-.23.58-.39a4.34,4.34,0,0,1,1.64-.29,4.65,4.65,0,0,1,1.63.32c.39.17.6.35.57.4s-1-.23-2.21-.24S299.63,160.26,299.57,160.13Z" style="fill:#263238"></path><path d="M288.7,159.1s.18-.22.58-.38a4.23,4.23,0,0,1,1.63-.3,4.37,4.37,0,0,1,1.63.33c.39.17.6.34.57.4s-1-.24-2.2-.24S288.75,159.23,288.7,159.1Z" style="fill:#263238"></path><path d="M298.73,160.9a.9.9,0,0,1,0,.28c0,.21,0,.47,0,.79s0,.76,0,1.22a4.7,4.7,0,0,0,.23,1.59,4.27,4.27,0,0,0,1,1.62,4.18,4.18,0,0,0,1.93,1.06,3.85,3.85,0,0,0,1.18.1,3.7,3.7,0,0,0,1.22-.26,4.1,4.1,0,0,0,2.66-4c0-.83,0-1.64,0-2.4l.11.11-6-.06-1.75,0h-.65a4.53,4.53,0,0,1,.6,0l1.73,0,6.11-.06h.11v.12c0,.76,0,1.57,0,2.4a4.36,4.36,0,0,1-2.81,4.23,4.17,4.17,0,0,1-1.29.26,4.06,4.06,0,0,1-1.26-.12,4.33,4.33,0,0,1-2-1.13,4.39,4.39,0,0,1-1.05-1.71,4.49,4.49,0,0,1-.2-1.65c0-.48,0-.9,0-1.25s0-.57,0-.78A2.06,2.06,0,0,1,298.73,160.9Z" style="fill:#263238"></path><path d="M287.33,160.66s0,.1,0,.28l0,.79c0,.35,0,.76,0,1.22a4.62,4.62,0,0,0,.23,1.58,4.12,4.12,0,0,0,1,1.63,4.2,4.2,0,0,0,1.92,1.06,3.92,3.92,0,0,0,1.19.1,3.76,3.76,0,0,0,1.22-.26,4,4,0,0,0,2-1.62,4.17,4.17,0,0,0,.66-2.38v-2.4l.12.11-6-.06-1.75,0h-.65a4.35,4.35,0,0,1,.6,0l1.72,0,6.12-.06h.11v2.52a4.33,4.33,0,0,1-2.81,4.23,4.17,4.17,0,0,1-1.29.26,4,4,0,0,1-1.25-.12,4.29,4.29,0,0,1-3.06-2.84,4.73,4.73,0,0,1-.21-1.65c0-.48,0-.9,0-1.25s0-.57,0-.78A1,1,0,0,1,287.33,160.66Z" style="fill:#263238"></path><path d="M298.84,161.24a10.86,10.86,0,0,1-3.22,0,10,10,0,0,1,3.22,0Z" style="fill:#263238"></path><path d="M278.43,161.3a39.91,39.91,0,0,1,4.45-.14c2.46,0,4.45.05,4.45.11a39.91,39.91,0,0,1-4.45.14A42,42,0,0,1,278.43,161.3Z" style="fill:#263238"></path><path d="M328.86,225.41s3.18,19,5.37,19.88c12.12,4.79,26.65,4.43,31.8,4.11.62-.4,1.35-.9,2.18-1.53a7.9,7.9,0,0,0,1.82-2,12.57,12.57,0,0,0,1.56-3,1,1,0,0,1,1.9-.3c.34.87-.46,3.18-1.93,6.31,0,0-.81,1.68.67,2.2s10.91,4,11.68,4.89.55,1.93-.6,2-7.21-1.68-7.21-1.68,7.9,1.8,8,2.68c.12,1.33-2.84,1.44-8-.46,0,0,8.26.78,7.77,2.76-.24,1-7.64-.72-7.64-.72-.64.92,7.64.79,7.61,2.05,0,.58-1.16.95-5,.72-2.34-.15-6.21-.44-10.06-.7v.06s-49.35,7.34-53.32-14.75c-2.68-15-1.82-14.58-2.76-22.55" style="fill:#ffbe9d"></path><path d="M371.86,259.14c-.06,0-.34-.35-.9-.85a6.17,6.17,0,0,0-2.55-1.39l-.55-.15.49-.33c.11-.07.23-.14.35-.23a7.55,7.55,0,0,0,2.14-2.39c.42-.73.58-1.23.66-1.21a2.56,2.56,0,0,1-.33,1.38,6.37,6.37,0,0,1-2.17,2.64c-.13.1-.26.18-.38.26l-.07-.47a5.5,5.5,0,0,1,2.66,1.64C371.74,258.65,371.91,259.11,371.86,259.14Z" style="fill:#eb996e"></path><path d="M382.78,258.11a21.58,21.58,0,0,1-3.73-1.07,22.63,22.63,0,0,1-3.69-1.21,17.35,17.35,0,0,1,7.42,2.28Z" style="fill:#eb996e"></path><path d="M382.7,259.94a58.34,58.34,0,0,1-6.7-1.62,14.28,14.28,0,0,1,6.7,1.62Z" style="fill:#eb996e"></path><path d="M289.64,297.94a11.63,11.63,0,0,1-3.15.18,7.55,7.55,0,0,1-2.48-.54l-1-.43a8.84,8.84,0,0,1-3.72-3.1c-4.08-6-16.36-24.05-18.06-28-2-4.75,5.62-41.09,5.62-41.09l-15.1-4.9s-7.32,32-6.93,47.69c.25,10,27.69,37.64,27.71,37.67a96.59,96.59,0,0,0,5,8.65c2.7,3.8,3.05,3.57,3.44,3.18,1-1.05-4.5-6.88-2.58-6.32s5.95,7.92,7,6.78c1.36-1.49-4.55-7.48-5-8s.3-1.24.69-.72c.57.74,6.67,8.34,8,6.9.75-.8-.81-2-.81-2s-6.24-6.7-5.58-7.36,4.47,3.14,5.66,4.51,2.3,1.36,2.47.34c.11-.7-3.43-5-4.64-6.33s-4.58-4.93-1.47-4.51,5.65-.43,6.18-1.14S290.57,297.65,289.64,297.94Z" style="fill:#ffbe9d"></path><path d="M269,227.14l-.17,22.2-1.18,25.52,52.6,1.36-3.39-27.39-1.35-25.92s4.11-17.15,3.1-19.77a10.76,10.76,0,0,0-6.38-6.53c-.68-.39-10.37-3.49-14-3.69l0-6.77c-6,.59-9.15,7.72-9.15,7.72-2.5-6-11.89-6.91-11.89-6.91l.17,6.23a44.21,44.21,0,0,0-9.84,1.8c-5.24,1.89-8.13,3.25-12,7.15-2.7,2.7-5,12.53-5.7,17.08" style="fill:#23D07E"></path><path d="M287.33,191.49a2.46,2.46,0,0,0-1.76.23,2.94,2.94,0,0,0-1.25,1.45,7,7,0,0,0-.39,1.12c-.06.2-.11.41-.17.62a1.45,1.45,0,0,1-.33.72.78.78,0,0,1-.46.23,1,1,0,0,1-.44-.09l-.61-.28-1.1-.55L279,194a7.69,7.69,0,0,1-1.65-1,7,7,0,0,1,1.81.65l1.91.85,1.11.52.58.26c.18.07.25.06.34,0a4.68,4.68,0,0,0,.38-1.12,6.5,6.5,0,0,1,.45-1.19,3.17,3.17,0,0,1,1.51-1.57,2.21,2.21,0,0,1,1.46-.17C287.2,191.32,287.34,191.47,287.33,191.49Z" style="fill:#263238"></path><path d="M298.36,192.54a29.79,29.79,0,0,1-4.07,3.38l-.34.25-.07-.42c0-.17-.07-.35-.1-.53a6.15,6.15,0,0,0-1.53-3.59,5.38,5.38,0,0,0-1.39-.88,2,2,0,0,1,1.64.6,4.26,4.26,0,0,1,1.16,1.55,9.35,9.35,0,0,1,.63,2.23l.1.54-.41-.17A28.51,28.51,0,0,1,298.36,192.54Z" style="fill:#263238"></path><path d="M313.38,197.12s8.64,2.94,12.4,14.61a181.62,181.62,0,0,1,5.6,22.75l-14.72,5L311.17,206Z" style="fill:#23D07E"></path><path d="M331.38,234.48s1.54,6.85,2.43,8.11.62,2.24,7.55,3.86S357,249,360.08,248.61l2.16.08,1.44,15.19s-17.37,2.46-29.07-.51-16.83-7-17.46-9.63-1.26-15.47-1.26-15.47Z" style="fill:#23D07E"></path><path d="M293.6,206.6c0-.06.4-.24.88.17a1.19,1.19,0,0,1,.4,1,1.15,1.15,0,0,1-.92,1,1.13,1.13,0,0,1-1.24-.46,1.19,1.19,0,0,1-.07-1.06c.26-.58.73-.6.72-.54s-.28.22-.37.66a.85.85,0,0,0,.12.67.69.69,0,0,0,.73.22.66.66,0,0,0,.55-.51.85.85,0,0,0-.18-.66C293.94,206.67,293.6,206.68,293.6,206.6Z" style="fill:#263238"></path><path d="M295.52,225.2s.4-.24.88.18a1.15,1.15,0,1,1-1.76,1.47,1.19,1.19,0,0,1-.07-1.06c.26-.58.73-.6.72-.53s-.27.21-.37.65a.88.88,0,0,0,.12.68.73.73,0,0,0,.73.22.7.7,0,0,0,.56-.52.89.89,0,0,0-.19-.66C295.86,225.28,295.53,225.28,295.52,225.2Z" style="fill:#263238"></path><path d="M296.71,243.36c0-.05.39-.24.88.18a1.11,1.11,0,0,1-.52,1.94,1.11,1.11,0,0,1-1.31-1.53c.25-.58.72-.6.71-.53s-.27.21-.36.65a.84.84,0,0,0,.12.68.76.76,0,0,0,1.28-.3.85.85,0,0,0-.19-.66C297.05,243.44,296.71,243.44,296.71,243.36Z" style="fill:#263238"></path><path d="M297.9,263.13c0-.06.4-.24.88.17a1.1,1.1,0,0,1-.52,1.94,1.15,1.15,0,0,1-1.24-.46,1.19,1.19,0,0,1-.07-1.06c.26-.58.73-.61.72-.54s-.28.21-.37.65a.87.87,0,0,0,.12.68.69.69,0,0,0,.73.22.68.68,0,0,0,.55-.51.87.87,0,0,0-.18-.67C298.24,263.2,297.9,263.2,297.9,263.13Z" style="fill:#263238"></path><path d="M269,226.62a7,7,0,0,1,.1-1.34c.1-1,.24-2.19.4-3.65s.35-3.37.52-5.41c.07-1,.15-2.09.24-3.2a21.42,21.42,0,0,0,0-3.4,7.36,7.36,0,0,0-1-3.16,6.85,6.85,0,0,0-2.16-2.19,11.13,11.13,0,0,0-5-1.59,31,31,0,0,0-3.65-.05,8.17,8.17,0,0,1-1.34,0,5.8,5.8,0,0,1,1.33-.2,24.86,24.86,0,0,1,3.69-.1,11,11,0,0,1,5.27,1.55,7.39,7.39,0,0,1,2.34,2.32,7.83,7.83,0,0,1,1,3.38,21.35,21.35,0,0,1,0,3.49c-.09,1.11-.18,2.18-.28,3.2-.19,2.05-.41,3.88-.62,5.42s-.42,2.77-.57,3.63A6.18,6.18,0,0,1,269,226.62Z" style="fill:#263238"></path><g style="opacity:0.30000000000000004"><path d="M277.31,193s6.36,6.55,7.24,5.58,1.28-7.27,3.86-6a2.47,2.47,0,0,0-1.6-1.15c-1-.1-2.57-.25-3.36,3.35,0,0,0,1.12-.85.79S277.31,193,277.31,193Z"></path></g><g style="opacity:0.30000000000000004"><path d="M290.06,192.12a1.76,1.76,0,0,1,1.68,1.39,42,42,0,0,1,.42,5.18l5.64-5.57-3.7,2.57s-.5-4.38-3.24-4.94Z"></path></g><g style="opacity:0.30000000000000004"><polygon points="270.05 218.51 274.75 274.86 267.61 274.86 268.67 251.6 268.96 226.67 270.05 218.51"></polygon></g><path d="M272.57,204.12a1,1,0,0,1,.32-.33,2.81,2.81,0,0,1,1.24-.49,2.44,2.44,0,0,1,2.05.49,2.94,2.94,0,0,1,.51,2.75,5.27,5.27,0,0,1-2,2.77c-1,.76-2.07,1.39-3.2,2.11-2.29,1.42-4.77,3-7.45,4.61a4.61,4.61,0,0,1-2.3.68,2.44,2.44,0,0,1-2.1-1.15,2.61,2.61,0,0,1,0-2.3,5.35,5.35,0,0,1,1.34-1.68,42.36,42.36,0,0,1,5.78-4.24c1.73-1.07,3.17-1.87,4.17-2.42a12.25,12.25,0,0,1,1.58-.8,11.33,11.33,0,0,1-1.48,1c-1,.6-2.37,1.44-4.07,2.55a45.54,45.54,0,0,0-5.66,4.28,5.09,5.09,0,0,0-1.21,1.53,2.17,2.17,0,0,0,0,1.86,1.9,1.9,0,0,0,1.66.87,4.11,4.11,0,0,0,2-.62l7.45-4.56c1.14-.71,2.26-1.33,3.19-2a4.94,4.94,0,0,0,1.86-2.53A2.65,2.65,0,0,0,276,204a2.28,2.28,0,0,0-1.83-.5A3.28,3.28,0,0,0,272.57,204.12Z" style="fill:#fff"></path><path d="M293.8,212a1,1,0,0,1,.32-.33,2.81,2.81,0,0,1,1.24-.49,2.44,2.44,0,0,1,2.05.49,2.94,2.94,0,0,1,.51,2.75,5.37,5.37,0,0,1-2,2.77c-1,.76-2.07,1.39-3.2,2.11-2.29,1.42-4.77,3-7.45,4.6a4.52,4.52,0,0,1-2.31.68,2.39,2.39,0,0,1-2.09-1.14,2.61,2.61,0,0,1,0-2.3,5.22,5.22,0,0,1,1.34-1.68,42.36,42.36,0,0,1,5.78-4.24c1.73-1.07,3.17-1.87,4.17-2.42a12.25,12.25,0,0,1,1.58-.8,11.73,11.73,0,0,1-1.48,1c-1,.61-2.37,1.45-4.07,2.56a45.54,45.54,0,0,0-5.66,4.28,5.09,5.09,0,0,0-1.21,1.53,2.11,2.11,0,0,0,0,1.85,1.91,1.91,0,0,0,1.66.88,4.14,4.14,0,0,0,2-.62l7.45-4.56c1.13-.71,2.26-1.33,3.18-2a4.9,4.9,0,0,0,1.87-2.53,2.65,2.65,0,0,0-.35-2.44,2.29,2.29,0,0,0-1.83-.5A3.11,3.11,0,0,0,293.8,212Z" style="fill:#fff"></path><path d="M288.59,240.37a1.08,1.08,0,0,1,.46.06,2.73,2.73,0,0,1,1.14.69,2.48,2.48,0,0,1,.84,1.94,2.94,2.94,0,0,1-1.88,2.06,5.34,5.34,0,0,1-3.39.11c-1.19-.3-2.36-.82-3.62-1.28-2.51-1-5.26-2-8.16-3.16a4.71,4.71,0,0,1-1.94-1.43,2.42,2.42,0,0,1-.35-2.36,2.63,2.63,0,0,1,1.85-1.38,5.33,5.33,0,0,1,2.15.06,41.63,41.63,0,0,1,6.86,2c1.91.73,3.41,1.4,4.45,1.87a11.34,11.34,0,0,1,1.59.77,10.38,10.38,0,0,1-1.67-.59c-1.06-.4-2.59-1-4.49-1.7a45.71,45.71,0,0,0-6.83-1.93,4.94,4.94,0,0,0-2-.05,2.16,2.16,0,0,0-1.49,1.11,1.91,1.91,0,0,0,.3,1.85,4.06,4.06,0,0,0,1.73,1.25l8.12,3.19c1.26.48,2.43,1,3.56,1.31a4.93,4.93,0,0,0,3.14,0,2.64,2.64,0,0,0,1.73-1.75,2.24,2.24,0,0,0-.7-1.76A3.32,3.32,0,0,0,288.59,240.37Z" style="fill:#fff"></path><path d="M318.59,205a1,1,0,0,1,.46,0,2.77,2.77,0,0,1,1.14.69,2.45,2.45,0,0,1,.85,1.94,2.93,2.93,0,0,1-1.89,2.06,5.27,5.27,0,0,1-3.39.11,35.74,35.74,0,0,1-3.61-1.28c-2.52-1-5.27-2-8.17-3.16a4.45,4.45,0,0,1-1.93-1.43,2.39,2.39,0,0,1-.35-2.36,2.62,2.62,0,0,1,1.84-1.38,5.33,5.33,0,0,1,2.15.06,42.76,42.76,0,0,1,6.87,2.05c1.9.74,3.41,1.4,4.45,1.87a10.05,10.05,0,0,1,1.58.78,12.61,12.61,0,0,1-1.66-.59c-1.06-.41-2.59-1-4.5-1.71a45.36,45.36,0,0,0-6.83-1.93,5.12,5.12,0,0,0-2,0,2.12,2.12,0,0,0-1.49,1.1,1.91,1.91,0,0,0,.31,1.85,4,4,0,0,0,1.72,1.25l8.13,3.19c1.25.48,2.43,1,3.55,1.31a5,5,0,0,0,3.15,0,2.65,2.65,0,0,0,1.73-1.76,2.31,2.31,0,0,0-.7-1.76A3.06,3.06,0,0,0,318.59,205Z" style="fill:#fff"></path><path d="M297.8,254.6a1,1,0,0,1,.28-.37,2.77,2.77,0,0,1,1.17-.64,2.46,2.46,0,0,1,2.1.25,2.91,2.91,0,0,1,.83,2.66,5.33,5.33,0,0,1-1.6,3,37.34,37.34,0,0,1-2.93,2.48c-2.09,1.69-4.37,3.55-6.83,5.48a4.49,4.49,0,0,1-2.21.95,2.37,2.37,0,0,1-2.21-.88,2.64,2.64,0,0,1-.27-2.29,5.55,5.55,0,0,1,1.13-1.83,42.43,42.43,0,0,1,5.23-4.91c1.58-1.27,2.92-2.24,3.84-2.9a10.35,10.35,0,0,1,1.47-1,11.16,11.16,0,0,1-1.35,1.15c-.88.71-2.18,1.72-3.73,3a45.16,45.16,0,0,0-5.09,4.94,4.78,4.78,0,0,0-1,1.66,2.12,2.12,0,0,0,.2,1.84,1.9,1.9,0,0,0,1.76.67,4.09,4.09,0,0,0,1.95-.86l6.83-5.43c1-.85,2.09-1.6,2.92-2.42a5,5,0,0,0,1.55-2.73,2.64,2.64,0,0,0-.65-2.38,2.25,2.25,0,0,0-1.87-.28A3.13,3.13,0,0,0,297.8,254.6Z" style="fill:#fff"></path><path d="M316,227.32a1,1,0,0,1,.28-.37,2.77,2.77,0,0,1,1.17-.64,2.46,2.46,0,0,1,2.1.25,2.91,2.91,0,0,1,.83,2.66,5.33,5.33,0,0,1-1.6,3,37.34,37.34,0,0,1-2.93,2.48c-2.09,1.69-4.37,3.55-6.83,5.48a4.49,4.49,0,0,1-2.21,1,2.37,2.37,0,0,1-2.21-.88,2.64,2.64,0,0,1-.27-2.29,5.55,5.55,0,0,1,1.13-1.83,43.14,43.14,0,0,1,5.22-4.91c1.59-1.27,2.93-2.24,3.85-2.9a10.35,10.35,0,0,1,1.47-1,11.16,11.16,0,0,1-1.35,1.15c-.88.71-2.18,1.72-3.73,3a46,46,0,0,0-5.1,4.94,4.91,4.91,0,0,0-1,1.66,2.12,2.12,0,0,0,.2,1.84,1.9,1.9,0,0,0,1.76.67,4.09,4.09,0,0,0,1.95-.86l6.83-5.43c1.05-.85,2.09-1.6,2.92-2.42a5,5,0,0,0,1.55-2.73,2.66,2.66,0,0,0-.65-2.38,2.25,2.25,0,0,0-1.87-.28A3.13,3.13,0,0,0,316,227.32Z" style="fill:#fff"></path><path d="M362.53,254.31a7.06,7.06,0,0,1-.92.86L359,257.39l-4,3.24a4.91,4.91,0,0,1-2.83,1.3,2.49,2.49,0,0,1-1.66-.52,2.19,2.19,0,0,1-.76-1.64,4.5,4.5,0,0,1,1.42-3c.71-.78,1.42-1.51,2.12-2.18a48.51,48.51,0,0,1,3.91-3.32c1.15-.88,2.11-1.57,2.78-2a6.37,6.37,0,0,1,1.07-.68,6.15,6.15,0,0,1-.95.85l-2.67,2.16c-1.12.92-2.44,2-3.81,3.38-.68.67-1.37,1.39-2.06,2.17a4,4,0,0,0-1.29,2.68,1.7,1.7,0,0,0,.57,1.26,2,2,0,0,0,1.32.41,4.48,4.48,0,0,0,2.55-1.17l4-3.15,2.74-2.08A5.68,5.68,0,0,1,362.53,254.31Z" style="fill:#fff"></path><path d="M338.35,252.74a1,1,0,0,1,.42.17,2.82,2.82,0,0,1,.91,1A2.47,2.47,0,0,1,340,256a2.92,2.92,0,0,1-2.38,1.47,5.37,5.37,0,0,1-3.29-.81c-1.06-.62-2.05-1.43-3.13-2.22-2.16-1.62-4.52-3.36-7-5.27a4.55,4.55,0,0,1-1.48-1.9,2.41,2.41,0,0,1,.31-2.37,2.61,2.61,0,0,1,2.15-.82,5.42,5.42,0,0,1,2,.64,42,42,0,0,1,6.05,3.85c1.63,1.22,2.9,2.28,3.77,3a11.32,11.32,0,0,1,1.32,1.18,11.81,11.81,0,0,1-1.45-1c-.91-.68-2.21-1.68-3.85-2.86a44.23,44.23,0,0,0-6.05-3.72,4.84,4.84,0,0,0-1.86-.57,2.13,2.13,0,0,0-1.74.65,1.91,1.91,0,0,0-.21,1.86,4.07,4.07,0,0,0,1.32,1.68l6.95,5.29c1.07.8,2.06,1.62,3.06,2.22a5,5,0,0,0,3,.83,2.66,2.66,0,0,0,2.15-1.22,2.26,2.26,0,0,0-.2-1.88A3,3,0,0,0,338.35,252.74Z" style="fill:#fff"></path><path d="M319.53,268.93a2,2,0,0,1-.13-.51l-.27-1.47c-.22-1.29-.51-3.15-.86-5.45-.68-4.61-1.51-11-2.38-18s-1.68-13.43-2.35-18l-.8-5.46c-.09-.59-.16-1.08-.22-1.48a2.89,2.89,0,0,1,0-.52,1.72,1.72,0,0,1,.15.5c.08.39.18.88.31,1.47.25,1.28.59,3.13,1,5.43.76,4.6,1.63,11,2.5,18s1.65,13.36,2.23,18c.28,2.25.52,4.1.69,5.47.07.6.13,1.09.18,1.49A1.86,1.86,0,0,1,319.53,268.93Z" style="fill:#263238"></path><g style="opacity:0.30000000000000004"><path d="M313.61,223.07c3,10.36,4,19.44,9.63,28a26.33,26.33,0,0,0,7.83,7.69c6.08,3.87,13.43,5.15,20.61,5.82h4.86s-10.92.93-19.75-.69c0,0-13.58-2.42-18.89-8.66Z"></path></g><path d="M294.84,273a5.24,5.24,0,0,1-.08-.81c0-.57-.07-1.34-.13-2.31-.1-2.05-.24-4.94-.42-8.49-.37-7.16-1-17.06-1.81-28s-1.71-20.8-2.35-28c-.3-3.54-.55-6.42-.73-8.47q-.12-1.44-.18-2.31a4,4,0,0,1,0-.8,4.39,4.39,0,0,1,.13.79c.07.58.16,1.34.28,2.3.22,2,.52,4.92.9,8.45.73,7.15,1.66,17,2.5,28s1.38,20.83,1.66,28c.14,3.59.22,6.49.26,8.5q0,1.44,0,2.31A4.22,4.22,0,0,1,294.84,273Z" style="fill:#263238"></path><path d="M269.52,303.85l11.82-11.1S263.61,269.14,263,264.84,269.21,225,269.21,225l-19.13-7.26s-7.4,35.1-7.39,50.33C242.7,275.16,269.52,303.85,269.52,303.85Z" style="fill:#23D07E"></path><path d="M251.77,234.52a1,1,0,0,1-.18-.42,2.8,2.8,0,0,1,0-1.34,2.46,2.46,0,0,1,1.28-1.68,2.91,2.91,0,0,1,2.72.63,5.31,5.31,0,0,1,1.76,2.89,37.55,37.55,0,0,1,.66,3.78c.39,2.67.84,5.57,1.26,8.67a4.54,4.54,0,0,1-.3,2.38,2.4,2.4,0,0,1-1.88,1.47A2.68,2.68,0,0,1,255,250a5.62,5.62,0,0,1-1-1.9,41.66,41.66,0,0,1-1.59-7c-.29-2-.45-3.66-.56-4.79a10.6,10.6,0,0,1-.1-1.77,11.17,11.17,0,0,1,.3,1.75c.17,1.12.39,2.75.73,4.75a45,45,0,0,0,1.67,6.89,5.1,5.1,0,0,0,.92,1.72,2.14,2.14,0,0,0,1.69.76,1.9,1.9,0,0,0,1.47-1.18,4.12,4.12,0,0,0,.24-2.11c-.43-3.07-.84-6-1.21-8.65-.2-1.33-.32-2.61-.61-3.74A5,5,0,0,0,255.4,232a2.66,2.66,0,0,0-2.39-.64,2.24,2.24,0,0,0-1.18,1.47A3.14,3.14,0,0,0,251.77,234.52Z" style="fill:#fff"></path><path d="M275.38,298.81a7.05,7.05,0,0,1-1.24-.27l-3.32-.92-4.91-1.44a4.88,4.88,0,0,1-2.68-1.6,2.52,2.52,0,0,1-.51-1.67,2.23,2.23,0,0,1,.93-1.55,4.45,4.45,0,0,1,3.3-.54q1.57.21,3,.51a48.61,48.61,0,0,1,4.95,1.35c1.38.45,2.49.85,3.25,1.14a5.84,5.84,0,0,1,1.17.49,5.17,5.17,0,0,1-1.23-.3l-3.3-1c-1.39-.4-3.06-.86-4.94-1.23-.93-.18-1.93-.34-3-.47a4,4,0,0,0-2.93.45,1.7,1.7,0,0,0-.72,1.18,2,2,0,0,0,.41,1.32,4.45,4.45,0,0,0,2.4,1.45l4.87,1.53,3.28,1.08A5.56,5.56,0,0,1,275.38,298.81Z" style="fill:#fff"></path><path d="M262,273.57a1,1,0,0,1,.42.18,2.69,2.69,0,0,1,.91,1,2.46,2.46,0,0,1,.28,2.1,2.93,2.93,0,0,1-2.37,1.47,5.31,5.31,0,0,1-3.29-.82c-1.06-.62-2.05-1.43-3.13-2.22-2.16-1.61-4.52-3.36-7-5.27a4.55,4.55,0,0,1-1.47-1.9,2.39,2.39,0,0,1,.31-2.36,2.62,2.62,0,0,1,2.15-.83,5.42,5.42,0,0,1,2,.64,42.84,42.84,0,0,1,6.05,3.85c1.63,1.23,2.9,2.28,3.77,3a11.32,11.32,0,0,1,1.32,1.18,10.9,10.9,0,0,1-1.45-1c-.91-.68-2.21-1.69-3.86-2.87a46.8,46.8,0,0,0-6-3.72,5.2,5.2,0,0,0-1.87-.57,2.16,2.16,0,0,0-1.73.65,1.9,1.9,0,0,0-.21,1.87,4,4,0,0,0,1.32,1.67l6.95,5.29c1.07.8,2.06,1.63,3.06,2.23a5,5,0,0,0,3,.82,2.65,2.65,0,0,0,2.15-1.22,2.27,2.27,0,0,0-.2-1.88A3.18,3.18,0,0,0,262,273.57Z" style="fill:#fff"></path></g><g id="freepik--Plant--inject-65"><path d="M152.14,254.48s-7.58-.54-6.88,16.45S147.69,297,147.69,297s-.22,3.77-3.14,3-8.41-4.41-11.12-1.66-1.81,7.2,1.92,12.34,11.49,16.69,12.18,17.74,1,2.95-1.1,2.77-16-4.92-17.89,1.84,10.9,19.36,12.26,20.77,1.44,2.29.89,3.14-5.1-1.18-9.13-2.37-8.9-1.85-9.64,2.14,4.87,15.67,25.89,27.94l10.12,5,9.57-6.1c19.68-14.32,24.1-26.5,23-30.39s-5.93-2.75-9.81-1.17-8.21,4.06-8.85,3.27-.65-1.68.57-3.21,12.64-15.35,10.12-21.9-15.94-.43-18,0-2-1.55-1.38-2.65,7.16-13.38,10.36-18.86,3.75-9.93.67-12.48-8.07,1.75-10.9,2.77-3.43-2.7-3.43-2.7.82-9.18-.18-26.16S152,254.48,152,254.48" style="fill:#455a64"></path><path d="M152.74,269.7s0,.12,0,.36,0,.6.08,1c.06.94.15,2.29.27,4,.23,3.48.53,8.53.88,14.77.69,12.47,1.5,29.71,2.33,48.75s1.6,36.29,2.22,48.77c.32,6.22.58,11.27.75,14.77.09,1.73.16,3.08.2,4,0,.45,0,.79.05,1v.36s0-.12,0-.35-.05-.6-.08-1.05c-.07-.93-.16-2.28-.28-4-.23-3.48-.53-8.53-.87-14.77-.69-12.47-1.5-29.71-2.34-48.76s-1.59-36.28-2.22-48.76c-.31-6.23-.57-11.27-.75-14.78-.09-1.73-.15-3.08-.2-4,0-.45,0-.8,0-1.05A3.33,3.33,0,0,1,152.74,269.7Z" style="fill:#263238"></path><path d="M140.9,303.79a3,3,0,0,1,.63.52c.39.35.94.88,1.61,1.54,1.33,1.32,3.13,3.2,5.07,5.3l4.94,5.41,1.51,1.64a4.38,4.38,0,0,1,.53.62,2.85,2.85,0,0,1-.64-.52c-.39-.35-.93-.88-1.6-1.55-1.32-1.33-3.09-3.23-5-5.33l-5-5.38-1.51-1.62A3.74,3.74,0,0,1,140.9,303.79Z" style="fill:#263238"></path><path d="M156.19,318.49c-.08-.08,3.62-3.95,8.26-8.65s8.46-8.45,8.53-8.38-3.62,4-8.26,8.65S156.26,318.56,156.19,318.49Z" style="fill:#263238"></path><path d="M156.15,347.79a3.35,3.35,0,0,1,.7-.44l2-1.12c1.67-.93,4-2.24,6.46-3.76s4.69-3,6.29-4.05l1.88-1.26a3.87,3.87,0,0,1,.72-.42,3.46,3.46,0,0,1-.63.54c-.42.34-1,.81-1.82,1.37-1.55,1.12-3.74,2.62-6.24,4.15s-4.83,2.8-6.53,3.68c-.86.43-1.55.78-2,1A3.35,3.35,0,0,1,156.15,347.79Z" style="fill:#263238"></path><path d="M139.39,337.54a2.26,2.26,0,0,1,.7.33c.44.23,1.07.58,1.84,1,1.54.87,3.65,2.1,6,3.48s4.41,2.65,5.92,3.59c.75.46,1.35.85,1.77,1.12a3.13,3.13,0,0,1,.62.46,3.6,3.6,0,0,1-.7-.33c-.44-.23-1.06-.58-1.83-1-1.54-.87-3.65-2.1-6-3.49s-4.41-2.64-5.91-3.58c-.76-.47-1.36-.85-1.77-1.12A3.59,3.59,0,0,1,139.39,337.54Z" style="fill:#263238"></path><path d="M136.07,363.4a6.31,6.31,0,0,1,.89.43l2.35,1.3c2,1.11,4.7,2.67,7.69,4.41s5.7,3.34,7.64,4.51c.92.56,1.69,1,2.29,1.41a4.12,4.12,0,0,1,.82.56,5.74,5.74,0,0,1-.89-.43l-2.36-1.3c-2-1.11-4.7-2.67-7.69-4.41s-5.69-3.34-7.63-4.51l-2.3-1.41A4.2,4.2,0,0,1,136.07,363.4Z" style="fill:#263238"></path><path d="M157.31,375.57a6.25,6.25,0,0,1,.88-.59l2.46-1.5c2.07-1.26,4.93-3,8-5s5.87-3.92,7.86-5.31l2.37-1.64a5.32,5.32,0,0,1,.89-.57,5.85,5.85,0,0,1-.8.69c-.54.42-1.32,1-2.3,1.74-2,1.45-4.7,3.39-7.81,5.41s-6,3.75-8.11,5c-1.06.6-1.92,1.08-2.52,1.39A5.65,5.65,0,0,1,157.31,375.57Z" style="fill:#263238"></path><polygon points="172.51 393.02 144.53 393.02 153.66 462.14 163.38 462.14 172.51 393.02" style="fill:#263238"></polygon><path d="M146,401.52s0,.1.15.24a1.67,1.67,0,0,0,.67.49,3.39,3.39,0,0,0,3-.37c1.12-.62,2.11-1.84,3.62-2.38a7.93,7.93,0,0,1,5.15.1,22.19,22.19,0,0,1,4.79,2.32,32.59,32.59,0,0,0,3.89,2.09,10.68,10.68,0,0,0,2.88.83,4.3,4.3,0,0,0,.81.05c.18,0,.28,0,.28,0a14.61,14.61,0,0,1-3.83-1.16,36.11,36.11,0,0,1-3.81-2.15,21.34,21.34,0,0,0-4.88-2.4,8.23,8.23,0,0,0-5.43-.06,7.14,7.14,0,0,0-2,1.27,17,17,0,0,1-1.6,1.24,3.29,3.29,0,0,1-2.73.47A2.64,2.64,0,0,1,146,401.52Z" style="fill:#fafafa"></path><path d="M147,414.25s.22-.29.66-.74a6,6,0,0,1,2.23-1.42,10.15,10.15,0,0,1,3.89-.59,41.25,41.25,0,0,1,4.87.67,16.58,16.58,0,0,0,5,.2,13.57,13.57,0,0,0,3.93-1.12,12,12,0,0,0,2.35-1.4,3.1,3.1,0,0,0,.75-.67,25.58,25.58,0,0,1-3.23,1.78,14.56,14.56,0,0,1-3.85,1,17.67,17.67,0,0,1-4.86-.24,36.46,36.46,0,0,0-4.93-.64,9.94,9.94,0,0,0-4,.71,5.89,5.89,0,0,0-2.25,1.6,4.23,4.23,0,0,0-.42.62C147,414.16,147,414.24,147,414.25Z" style="fill:#fafafa"></path><path d="M169.34,421.06a2.57,2.57,0,0,0-.77-.4,8.44,8.44,0,0,0-2.32-.49,14.49,14.49,0,0,0-3.5.2c-1.31.21-2.71.57-4.18.88a17.35,17.35,0,0,1-4.16.47,9,9,0,0,1-3.31-.71,7.79,7.79,0,0,1-2.51-1.87,2.07,2.07,0,0,0,.48.73,5.93,5.93,0,0,0,1.9,1.43,9,9,0,0,0,3.42.84,17.06,17.06,0,0,0,4.28-.44c1.48-.32,2.87-.69,4.15-.92a16,16,0,0,1,3.41-.29A13.07,13.07,0,0,1,169.34,421.06Z" style="fill:#fafafa"></path><path d="M149.48,430.65a4.5,4.5,0,0,1,2.71-.27,12.53,12.53,0,0,1,2.85,1.06,10.66,10.66,0,0,0,3.69,1,11,11,0,0,0,6.69-1.55,8.83,8.83,0,0,0,1.66-1.28,2.82,2.82,0,0,0,.5-.59,25.17,25.17,0,0,1-2.32,1.59,11.5,11.5,0,0,1-6.49,1.38c-2.65-.15-4.69-1.73-6.52-1.94a4.07,4.07,0,0,0-2.11.18C149.66,430.43,149.47,430.63,149.48,430.65Z" style="fill:#fafafa"></path><path d="M151,443.92a5.47,5.47,0,0,0,2.33-.47c1.41-.47,3.15-1.54,5.18-2.35a8.28,8.28,0,0,1,3-.62,5.47,5.47,0,0,1,2.39.54,5.27,5.27,0,0,1,1.73,1.49,1.33,1.33,0,0,0-.26-.59,3.82,3.82,0,0,0-1.32-1.18,5.39,5.39,0,0,0-2.53-.69,8.55,8.55,0,0,0-3.14.62c-2.11.84-3.79,1.95-5.14,2.48S151,443.84,151,443.92Z" style="fill:#fafafa"></path><path d="M152.41,450.09a6.09,6.09,0,0,0,1.77.57,32.4,32.4,0,0,0,8.92.88,6.31,6.31,0,0,0,1.85-.22c0-.14-2.84,0-6.3-.36S152.44,450,152.41,450.09Z" style="fill:#fafafa"></path></g></svg>