<svg xmlns="http://www.w3.org/2000/svg" viewBox="0 0 500 500"><g id="freepik--background-complete--inject-45"><rect y="382.4" width="500" height="0.25" style="fill:#ebebeb"></rect><rect x="416.78" y="398.49" width="33.12" height="0.25" style="fill:#ebebeb"></rect><rect x="322.53" y="401.21" width="8.69" height="0.25" style="fill:#ebebeb"></rect><rect x="396.59" y="389.21" width="19.19" height="0.25" style="fill:#ebebeb"></rect><rect x="52.46" y="390.89" width="43.19" height="0.25" style="fill:#ebebeb"></rect><rect x="104.56" y="390.89" width="6.33" height="0.25" style="fill:#ebebeb"></rect><rect x="131.47" y="395.11" width="93.68" height="0.25" style="fill:#ebebeb"></rect><path d="M237,337.8H43.91a5.71,5.71,0,0,1-5.7-5.71V60.66A5.71,5.71,0,0,1,43.91,55H237a5.71,5.71,0,0,1,5.71,5.71V332.09A5.71,5.71,0,0,1,237,337.8ZM43.91,55.2a5.46,5.46,0,0,0-5.45,5.46V332.09a5.46,5.46,0,0,0,5.45,5.46H237a5.47,5.47,0,0,0,5.46-5.46V60.66A5.47,5.47,0,0,0,237,55.2Z" style="fill:#ebebeb"></path><path d="M453.31,337.8H260.21a5.72,5.72,0,0,1-5.71-5.71V60.66A5.72,5.72,0,0,1,260.21,55h193.1A5.71,5.71,0,0,1,459,60.66V332.09A5.71,5.71,0,0,1,453.31,337.8ZM260.21,55.2a5.47,5.47,0,0,0-5.46,5.46V332.09a5.47,5.47,0,0,0,5.46,5.46h193.1a5.47,5.47,0,0,0,5.46-5.46V60.66a5.47,5.47,0,0,0-5.46-5.46Z" style="fill:#ebebeb"></path><rect x="65.89" y="107.16" width="205.59" height="163.67" style="fill:#e0e0e0"></rect><path d="M68.93,110v157.8H269V110Z" style="fill:#f5f5f5"></path><path d="M204.16,226.17a3.29,3.29,0,0,0,.11-.74c.09-1.54,1.56-1.3,2.81-1.5,1-.17-1.61-2.63.36-3.43a1.71,1.71,0,0,0,.95-.66,1.13,1.13,0,0,0-.43-1.36,2.65,2.65,0,0,0-1.49-.37c-.33-.39-.06-1,.25-1.38s.69-.85.57-1.34c-.18-.74-1.22-.77-2-.63a5.35,5.35,0,0,1-.41-1.51c-.13-.51-.54-1.05-1.06-1s-.79.61-1.28.73-1-.37-1.48-.74-1.21-.6-1.51-.11c-.19.29-.08.7-.27,1-.32.5-1.1.19-1.58-.17s-1.24-.67-1.58-.18a1.84,1.84,0,0,0-.19.51c-.23.66-.94,1-1.49,1.41s-1,1.26-.52,1.77c.23.25.63.36.75.68s-.27.77-.6,1c-.54.47-.64,1.85.08,2.23.3.15.74.2.82.54s-.24.52-.44.75a1.43,1.43,0,0,0,.44,2.13c.17.08.38.15.45.33a.79.79,0,0,1,0,.4,2,2,0,0,0-.07.77.32.32,0,0,0,.09.24.37.37,0,0,0,.23.07c1,0,1.54-.32,2.17.58a.77.77,0,0,0,.21.23.73.73,0,0,0,.29.07c.71.06,1.18-.39,1.83-.47.91-.12,1.1.35,1.89.73C203.32,227.38,203.92,227,204.16,226.17Z" style="fill:#f0f0f0"></path><path d="M192.21,224.88a4,4,0,0,0,.12-.74c.09-1.54,1.55-1.3,2.8-1.51,1-.16-1.6-2.62.36-3.42a1.67,1.67,0,0,0,.95-.66,1.1,1.1,0,0,0-.43-1.36,2.64,2.64,0,0,0-1.49-.38c-.32-.39-.06-1,.25-1.37s.69-.85.57-1.34c-.17-.74-1.21-.77-2-.63A5,5,0,0,1,193,212c-.14-.51-.54-1.05-1.07-1s-.79.61-1.27.73-1-.37-1.49-.74-1.21-.6-1.51-.11c-.18.29-.07.7-.26,1-.33.5-1.1.19-1.58-.17s-1.25-.67-1.59-.18a2.21,2.21,0,0,0-.18.51c-.23.66-.94,1-1.49,1.41s-1,1.26-.53,1.77c.23.25.64.36.75.68s-.27.76-.59,1c-.55.46-.64,1.85.07,2.23.31.15.75.2.82.54s-.23.52-.43.75a1.43,1.43,0,0,0,.43,2.13c.18.08.39.15.45.33a.62.62,0,0,1,0,.4,2.22,2.22,0,0,0-.07.77.39.39,0,0,0,.09.24.48.48,0,0,0,.23.07c1,0,1.54-.32,2.17.58a1,1,0,0,0,.22.23.69.69,0,0,0,.29.07c.71.06,1.17-.39,1.83-.47.9-.12,1.09.35,1.89.72C191.37,226.09,192,225.73,192.21,224.88Z" style="fill:#f0f0f0"></path><path d="M191.06,217.27a3.29,3.29,0,0,0,.11-.74c.1-1.54,1.56-1.29,2.81-1.5,1-.17-1.61-2.63.36-3.42a1.74,1.74,0,0,0,.95-.67,1.11,1.11,0,0,0-.43-1.36,2.63,2.63,0,0,0-1.49-.37c-.32-.39-.06-1,.25-1.38s.69-.85.57-1.34c-.18-.74-1.21-.77-2-.62a5.51,5.51,0,0,1-.41-1.52c-.13-.51-.54-1-1.06-1s-.79.62-1.27.73-1.05-.36-1.49-.74-1.21-.6-1.51-.11c-.18.29-.07.7-.26,1-.33.5-1.1.19-1.58-.16s-1.25-.68-1.59-.19a2.14,2.14,0,0,0-.19.52c-.22.65-.93,1-1.49,1.4s-1,1.26-.52,1.77c.23.26.64.36.75.68s-.27.77-.59,1c-.55.47-.64,1.85.07,2.23.31.16.75.21.82.54s-.23.53-.43.76a1.42,1.42,0,0,0,.43,2.12c.17.08.39.15.45.33a.62.62,0,0,1,0,.4,2.22,2.22,0,0,0-.07.77.37.37,0,0,0,.09.24.32.32,0,0,0,.23.07c1,0,1.54-.32,2.17.58a.69.69,0,0,0,.22.23.68.68,0,0,0,.28.07c.72.06,1.18-.39,1.83-.47.91-.11,1.1.35,1.9.73C190.22,218.49,190.83,218.12,191.06,217.27Z" style="fill:#f0f0f0"></path><path d="M183.19,221.06a4,4,0,0,0,.12-.74c.09-1.54,1.55-1.3,2.8-1.5,1-.17-1.6-2.63.36-3.42a1.74,1.74,0,0,0,.95-.67,1.11,1.11,0,0,0-.43-1.36,2.63,2.63,0,0,0-1.49-.37c-.32-.39-.06-1,.25-1.38s.69-.85.57-1.34c-.18-.74-1.21-.77-2-.62a5.51,5.51,0,0,1-.41-1.52c-.13-.51-.53-1-1.06-1s-.79.61-1.27.73-1.05-.37-1.49-.74-1.21-.6-1.51-.11c-.18.29-.07.7-.26,1-.33.5-1.1.19-1.58-.17s-1.25-.67-1.59-.18a1.82,1.82,0,0,0-.18.51c-.23.66-.94,1-1.49,1.41s-1,1.26-.53,1.77c.23.26.64.36.75.68s-.27.77-.59,1c-.55.47-.64,1.85.07,2.23.31.16.75.2.82.54s-.23.53-.43.76a1.43,1.43,0,0,0,.43,2.12c.18.08.39.15.45.33a.62.62,0,0,1,0,.4,2.22,2.22,0,0,0-.07.77.37.37,0,0,0,.09.24.39.39,0,0,0,.23.07c1,0,1.54-.32,2.17.58a.55.55,0,0,0,.51.3c.71.06,1.17-.39,1.83-.47.9-.11,1.09.35,1.89.73C182.35,222.28,183,221.91,183.19,221.06Z" style="fill:#f0f0f0"></path><path d="M175.24,219.31a3.29,3.29,0,0,0,.11-.74c.09-1.54,1.56-1.3,2.81-1.5,1-.17-1.61-2.63.36-3.42a1.77,1.77,0,0,0,.95-.67,1.13,1.13,0,0,0-.43-1.36,2.65,2.65,0,0,0-1.49-.37c-.32-.39-.06-1,.25-1.38s.69-.85.57-1.34c-.18-.74-1.21-.77-2-.62a5.51,5.51,0,0,1-.41-1.52c-.13-.51-.54-1-1.06-1s-.79.61-1.28.73-1-.37-1.48-.74-1.21-.6-1.51-.11c-.18.29-.08.7-.26,1-.33.5-1.11.19-1.59-.17s-1.24-.67-1.58-.18a1.84,1.84,0,0,0-.19.51c-.23.66-.94,1-1.49,1.41s-1,1.26-.52,1.77c.23.26.64.36.75.68s-.27.77-.6,1c-.54.47-.64,1.85.08,2.23.3.16.75.2.82.54s-.24.53-.44.75a1.44,1.44,0,0,0,.44,2.13c.17.08.38.15.45.33a.79.79,0,0,1,0,.4,2,2,0,0,0-.07.77.32.32,0,0,0,.09.24.37.37,0,0,0,.23.07c1,0,1.54-.32,2.17.58a.61.61,0,0,0,.22.23.64.64,0,0,0,.28.07c.72.06,1.18-.39,1.83-.47.91-.11,1.1.35,1.89.73C174.4,220.53,175,220.16,175.24,219.31Z" style="fill:#f0f0f0"></path><path d="M175.14,227.82a3.37,3.37,0,0,0,.08-.59c.08-1.21,1.23-1,2.21-1.18.77-.13-1.26-2.07.29-2.69a1.34,1.34,0,0,0,.74-.52.88.88,0,0,0-.33-1.08,2.18,2.18,0,0,0-1.18-.29c-.25-.31,0-.77.2-1.08s.54-.68.45-1.06c-.14-.59-1-.61-1.54-.49a4.1,4.1,0,0,1-.32-1.2c-.11-.4-.43-.82-.84-.77s-.62.49-1,.58-.83-.29-1.17-.58-1-.48-1.19-.09c-.15.23-.06.55-.21.78-.26.39-.87.15-1.25-.13s-1-.54-1.24-.15a1.44,1.44,0,0,0-.15.41c-.18.51-.74.77-1.17,1.1s-.78,1-.42,1.4c.19.2.51.28.6.53s-.22.61-.47.82c-.43.37-.51,1.46.06,1.75.23.13.58.17.64.43s-.18.42-.34.6a1.12,1.12,0,0,0,.34,1.67c.14.07.3.12.35.26a.51.51,0,0,1,0,.32,1.72,1.72,0,0,0-.05.6.25.25,0,0,0,.07.19.29.29,0,0,0,.18,0c.82,0,1.21-.25,1.71.46a.59.59,0,0,0,.17.18.6.6,0,0,0,.23.06c.56,0,.92-.31,1.44-.37.71-.09.86.28,1.49.57C174.47,228.77,175,228.49,175.14,227.82Z" style="fill:#f0f0f0"></path><path d="M170.68,224.88a3.29,3.29,0,0,0,.11-.74c.09-1.54,1.56-1.3,2.81-1.51,1-.16-1.61-2.62.36-3.42a1.71,1.71,0,0,0,.95-.66,1.13,1.13,0,0,0-.43-1.36,2.66,2.66,0,0,0-1.49-.38c-.32-.39-.06-1,.25-1.37s.69-.85.57-1.34c-.18-.74-1.21-.77-2-.63a5.35,5.35,0,0,1-.41-1.51c-.13-.51-.54-1.05-1.06-1s-.79.61-1.28.73-1-.37-1.48-.74-1.21-.6-1.51-.11c-.18.29-.08.7-.26,1-.33.5-1.11.19-1.59-.17s-1.24-.67-1.58-.18a1.84,1.84,0,0,0-.19.51c-.23.66-.94,1-1.49,1.41s-1,1.26-.52,1.77c.23.25.64.36.75.68s-.27.76-.6,1c-.54.46-.64,1.85.08,2.23.3.15.75.2.82.54s-.24.52-.44.75a1.44,1.44,0,0,0,.44,2.13c.17.08.38.15.45.33a.79.79,0,0,1,0,.4,2,2,0,0,0-.07.77.34.34,0,0,0,.09.24.45.45,0,0,0,.23.07c1,0,1.54-.32,2.17.58a.8.8,0,0,0,.22.23.64.64,0,0,0,.28.07c.72.06,1.18-.39,1.83-.47.91-.12,1.1.35,1.89.72C169.84,226.09,170.45,225.73,170.68,224.88Z" style="fill:#f0f0f0"></path><path d="M183.19,211.7a4,4,0,0,0,.12-.74c.09-1.54,1.55-1.29,2.8-1.5,1-.16-1.6-2.63.36-3.42a1.77,1.77,0,0,0,.95-.66A1.12,1.12,0,0,0,187,204a2.63,2.63,0,0,0-1.49-.37c-.32-.39-.06-1,.25-1.38s.69-.85.57-1.34c-.18-.74-1.21-.77-2-.62a5.51,5.51,0,0,1-.41-1.52c-.13-.51-.53-1-1.06-1s-.79.62-1.27.73-1.05-.36-1.49-.73-1.21-.61-1.51-.12c-.18.29-.07.7-.26,1-.33.5-1.1.19-1.58-.16s-1.25-.68-1.59-.19a1.78,1.78,0,0,0-.18.52c-.23.65-.94,1-1.49,1.4s-1,1.26-.53,1.77c.23.26.64.36.75.68s-.27.77-.59,1.05c-.55.46-.64,1.84.07,2.22.31.16.75.21.82.54s-.23.53-.43.76a1.42,1.42,0,0,0,.43,2.12c.18.09.39.15.45.33a.62.62,0,0,1,0,.4,2.24,2.24,0,0,0-.07.77.42.42,0,0,0,.09.25.38.38,0,0,0,.23.06c1,.05,1.54-.32,2.17.58a.55.55,0,0,0,.51.3c.71.06,1.17-.38,1.83-.47.9-.11,1.09.35,1.89.73C182.35,212.92,183,212.55,183.19,211.7Z" style="fill:#f0f0f0"></path><path d="M193.41,212.22a3.12,3.12,0,0,0,.11-.74c.09-1.53,1.56-1.29,2.81-1.5,1-.16-1.61-2.63.36-3.42a1.76,1.76,0,0,0,.95-.66,1.13,1.13,0,0,0-.43-1.36,2.58,2.58,0,0,0-1.49-.38c-.32-.39-.06-1,.25-1.37s.69-.85.57-1.35c-.18-.74-1.21-.76-2-.62a5.51,5.51,0,0,1-.41-1.52c-.13-.51-.54-1-1.06-1s-.79.62-1.28.73-1-.36-1.48-.73-1.21-.61-1.51-.12c-.18.3-.08.71-.26,1-.33.5-1.11.19-1.59-.16s-1.24-.68-1.58-.18a1.84,1.84,0,0,0-.19.51c-.23.66-.94,1-1.49,1.4s-1,1.26-.52,1.78c.23.25.64.35.75.68s-.27.76-.6,1c-.54.46-.64,1.84.08,2.22.3.16.74.21.82.54s-.24.53-.44.76a1.44,1.44,0,0,0,.44,2.13c.17.08.38.15.45.33a.8.8,0,0,1,0,.4,2,2,0,0,0-.07.77.34.34,0,0,0,.09.24.36.36,0,0,0,.23.06c1,0,1.54-.32,2.17.58a.61.61,0,0,0,.22.23.65.65,0,0,0,.28.08c.71.05,1.18-.39,1.83-.47.91-.12,1.1.35,1.89.72C192.57,213.44,193.17,213.08,193.41,212.22Z" style="fill:#f0f0f0"></path><path d="M199.62,216.4a3.74,3.74,0,0,0,.11-.74c.09-1.53,1.56-1.29,2.8-1.5,1-.16-1.6-2.62.36-3.42a1.69,1.69,0,0,0,1-.66,1.1,1.1,0,0,0-.43-1.36,2.64,2.64,0,0,0-1.49-.38c-.32-.39-.06-1,.25-1.37s.69-.85.58-1.34c-.18-.75-1.22-.77-2-.63a5.49,5.49,0,0,1-.4-1.52c-.14-.5-.54-1-1.06-1s-.8.62-1.28.73-1-.36-1.49-.73-1.2-.61-1.51-.12c-.18.3-.07.71-.26,1-.33.5-1.1.19-1.58-.17s-1.25-.68-1.59-.18a2.21,2.21,0,0,0-.18.51c-.23.66-.94,1-1.49,1.41s-1,1.25-.53,1.77c.24.25.64.35.76.68s-.27.76-.6,1c-.54.46-.64,1.84.08,2.22.3.16.74.21.81.54s-.23.53-.43.76a1.43,1.43,0,0,0,.44,2.13c.17.08.38.15.44.33a.62.62,0,0,1,0,.4,2.22,2.22,0,0,0-.07.77.35.35,0,0,0,.1.24.33.33,0,0,0,.22.06c1,.05,1.54-.32,2.18.59a.57.57,0,0,0,.5.3c.71.05,1.18-.39,1.83-.47.9-.12,1.09.35,1.89.72C198.77,217.62,199.38,217.26,199.62,216.4Z" style="fill:#f0f0f0"></path><path d="M197.73,221.69s-2.59,3.67-3.49,4.83-5.37,8.41-6,13.21c-.07.51-.13,1-.2,1.34a202.54,202.54,0,0,1,1.54,24.05h-6.29c-.18-13.31-.43-30.09-.55-30.88-.21-1.33-2.76-6.38-6.69-8.45s-7.34-8.93-7.34-8.93H170a22.56,22.56,0,0,0,5.64,6.53,11.88,11.88,0,0,0,1.49.88,21,21,0,0,1,1.32-7.41l.67.62a17.61,17.61,0,0,0-.51,7.53A13.44,13.44,0,0,1,182,227.3c3.43-4.47,5.37-14.68,5.37-14.68l.88.48a52.6,52.6,0,0,1-1.14,6.26,102.84,102.84,0,0,1-3.42,9.88,23.39,23.39,0,0,1,2.6,4.87,1.75,1.75,0,0,1,.33-.39c2.23-2,6.44-11.58,6.44-11.58,1-2.23-.54-8.06-.54-8.06h1.18l.52,5.1,3-3.22.53.45-3.13,4-1.61,5.1,4.21-4.66Z" style="fill:#f0f0f0"></path><path d="M147.62,226.11a3.74,3.74,0,0,0,.11-.74c.09-1.53,1.56-1.29,2.8-1.5,1-.16-1.6-2.62.36-3.42a1.69,1.69,0,0,0,1-.66,1.1,1.1,0,0,0-.43-1.36,2.56,2.56,0,0,0-1.49-.38c-.32-.39-.06-1,.25-1.37s.69-.85.58-1.35c-.18-.74-1.22-.76-2-.62a5.49,5.49,0,0,1-.4-1.52c-.14-.51-.54-1-1.06-1s-.8.62-1.28.73-1-.36-1.49-.73-1.2-.61-1.51-.12c-.18.3-.07.71-.26,1-.33.51-1.1.19-1.58-.16s-1.25-.68-1.59-.18a2.21,2.21,0,0,0-.18.51c-.23.66-.94,1-1.49,1.4s-1,1.26-.53,1.78c.24.25.64.35.76.68s-.27.76-.6,1c-.54.46-.64,1.84.08,2.22.3.16.74.21.81.54s-.23.53-.43.76a1.43,1.43,0,0,0,.44,2.13c.17.08.38.15.44.33a.62.62,0,0,1,0,.4,2.22,2.22,0,0,0-.07.77.35.35,0,0,0,.1.24.33.33,0,0,0,.22.06c1,.05,1.54-.32,2.18.58a.67.67,0,0,0,.21.23.74.74,0,0,0,.29.08c.71,0,1.18-.39,1.83-.47.9-.12,1.09.35,1.89.72C146.77,227.33,147.38,227,147.62,226.11Z" style="fill:#f0f0f0"></path><path d="M135.67,224.82a3.12,3.12,0,0,0,.11-.74c.09-1.53,1.56-1.29,2.81-1.5,1-.16-1.61-2.63.36-3.42a1.76,1.76,0,0,0,1-.66,1.13,1.13,0,0,0-.43-1.36,2.58,2.58,0,0,0-1.49-.38c-.32-.39-.06-1,.25-1.37s.69-.86.57-1.35c-.18-.74-1.21-.76-2-.62a5.51,5.51,0,0,1-.41-1.52c-.13-.51-.54-1-1.06-1s-.79.62-1.28.73-1-.36-1.48-.73-1.21-.61-1.51-.12c-.18.3-.08.71-.26,1-.33.5-1.11.19-1.59-.16s-1.24-.68-1.58-.18a1.84,1.84,0,0,0-.19.51c-.23.66-.94,1-1.49,1.4s-1,1.26-.52,1.78c.23.25.64.35.75.68s-.27.76-.6,1c-.54.46-.64,1.84.08,2.22.3.16.75.21.82.54s-.24.53-.44.76a1.43,1.43,0,0,0,.44,2.12c.17.09.38.16.45.34a.8.8,0,0,1,0,.4,2,2,0,0,0-.07.77.36.36,0,0,0,.09.24.36.36,0,0,0,.23.06c1,.05,1.54-.32,2.17.58a.61.61,0,0,0,.22.23.53.53,0,0,0,.28.07c.72.06,1.18-.38,1.83-.46.91-.12,1.1.35,1.89.72C134.83,226,135.44,225.68,135.67,224.82Z" style="fill:#f0f0f0"></path><path d="M134.52,217.22a3.29,3.29,0,0,0,.11-.75c.09-1.53,1.56-1.29,2.81-1.5,1-.16-1.61-2.62.36-3.42a1.76,1.76,0,0,0,.95-.66,1.13,1.13,0,0,0-.43-1.36,2.67,2.67,0,0,0-1.5-.38c-.32-.39,0-1,.26-1.37s.69-.85.57-1.34c-.18-.75-1.22-.77-2-.63a5.53,5.53,0,0,1-.41-1.51c-.13-.51-.54-1.05-1.06-1s-.79.61-1.28.73-1-.37-1.48-.74-1.21-.6-1.51-.11c-.19.29-.08.7-.27,1-.32.5-1.1.19-1.58-.17s-1.24-.67-1.58-.18a1.84,1.84,0,0,0-.19.51c-.23.66-.94,1-1.49,1.41s-1,1.25-.52,1.77c.23.25.63.35.75.68s-.27.76-.6,1c-.54.46-.64,1.85.08,2.22.3.16.74.21.82.54s-.24.53-.44.76a1.43,1.43,0,0,0,.44,2.13c.17.08.38.15.45.33a.79.79,0,0,1,0,.4,2,2,0,0,0-.07.77.34.34,0,0,0,.09.24.36.36,0,0,0,.23.06c1,.05,1.54-.32,2.17.59a.91.91,0,0,0,.21.23.73.73,0,0,0,.29.07c.71.06,1.18-.39,1.83-.47.91-.12,1.1.35,1.89.72C133.68,218.43,134.28,218.07,134.52,217.22Z" style="fill:#f0f0f0"></path><path d="M126.65,221a3.29,3.29,0,0,0,.11-.75c.09-1.53,1.56-1.29,2.81-1.5,1-.16-1.61-2.62.36-3.42a1.76,1.76,0,0,0,.95-.66,1.13,1.13,0,0,0-.43-1.36,2.66,2.66,0,0,0-1.49-.38c-.32-.39-.06-1,.25-1.37s.69-.85.57-1.34c-.18-.75-1.21-.77-2-.63a5.51,5.51,0,0,1-.41-1.52c-.13-.5-.54-1-1.06-1s-.79.61-1.28.72-1-.36-1.48-.73-1.21-.6-1.51-.12c-.18.3-.08.71-.26,1-.33.5-1.11.19-1.59-.17s-1.24-.68-1.58-.18a1.84,1.84,0,0,0-.19.51c-.23.66-.94,1-1.49,1.41s-1,1.25-.52,1.77c.23.25.64.35.75.68s-.27.76-.6,1c-.54.46-.64,1.84.08,2.22.3.16.74.21.82.54s-.24.53-.44.76a1.44,1.44,0,0,0,.44,2.13c.17.08.38.15.45.33a.79.79,0,0,1,0,.4,2,2,0,0,0-.07.77.34.34,0,0,0,.09.24.36.36,0,0,0,.23.06c1,0,1.54-.32,2.17.59a.8.8,0,0,0,.22.23.82.82,0,0,0,.28.07c.72.06,1.18-.39,1.83-.47.91-.12,1.1.35,1.89.72C125.81,222.22,126.41,221.86,126.65,221Z" style="fill:#f0f0f0"></path><path d="M118.7,219.25a3.74,3.74,0,0,0,.11-.74c.09-1.53,1.56-1.29,2.81-1.5,1-.16-1.61-2.62.36-3.42a1.7,1.7,0,0,0,.94-.66,1.11,1.11,0,0,0-.42-1.36,2.69,2.69,0,0,0-1.5-.38c-.32-.39-.06-1,.25-1.37s.69-.85.58-1.34c-.18-.75-1.22-.77-2-.63a5.49,5.49,0,0,1-.4-1.52c-.14-.5-.54-1-1.06-1s-.8.62-1.28.73-1-.36-1.48-.73-1.21-.61-1.52-.12c-.18.3-.07.71-.26,1-.32.5-1.1.19-1.58-.17s-1.25-.68-1.58-.18a1.84,1.84,0,0,0-.19.51c-.23.66-.94,1-1.49,1.41s-1,1.25-.52,1.77c.23.25.63.35.75.68s-.27.76-.6,1c-.54.46-.64,1.84.08,2.22.3.16.74.21.82.54s-.24.53-.44.76a1.43,1.43,0,0,0,.44,2.13c.17.08.38.15.44.33a.62.62,0,0,1,0,.4,2.22,2.22,0,0,0-.07.77.35.35,0,0,0,.1.24.36.36,0,0,0,.23.06c1,0,1.53-.32,2.17.59a.57.57,0,0,0,.5.3c.71.06,1.18-.39,1.83-.47.9-.12,1.1.35,1.89.72C117.85,220.47,118.46,220.11,118.7,219.25Z" style="fill:#f0f0f0"></path><path d="M118.59,227.76a2.52,2.52,0,0,0,.09-.58c.07-1.21,1.23-1,2.21-1.18.77-.13-1.26-2.07.28-2.7a1.35,1.35,0,0,0,.75-.52.87.87,0,0,0-.34-1.07,2,2,0,0,0-1.17-.3c-.25-.3,0-.77.2-1.08s.54-.67.45-1.06c-.14-.58-1-.6-1.55-.49a4.27,4.27,0,0,1-.32-1.19c-.1-.4-.42-.82-.83-.77s-.63.48-1,.57-.82-.28-1.17-.58-1-.47-1.19-.09c-.14.23,0,.56-.2.78-.26.4-.87.15-1.25-.13s-1-.53-1.25-.14a1.47,1.47,0,0,0-.14.4c-.18.52-.74.78-1.18,1.11s-.78,1-.41,1.39c.18.2.5.28.59.54s-.21.6-.47.82c-.42.36-.5,1.45.06,1.75.24.13.59.16.65.43s-.19.41-.35.59a1.13,1.13,0,0,0,.35,1.68c.13.06.3.12.35.26a.48.48,0,0,1,0,.31,1.81,1.81,0,0,0-.06.61.33.33,0,0,0,.08.19.27.27,0,0,0,.18.05c.81,0,1.21-.25,1.71.46a.42.42,0,0,0,.17.18.4.4,0,0,0,.22.05c.56,0,.93-.3,1.44-.36.72-.1.87.27,1.49.57C117.93,228.72,118.41,228.43,118.59,227.76Z" style="fill:#f0f0f0"></path><path d="M114.14,224.82a3.74,3.74,0,0,0,.11-.74c.09-1.53,1.56-1.29,2.81-1.5,1-.16-1.61-2.63.36-3.42a1.7,1.7,0,0,0,.94-.66,1.11,1.11,0,0,0-.42-1.36,2.61,2.61,0,0,0-1.5-.38c-.32-.39-.06-1,.25-1.37s.69-.86.58-1.35c-.18-.74-1.22-.76-2-.62a5.49,5.49,0,0,1-.4-1.52c-.14-.51-.54-1-1.06-1s-.8.62-1.28.73-1-.36-1.48-.73-1.21-.61-1.52-.12c-.18.3-.07.71-.26,1-.32.5-1.1.19-1.58-.16s-1.25-.68-1.58-.18a1.84,1.84,0,0,0-.19.51c-.23.66-.94,1-1.49,1.4s-1,1.26-.52,1.78c.23.25.63.35.75.68s-.27.76-.6,1c-.54.46-.64,1.84.08,2.22.3.16.74.21.82.54s-.24.53-.44.76a1.42,1.42,0,0,0,.44,2.12c.17.09.38.16.44.34a.62.62,0,0,1,0,.4,2.22,2.22,0,0,0-.07.77.37.37,0,0,0,.1.24.36.36,0,0,0,.23.06c1,.05,1.53-.32,2.17.58a.67.67,0,0,0,.21.23.59.59,0,0,0,.29.07c.71.06,1.18-.38,1.83-.46.9-.12,1.1.35,1.89.72C113.29,226,113.9,225.68,114.14,224.82Z" style="fill:#f0f0f0"></path><path d="M126.65,211.65a3.29,3.29,0,0,0,.11-.74c.09-1.54,1.56-1.3,2.81-1.51,1-.16-1.61-2.62.36-3.42a1.71,1.71,0,0,0,.95-.66,1.13,1.13,0,0,0-.43-1.36,2.66,2.66,0,0,0-1.49-.38c-.32-.39-.06-1,.25-1.37s.69-.85.57-1.34c-.18-.74-1.21-.77-2-.63a5.35,5.35,0,0,1-.41-1.51c-.13-.51-.54-1-1.06-1s-.79.61-1.28.73-1-.37-1.48-.74-1.21-.6-1.51-.11c-.18.29-.08.7-.26,1-.33.5-1.11.19-1.59-.17s-1.24-.67-1.58-.18a1.84,1.84,0,0,0-.19.51c-.23.66-.94,1-1.49,1.41s-1,1.26-.52,1.77c.23.25.64.36.75.68s-.27.76-.6,1c-.54.46-.64,1.85.08,2.23.3.15.74.2.82.54s-.24.52-.44.75a1.44,1.44,0,0,0,.44,2.13c.17.08.38.15.45.33a.79.79,0,0,1,0,.4,2,2,0,0,0-.07.77.34.34,0,0,0,.09.24.45.45,0,0,0,.23.07c1,0,1.54-.32,2.17.58a.8.8,0,0,0,.22.23.64.64,0,0,0,.28.07c.72.06,1.18-.39,1.83-.47.91-.12,1.1.35,1.89.72C125.81,212.86,126.41,212.5,126.65,211.65Z" style="fill:#f0f0f0"></path><path d="M136.87,212.17a4,4,0,0,0,.11-.74c.09-1.54,1.56-1.29,2.81-1.5,1-.17-1.61-2.63.36-3.42a1.71,1.71,0,0,0,.94-.67,1.11,1.11,0,0,0-.42-1.36,2.68,2.68,0,0,0-1.5-.37c-.32-.39-.06-1,.25-1.38s.69-.85.58-1.34c-.18-.74-1.22-.77-2-.62a5.49,5.49,0,0,1-.4-1.52c-.14-.51-.54-1-1.06-1s-.8.62-1.28.73-1-.36-1.48-.74-1.21-.6-1.52-.11c-.18.29-.07.7-.26,1-.32.5-1.1.19-1.58-.16s-1.25-.68-1.59-.19a2.13,2.13,0,0,0-.18.52c-.23.65-.94,1-1.49,1.4s-1,1.26-.52,1.77c.23.26.63.36.75.68s-.27.77-.6,1c-.54.47-.64,1.85.08,2.23.3.16.74.21.82.54s-.24.53-.44.76a1.42,1.42,0,0,0,.44,2.12c.17.08.38.15.44.33a.62.62,0,0,1,0,.4,2.24,2.24,0,0,0-.07.77.33.33,0,0,0,.1.24.32.32,0,0,0,.23.07c1,.05,1.53-.32,2.17.58a.67.67,0,0,0,.21.23.73.73,0,0,0,.29.07c.71.06,1.18-.39,1.83-.47.9-.11,1.1.35,1.89.73C136,213.39,136.63,213,136.87,212.17Z" style="fill:#f0f0f0"></path><path d="M143.07,216.35a3.29,3.29,0,0,0,.11-.74c.1-1.54,1.56-1.29,2.81-1.5,1-.16-1.61-2.63.36-3.42a1.77,1.77,0,0,0,1-.66,1.12,1.12,0,0,0-.43-1.37,2.63,2.63,0,0,0-1.49-.37c-.32-.39-.06-1,.25-1.38s.69-.85.57-1.34c-.18-.74-1.21-.77-2-.62a5.51,5.51,0,0,1-.41-1.52c-.13-.51-.53-1-1.06-1s-.79.62-1.27.73-1.05-.36-1.49-.74-1.21-.6-1.51-.11c-.18.29-.07.7-.26,1-.33.5-1.1.19-1.58-.16s-1.25-.68-1.59-.19a2.14,2.14,0,0,0-.19.52c-.22.65-.93,1-1.49,1.4s-1,1.26-.52,1.77c.23.26.64.36.75.68s-.27.77-.59,1c-.55.46-.64,1.84.07,2.22.31.16.75.21.82.54s-.23.53-.43.76a1.42,1.42,0,0,0,.43,2.12c.17.09.39.15.45.33a.62.62,0,0,1,0,.4,2.24,2.24,0,0,0-.07.77.42.42,0,0,0,.09.25.36.36,0,0,0,.23.06c1,0,1.54-.32,2.17.58a.69.69,0,0,0,.22.23.68.68,0,0,0,.28.07c.72.06,1.18-.38,1.84-.47.9-.11,1.09.35,1.89.73C142.23,217.57,142.84,217.2,143.07,216.35Z" style="fill:#f0f0f0"></path><path d="M141.19,221.64s-2.59,3.66-3.49,4.83-5.37,8.41-6,13.21c-.06.51-.13.95-.19,1.33a202.71,202.71,0,0,1,1.54,24.06h-6.29c-.18-13.32-.44-30.09-.56-30.89a15.54,15.54,0,0,0-6.69-8.44c-3.93-2.08-7.34-8.94-7.34-8.94h1.26a22.54,22.54,0,0,0,5.64,6.54,14.93,14.93,0,0,0,1.49.88,21.22,21.22,0,0,1,1.31-7.42l.68.63a17.79,17.79,0,0,0-.52,7.52,13.75,13.75,0,0,1,3.43,2.29c3.43-4.46,5.36-14.68,5.36-14.68l.88.48a51.18,51.18,0,0,1-1.13,6.27c-.65,2.64-2.54,7.62-3.42,9.88a23.89,23.89,0,0,1,2.59,4.87,2.6,2.6,0,0,1,.33-.4c2.24-2,6.45-11.58,6.45-11.58,1-2.22-.54-8.05-.54-8.05h1.17l.53,5.1,3-3.22.54.45-3.13,4-1.61,5.1,4.2-4.65Z" style="fill:#f0f0f0"></path><path d="M97.23,208.92a3.29,3.29,0,0,0,.11-.74c.09-1.54,1.56-1.3,2.81-1.5,1-.17-1.61-2.63.36-3.43a1.71,1.71,0,0,0,.95-.66,1.1,1.1,0,0,0-.43-1.36,2.65,2.65,0,0,0-1.49-.37c-.32-.39-.06-1,.25-1.38s.69-.85.57-1.34c-.18-.74-1.21-.77-2-.62A5.51,5.51,0,0,1,98,196c-.13-.51-.54-1.05-1.06-1s-.79.61-1.27.73-1-.37-1.49-.74-1.21-.6-1.51-.11c-.18.29-.07.7-.26,1-.33.5-1.1.19-1.58-.17s-1.25-.67-1.59-.18a2.23,2.23,0,0,0-.19.51c-.22.66-.93,1-1.49,1.41s-1,1.26-.52,1.77c.23.25.64.36.75.68s-.27.77-.59,1c-.55.47-.65,1.85.07,2.23.3.16.75.2.82.54s-.24.53-.44.76a1.43,1.43,0,0,0,.44,2.12c.17.08.39.15.45.33a.62.62,0,0,1,0,.4,2,2,0,0,0-.07.77.28.28,0,0,0,.32.31c1,0,1.54-.32,2.17.58a.69.69,0,0,0,.22.23.64.64,0,0,0,.28.07c.72.06,1.18-.39,1.83-.47.91-.11,1.1.35,1.9.73C96.39,210.14,97,209.77,97.23,208.92Z" style="fill:#f0f0f0"></path><path d="M85.29,207.63a4,4,0,0,0,.11-.74c.09-1.54,1.56-1.3,2.8-1.5,1-.17-1.6-2.63.36-3.43a1.64,1.64,0,0,0,1-.66,1.1,1.1,0,0,0-.43-1.36,2.63,2.63,0,0,0-1.49-.37c-.32-.39-.06-1,.25-1.38s.69-.85.58-1.34c-.18-.74-1.22-.77-2-.63a5.33,5.33,0,0,1-.4-1.51c-.14-.51-.54-1.05-1.06-1s-.8.61-1.28.73-1-.37-1.49-.74-1.2-.6-1.51-.11c-.18.29-.07.7-.26,1-.33.5-1.1.19-1.58-.17s-1.25-.67-1.59-.18a2.21,2.21,0,0,0-.18.51c-.23.66-.94,1-1.49,1.41s-1,1.26-.53,1.77c.24.25.64.36.76.68s-.27.77-.6,1c-.54.47-.64,1.85.08,2.23.3.15.74.2.81.54s-.23.52-.43.75a1.43,1.43,0,0,0,.44,2.13c.17.08.38.15.44.33a.62.62,0,0,1,0,.4,2.22,2.22,0,0,0-.07.77.35.35,0,0,0,.1.24.34.34,0,0,0,.22.07c1,0,1.54-.32,2.18.58a.77.77,0,0,0,.21.23.73.73,0,0,0,.29.07c.71.06,1.18-.39,1.83-.47.9-.12,1.09.35,1.89.73C84.44,208.84,85.05,208.48,85.29,207.63Z" style="fill:#f0f0f0"></path><path d="M84.13,200a4,4,0,0,0,.12-.74c.09-1.54,1.56-1.29,2.8-1.5,1-.17-1.6-2.63.36-3.42a1.77,1.77,0,0,0,1-.66,1.12,1.12,0,0,0-.43-1.37,2.63,2.63,0,0,0-1.49-.37c-.32-.39-.06-1,.25-1.38s.69-.85.57-1.34c-.17-.74-1.21-.77-2-.62a5.49,5.49,0,0,1-.4-1.52c-.14-.51-.54-1-1.07-1s-.79.62-1.27.73-1-.36-1.49-.74-1.21-.6-1.51-.11c-.18.29-.07.7-.26,1-.33.5-1.1.19-1.58-.16s-1.25-.68-1.59-.19a2.13,2.13,0,0,0-.18.52c-.23.65-.94,1-1.49,1.4s-1,1.26-.53,1.77c.23.26.64.36.75.68s-.26.77-.59,1.05c-.54.46-.64,1.84.08,2.22.3.16.74.21.81.54s-.23.53-.43.76A1.42,1.42,0,0,0,75,197.7c.18.08.39.15.45.33a.62.62,0,0,1,0,.4,2.24,2.24,0,0,0-.07.77.37.37,0,0,0,.1.25.33.33,0,0,0,.22.06c1,.05,1.54-.32,2.17.58a.81.81,0,0,0,.22.23.73.73,0,0,0,.29.07c.71.06,1.18-.38,1.83-.47.9-.11,1.09.35,1.89.73C83.29,201.24,83.9,200.87,84.13,200Z" style="fill:#f0f0f0"></path><path d="M68.81,200.39c0,.21.08.42.12.62v2.25a1.15,1.15,0,0,1,1,.58l0,0a.91.91,0,0,0,.21.23.76.76,0,0,0,.2.06h.09a2.19,2.19,0,0,0,1.09-.24,2.56,2.56,0,0,1,.74-.23,1.54,1.54,0,0,1,.62,0,1.26,1.26,0,0,1,.47.22,8.81,8.81,0,0,0,.8.48,1.91,1.91,0,0,0,1.37.24.94.94,0,0,0,.58-.49,1.88,1.88,0,0,0,.15-.38,3.29,3.29,0,0,0,.11-.74c.08-1.42,1.34-1.33,2.51-1.46l.29,0c.38-.06.23-.47,0-1l-.12-.29c-.32-.78-.6-1.71.47-2.15l.34-.14a1.23,1.23,0,0,0,.61-.51,1.07,1.07,0,0,0-.23-1.2l-.2-.17a2.63,2.63,0,0,0-1.49-.37c-.3-.37-.08-.92.2-1.31,0,0,0,0,0-.05h0c.32-.4.69-.86.57-1.35s-.82-.72-1.47-.68a2.63,2.63,0,0,0-.49.05,5.33,5.33,0,0,1-.4-1.51,1.78,1.78,0,0,0-.14-.36,1,1,0,0,0-.93-.62c-.49.06-.79.61-1.27.73a.78.78,0,0,1-.34,0h0a3,3,0,0,1-1.14-.73c-.44-.38-1.21-.61-1.51-.12a.79.79,0,0,0-.11.36,1.46,1.46,0,0,1-.15.63.42.42,0,0,1-.17.16c-.38.25-1,0-1.41-.32h0a2.14,2.14,0,0,0-.51-.3,1.46,1.46,0,0,0-.39-.12v10.1A.38.38,0,0,0,68.81,200.39Z" style="fill:#f0f0f0"></path><path d="M68.93,188.77v11.52a5.84,5.84,0,0,1,2.3-.47h0c.39-.07.17-.55-.08-1.13-.33-.81-.72-1.82.42-2.28.16-.07.33-.14.48-.22a1.08,1.08,0,0,0,.47-.45,1.1,1.1,0,0,0-.41-1.35h0a2.65,2.65,0,0,0-1.49-.37c-.33-.39-.06-1,.25-1.38a2.78,2.78,0,0,0,.58-1,.83.83,0,0,0,0-.35.74.74,0,0,0-.18-.34,1.73,1.73,0,0,0-1.43-.33l-.35,0a1.33,1.33,0,0,1-.16-.34c-.13-.37-.14-.79-.25-1.17A1.66,1.66,0,0,0,68.93,188.77Z" style="fill:#f0f0f0"></path><path d="M68.93,201v8a3.32,3.32,0,0,1,.82-.15c.25,0,.51,0,.76-.09.77-.13-1.26-2.07.28-2.69a1.59,1.59,0,0,0,.68-.43.28.28,0,0,0,.07-.09.82.82,0,0,0-.06-.77,1.18,1.18,0,0,0-.28-.31,1.74,1.74,0,0,0-.84-.27l-.34,0a.47.47,0,0,1-.1-.38,1.22,1.22,0,0,1,.3-.71c.25-.31.54-.66.45-1-.13-.59-1-.61-1.55-.49A1.88,1.88,0,0,1,68.93,201Z" style="fill:#f0f0f0"></path><path d="M68.93,180.84v13.07a1.18,1.18,0,0,1,1,.62.73.73,0,0,0,.21.22.43.43,0,0,0,.17.06h.12c.66.05,1.1-.32,1.68-.44l.15,0c.9-.11,1.1.36,1.89.73a3.61,3.61,0,0,0,.62.22,1.07,1.07,0,0,0,1.48-.85,3.29,3.29,0,0,0,.11-.74,1.22,1.22,0,0,1,.76-1.18,3.32,3.32,0,0,1,.78-.18c.4,0,.85-.07,1.26-.14a.25.25,0,0,0,.13-.05c.58-.38-1.62-2.62.23-3.37a1.7,1.7,0,0,0,.95-.67,1.11,1.11,0,0,0-.43-1.36,1.7,1.7,0,0,0-.63-.27,3.55,3.55,0,0,0-.86-.1c-.32-.39-.06-1,.25-1.38s.69-.85.57-1.34a.48.48,0,0,0-.07-.18,1,1,0,0,0-.84-.48,3,3,0,0,0-1,0h0a5.49,5.49,0,0,1-.4-1.52c-.14-.51-.54-1-1.07-1s-.79.62-1.27.73-1-.36-1.49-.74-1.21-.6-1.51-.11c-.18.29-.07.7-.26,1-.33.51-1.1.2-1.58-.16A2,2,0,0,0,68.93,180.84Z" style="fill:#f0f0f0"></path><path d="M86.48,195a3.12,3.12,0,0,0,.11-.74c.1-1.53,1.56-1.29,2.81-1.5,1-.16-1.61-2.62.36-3.42a1.72,1.72,0,0,0,.95-.66,1.1,1.1,0,0,0-.43-1.36,2.64,2.64,0,0,0-1.49-.38c-.32-.39-.06-1,.25-1.37s.69-.85.57-1.35c-.18-.74-1.21-.76-2-.62a5.51,5.51,0,0,1-.41-1.52c-.13-.5-.53-1-1.06-1s-.79.62-1.27.73-1-.36-1.49-.73-1.21-.61-1.51-.12c-.18.3-.07.71-.26,1-.33.5-1.1.19-1.58-.17s-1.25-.68-1.59-.18a2.23,2.23,0,0,0-.19.51c-.22.66-.93,1-1.49,1.41s-1,1.25-.52,1.77c.23.25.64.35.75.68s-.27.76-.59,1c-.55.46-.64,1.84.07,2.22.31.16.75.21.82.54s-.23.53-.43.76a1.43,1.43,0,0,0,.43,2.13c.17.08.39.15.45.33a.62.62,0,0,1,0,.4,2.22,2.22,0,0,0-.07.77.39.39,0,0,0,.09.24.36.36,0,0,0,.23.06c1,0,1.54-.32,2.17.59a.77.77,0,0,0,.22.22.69.69,0,0,0,.28.08c.72.05,1.18-.39,1.83-.47.91-.12,1.1.35,1.9.72C85.64,196.19,86.25,195.83,86.48,195Z" style="fill:#f0f0f0"></path><path d="M92.69,199.16a4,4,0,0,0,.11-.75c.09-1.53,1.56-1.29,2.81-1.5,1-.16-1.61-2.62.36-3.42a1.76,1.76,0,0,0,1-.66,1.13,1.13,0,0,0-.43-1.36,2.69,2.69,0,0,0-1.5-.38c-.32-.39-.06-1,.25-1.37s.69-.85.58-1.34c-.18-.75-1.22-.77-2-.63a5.2,5.2,0,0,1-.41-1.51c-.13-.51-.54-1.05-1.06-1s-.79.61-1.28.73-1-.37-1.48-.74-1.21-.6-1.52-.11c-.18.29-.07.7-.26,1-.32.5-1.1.19-1.58-.17s-1.25-.68-1.58-.18a1.84,1.84,0,0,0-.19.51c-.23.66-.94,1-1.49,1.41s-1,1.25-.52,1.77c.23.25.63.35.75.68s-.27.76-.6,1c-.54.46-.64,1.85.08,2.22.3.16.74.21.82.54s-.24.53-.44.76a1.43,1.43,0,0,0,.44,2.13c.17.08.38.15.45.33a.7.7,0,0,1,0,.4,2,2,0,0,0-.06.77.3.3,0,0,0,.09.24.36.36,0,0,0,.23.06c1,.05,1.53-.32,2.17.59a.91.91,0,0,0,.21.23.73.73,0,0,0,.29.07c.71.06,1.18-.39,1.83-.47.9-.12,1.1.35,1.89.72C91.85,200.37,92.45,200,92.69,199.16Z" style="fill:#f0f0f0"></path><path d="M68.93,206.29v2.12l.22.13c.2.1.41.23.6.35a15.81,15.81,0,0,1,6.09,8.1c0,.21.07,1.52.12,3.58.13,5.79.3,17.49.44,27.3h6.28c-.09-5-.27-10.41-.63-15.41-.11-1.59-.25-3.13-.4-4.6-.08-.81-.17-1.6-.27-2.36-.08-.58-.15-1.14-.24-1.68.07-.38.13-.83.2-1.34.54-4.27,4.14-10.48,5.56-12.61q.27-.41.42-.6c.26-.33.66-.87,1.09-1.48,1.08-1.49,2.4-3.35,2.4-3.35l-.54-.81-2.49,2.76-1.71,1.9.87-2.76.69-2.2,0-.14.13-.17.86-1.09.33-.43.44-.56.16-.22.81-1,.41-.52-.54-.45-.52.57-.63.69-.25.27-1.55,1.69-.11-1-.14-1.4,0-.28-.1-1,0-.46,0-.37-.06-.59H85.61s.12.41.26,1.07c.06.29.13.62.2,1,.36,1.9.71,4.63.08,6l-.57,1.28c-.3.63-.68,1.45-1.12,2.36a2.26,2.26,0,0,0-.11.22c-1.42,2.9-3.36,6.56-4.64,7.73a1.85,1.85,0,0,0-.33.4,22.88,22.88,0,0,0-2.6-4.87c.44-1.12,1.13-2.89,1.77-4.73.28-.78.56-1.58.81-2.33.36-1.06.65-2.05.84-2.83s.35-1.51.48-2.19c.21-1,.36-1.88.46-2.56.15-1,.2-1.51.2-1.51l-.15-.09-.73-.39s-.07.34-.2.92-.22,1-.38,1.71-.36,1.4-.58,2.19c0,.13-.07.26-.11.39-.09.33-.2.68-.3,1-.37,1.22-.81,2.5-1.3,3.74-.24.61-.5,1.2-.77,1.77a16.9,16.9,0,0,1-1.73,2.93,13.44,13.44,0,0,0-3.42-2.29,10.21,10.21,0,0,1-.2-2.08c0-.27,0-.55,0-.86s0-.57.06-.88a24.3,24.3,0,0,1,.48-3c0-.23.1-.46.16-.7l-.67-.62s-.07.16-.17.45a24.13,24.13,0,0,0-1,4.11v.07a15.74,15.74,0,0,0-.17,2.78A13.27,13.27,0,0,1,68.93,206.29Z" style="fill:#f0f0f0"></path><path d="M267.85,215.34a3.88,3.88,0,0,0,.36.15,1.15,1.15,0,0,1,.25.12.43.43,0,0,1,.2.27.33.33,0,0,1,0,.26,2.66,2.66,0,0,1-.4.5,1.21,1.21,0,0,0-.29,1,1.41,1.41,0,0,0,.42.92,1.57,1.57,0,0,0,.3.2,1.41,1.41,0,0,1,.34.19v-4.56l.23-.29-.08,0-.15.06v-1.3l.7-.76s0,0,0,0a1.8,1.8,0,0,0-.67-.28v-2.46a.57.57,0,0,0,0-.29V209h0c-.28.22-.59.4-.87.61a2,2,0,0,0-.61.8.86.86,0,0,0,.09,1h0a1.37,1.37,0,0,0,.33.25,1,1,0,0,1,.42.42c.14.4-.26.75-.58,1l0,0C267.23,213.57,267.13,215,267.85,215.34Z" style="fill:#f0f0f0"></path><path d="M255.9,214.05c.31.16.74.2.82.54s-.23.52-.44.76a1.41,1.41,0,0,0-.16,1.49,1.23,1.23,0,0,0,.6.63c.17.08.38.15.44.33a.69.69,0,0,1,0,.4,2.24,2.24,0,0,0-.07.77.34.34,0,0,0,.09.24.37.37,0,0,0,.23.07h0c.79,0,1.26-.17,1.73.15a1.71,1.71,0,0,1,.41.43.67.67,0,0,0,.21.23.73.73,0,0,0,.29.07c.72.06,1.18-.39,1.83-.47.91-.11,1.1.36,1.89.73a2.28,2.28,0,0,0,1.28.27,1.11,1.11,0,0,0,.82-.9,3.29,3.29,0,0,0,.11-.74c.06-1,.73-1.25,1.54-1.35.13,0,.27,0,.42-.06s.57,0,.85-.09c.13,0,.19-.09.21-.17v-.19a6.44,6.44,0,0,0-.37-1.05,3.27,3.27,0,0,1-.17-.53,1.33,1.33,0,0,1-.07-.43,1,1,0,0,1,.61-1v-1.3l.7-.76s0,0,0,0a1.8,1.8,0,0,0-.67-.28,3.84,3.84,0,0,0-.83-.09.75.75,0,0,1-.07-.12,1.27,1.27,0,0,1,.33-1.26,2.42,2.42,0,0,0,.57-1,.57.57,0,0,0,0-.29V209h0c-.16-.63-.92-.74-1.61-.67l-.35,0a2.09,2.09,0,0,1-.25-.7,7.43,7.43,0,0,0-.16-.82c-.13-.51-.54-1-1.06-1s-.8.62-1.28.73a.81.81,0,0,1-.38,0,2.86,2.86,0,0,1-1.11-.73c-.43-.37-1.2-.6-1.51-.11-.18.29-.06.7-.25,1a.52.52,0,0,1-.46.25,1.87,1.87,0,0,1-1.13-.41l-.06,0a1.73,1.73,0,0,0-1.15-.38.5.5,0,0,0-.37.23,1.84,1.84,0,0,0-.19.51c-.23.66-.94,1-1.49,1.41a1.53,1.53,0,0,0-.68,1.51.71.71,0,0,0,.16.26,1.49,1.49,0,0,0,.35.27.93.93,0,0,1,.4.41c.11.32-.12.61-.37.85l-.23.19C255.28,212.28,255.18,213.67,255.9,214.05Z" style="fill:#f0f0f0"></path><path d="M254.75,206.44c.3.16.75.21.81.54a.57.57,0,0,1-.18.49l-.25.27a1.44,1.44,0,0,0,.38,2.1l.06,0c.17.07.38.14.45.32a.28.28,0,0,1,0,.18,1,1,0,0,1,0,.23,2.18,2.18,0,0,0-.07.76.33.33,0,0,0,.1.24s0,0,.05,0a.48.48,0,0,0,.18,0c1,.05,1.53-.32,2.17.58a.67.67,0,0,0,.21.23.74.74,0,0,0,.29.08,1.82,1.82,0,0,0,.75-.11l.24-.1a3.74,3.74,0,0,1,.84-.26,1.62,1.62,0,0,1,.54,0c.48.1.75.44,1.35.72,1.26.59,1.86.23,2.1-.62a5,5,0,0,0,.11-.75,1.42,1.42,0,0,1,.16-.63c.25-.53.83-.66,1.47-.74l1-.1.17,0c.51-.09,0-.81-.25-1.6s-.32-1.45.61-1.82a1.7,1.7,0,0,0,.94-.66.52.52,0,0,0,.06-.16.84.84,0,0,0,0-.52.7.7,0,0,0-.06-.17,1.33,1.33,0,0,0-.42-.52,2.66,2.66,0,0,0-1.5-.37c-.32-.39-.06-1,.25-1.37s.7-.85.58-1.35c-.18-.74-1.22-.77-2-.62a5.49,5.49,0,0,1-.4-1.52,1.54,1.54,0,0,0-.43-.74.75.75,0,0,0-.63-.23c-.49.06-.79.61-1.28.72s-1.05-.36-1.48-.73-1.21-.61-1.51-.11a1,1,0,0,0-.13.48,1.11,1.11,0,0,1-.14.5c-.32.5-1.1.19-1.58-.16a2.55,2.55,0,0,0-.75-.39.7.7,0,0,0-.83.21,1.84,1.84,0,0,0-.19.51c-.23.66-.94,1-1.49,1.4s-1,1.27-.53,1.78a2.47,2.47,0,0,0,.42.3h0a.79.79,0,0,1,.33.37c.14.4-.27.76-.6,1C254.13,204.68,254,206.06,254.75,206.44Z" style="fill:#f0f0f0"></path><path d="M256.85,216a3.85,3.85,0,0,0,.11-.74c.09-1.54,1.56-1.29,2.81-1.5,1-.16-1.61-2.63.36-3.42a1.81,1.81,0,0,0,.95-.66,1.14,1.14,0,0,0-.43-1.37,2.66,2.66,0,0,0-1.5-.37c-.32-.39-.06-1,.26-1.38s.69-.85.57-1.34c-.18-.74-1.22-.77-2-.62a5.18,5.18,0,0,1-.41-1.52c-.13-.51-.54-1-1.06-1s-.79.62-1.28.73-1-.36-1.48-.73-1.21-.61-1.51-.12c-.19.3-.08.7-.27,1-.32.5-1.1.19-1.58-.16s-1.24-.68-1.58-.19a1.91,1.91,0,0,0-.19.52c-.23.65-.94,1-1.49,1.4s-1,1.26-.52,1.77c.23.26.63.36.75.68s-.27.77-.6,1c-.54.46-.64,1.84.08,2.22.3.16.74.21.82.54s-.24.53-.44.76a1.42,1.42,0,0,0,.44,2.12c.17.09.38.15.45.33a.84.84,0,0,1,0,.41,2,2,0,0,0-.07.77.32.32,0,0,0,.09.24.36.36,0,0,0,.23.06c1,0,1.54-.32,2.17.58a.67.67,0,0,0,.21.23.59.59,0,0,0,.29.07c.71.06,1.18-.38,1.83-.47.91-.11,1.1.35,1.89.73C256,217.19,256.61,216.83,256.85,216Z" style="fill:#f0f0f0"></path><path d="M248.9,214.22a3.85,3.85,0,0,0,.11-.74c.09-1.54,1.56-1.29,2.8-1.5,1-.16-1.6-2.63.36-3.42a1.73,1.73,0,0,0,1-.66,1.12,1.12,0,0,0-.43-1.37,2.63,2.63,0,0,0-1.49-.37c-.32-.39-.06-1,.25-1.38s.69-.85.58-1.34c-.18-.74-1.22-.77-2-.62a5.49,5.49,0,0,1-.4-1.52c-.14-.51-.54-1-1.06-1s-.8.62-1.28.73-1-.36-1.49-.73-1.2-.61-1.51-.12c-.18.29-.07.7-.26,1-.33.5-1.1.19-1.58-.16s-1.25-.68-1.59-.19a2.13,2.13,0,0,0-.18.52c-.23.65-.94,1-1.49,1.4s-1,1.26-.53,1.77c.24.26.64.36.76.68s-.27.77-.6,1c-.54.46-.64,1.84.08,2.22.3.16.74.21.81.54s-.23.53-.43.76a1.42,1.42,0,0,0,.44,2.12c.17.09.38.15.44.33a.65.65,0,0,1,0,.41,2.2,2.2,0,0,0-.07.77.37.37,0,0,0,.1.24.33.33,0,0,0,.22.06c1,0,1.54-.32,2.18.58a.67.67,0,0,0,.21.23.59.59,0,0,0,.29.07c.71.06,1.18-.38,1.83-.47.9-.11,1.09.35,1.89.73C248.05,215.44,248.66,215.08,248.9,214.22Z" style="fill:#f0f0f0"></path><path d="M248.79,222.73a2.52,2.52,0,0,0,.09-.58c.07-1.21,1.23-1,2.21-1.19.77-.13-1.26-2.06.28-2.69a1.4,1.4,0,0,0,.75-.52.87.87,0,0,0-.34-1.07,2,2,0,0,0-1.17-.3c-.25-.31-.05-.77.2-1.08s.54-.67.45-1.06c-.14-.58-1-.6-1.55-.49a4.27,4.27,0,0,1-.32-1.19c-.1-.41-.42-.83-.83-.78s-.63.49-1,.58-.82-.29-1.17-.58-.95-.48-1.19-.09c-.14.23-.06.55-.2.78-.26.39-.87.15-1.25-.13s-1-.53-1.25-.14a1.58,1.58,0,0,0-.15.4c-.17.52-.73.77-1.17,1.11s-.78,1-.41,1.39c.18.2.5.28.59.54s-.21.6-.47.82c-.43.36-.5,1.45.06,1.75.24.12.59.16.65.42s-.19.42-.35.6a1.12,1.12,0,0,0,.35,1.67c.13.07.3.12.35.26a.5.5,0,0,1,0,.32,1.57,1.57,0,0,0-.06.61.27.27,0,0,0,.08.19.35.35,0,0,0,.18.05c.81,0,1.21-.26,1.71.45a.4.4,0,0,0,.39.24c.56,0,.93-.3,1.44-.37.71-.09.87.28,1.49.57C248.13,223.69,248.61,223.4,248.79,222.73Z" style="fill:#f0f0f0"></path><path d="M244.34,219.79a4,4,0,0,0,.11-.74c.09-1.54,1.56-1.29,2.8-1.5,1-.17-1.6-2.63.36-3.42a1.73,1.73,0,0,0,.95-.66,1.12,1.12,0,0,0-.43-1.37,2.63,2.63,0,0,0-1.49-.37c-.32-.39-.06-1,.25-1.38s.69-.85.58-1.34c-.18-.74-1.22-.77-2-.62a5.49,5.49,0,0,1-.4-1.52c-.14-.51-.54-1-1.06-1s-.8.62-1.28.73-1-.36-1.49-.74-1.2-.6-1.51-.11c-.18.29-.07.7-.26,1-.33.5-1.1.19-1.58-.16s-1.25-.68-1.59-.19a2.13,2.13,0,0,0-.18.52c-.23.65-.94,1-1.49,1.4s-1,1.26-.53,1.77c.24.26.64.36.76.68s-.27.77-.6,1.05c-.54.46-.64,1.84.08,2.22.3.16.74.21.81.54s-.23.53-.43.76a1.42,1.42,0,0,0,.44,2.12c.17.08.38.15.44.33a.62.62,0,0,1,0,.4,2.24,2.24,0,0,0-.07.77.37.37,0,0,0,.1.25.33.33,0,0,0,.22.06c1,.05,1.54-.32,2.18.58a.67.67,0,0,0,.21.23.73.73,0,0,0,.29.07c.71.06,1.18-.38,1.83-.47.9-.11,1.09.35,1.89.73C243.49,221,244.1,220.64,244.34,219.79Z" style="fill:#f0f0f0"></path><path d="M256.85,206.61a3.74,3.74,0,0,0,.11-.74c.09-1.53,1.56-1.29,2.81-1.5,1-.16-1.61-2.62.36-3.42a1.76,1.76,0,0,0,.95-.66,1.13,1.13,0,0,0-.43-1.36,2.67,2.67,0,0,0-1.5-.38c-.32-.39-.06-1,.26-1.37s.69-.85.57-1.35c-.18-.74-1.22-.76-2-.62a5.18,5.18,0,0,1-.41-1.52c-.13-.51-.54-1-1.06-1s-.79.62-1.28.73-1-.36-1.48-.73-1.21-.61-1.51-.12c-.19.3-.08.71-.27,1-.32.5-1.1.18-1.58-.17s-1.24-.68-1.58-.18a1.84,1.84,0,0,0-.19.51c-.23.66-.94,1-1.49,1.4s-1,1.26-.52,1.78c.23.25.63.35.75.68s-.27.76-.6,1c-.54.46-.64,1.84.08,2.22.3.16.74.21.82.54s-.24.53-.44.76a1.43,1.43,0,0,0,.44,2.13c.17.08.38.15.45.33a.79.79,0,0,1,0,.4,2,2,0,0,0-.07.77.3.3,0,0,0,.09.24.36.36,0,0,0,.23.06c1,.05,1.54-.32,2.17.58a.67.67,0,0,0,.21.23.74.74,0,0,0,.29.08c.71,0,1.18-.39,1.83-.47.91-.12,1.1.35,1.89.72C256,207.83,256.61,207.47,256.85,206.61Z" style="fill:#f0f0f0"></path><path d="M257.1,201.4c.3.16.74.2.81.53s-.23.53-.43.77h0a1.45,1.45,0,0,0,.25,2,1.22,1.22,0,0,0,.19.12c.18.08.39.15.45.33a.62.62,0,0,1,0,.4,2.59,2.59,0,0,0-.08.63.66.66,0,0,0,0,.14.35.35,0,0,0,.1.24.42.42,0,0,0,.23.07c.3,0,.56,0,.78,0h.09a1.18,1.18,0,0,1,1.13.41.78.78,0,0,1,.16.2,1,1,0,0,0,.22.23.58.58,0,0,0,.29.06c.71.06,1.18-.38,1.83-.46a1.34,1.34,0,0,1,.49,0h0c.53.08.77.43,1.4.72.92.44,1.5.36,1.82-.07a1.39,1.39,0,0,0,.27-.56,3.69,3.69,0,0,0,.12-.74c.06-1.11.86-1.29,1.76-1.38H269v-9.34a3.88,3.88,0,0,0-.77.06,5.44,5.44,0,0,1-.41-1.51c-.12-.51-.53-1.05-1.05-1s-.79.61-1.28.73-1.05-.36-1.49-.74-1.2-.61-1.51-.12c-.18.3-.07.71-.26,1-.32.5-1.1.19-1.58-.17s-1.25-.67-1.58-.18a1.84,1.84,0,0,0-.19.51,2.1,2.1,0,0,1-.81.94l-.68.46c-.56.43-1,1.26-.53,1.78.24.25.64.35.76.68a.53.53,0,0,1-.07.47,2.2,2.2,0,0,1-.53.57C256.48,199.64,256.38,201,257.1,201.4Z" style="fill:#f0f0f0"></path><path d="M263.3,205.58c.3.16.75.2.82.54a.54.54,0,0,1-.21.49,2.75,2.75,0,0,1-.22.26.66.66,0,0,0-.12.17h0a1.44,1.44,0,0,0,.55,2c.17.08.38.15.45.33a.69.69,0,0,1,0,.4,2,2,0,0,0-.07.77.35.35,0,0,0,.1.24.29.29,0,0,0,.22.06H265c.74,0,1.2-.18,1.66.24a1.48,1.48,0,0,1,.3.34.69.69,0,0,0,.22.23.89.89,0,0,0,.28.07h.2a1.36,1.36,0,0,0,.3,0l.15,0c.31-.09.59-.25.9-.33v-1.92a.57.57,0,0,0,0-.29V205.7a.84.84,0,0,0,0-.52v-8.12a.58.58,0,0,0-.3.24c-.18.29-.07.7-.26,1-.33.5-1.11.18-1.58-.17s-1.25-.67-1.59-.18a2.23,2.23,0,0,0-.19.51.11.11,0,0,1,0,.07c-.24.61-.92.93-1.45,1.34s-1,1.26-.53,1.77c.23.26.64.36.75.68s-.27.76-.59,1C262.68,203.81,262.59,205.19,263.3,205.58Z" style="fill:#f0f0f0"></path><path d="M242.39,211.77l.17.35c.25.45.72,1.31,1.36,2.33a29.39,29.39,0,0,0,2.32,3.21,12.36,12.36,0,0,0,3.5,3l.6.35a15.78,15.78,0,0,1,6.08,8.1c.1.66.29,12.27.46,23.8,0,2.4.07,4.79.1,7.09h6.29c-.07-4.21-.22-8.76-.48-13.09-.24-4-.58-7.81-1.06-11,.06-.39.12-.83.19-1.34.61-4.79,5.08-12,6-13.21L269,220v0a2.26,2.26,0,0,1,.07-.43.69.69,0,0,0,.05-.4A.28.28,0,0,0,269,219v-1.1l-.64.71-1.71,1.89.87-2.75.69-2.21.05-.14.13-.17.61-.79.23-.29-.08,0-.15.06v-1.3l-1.1,1.21-.11-1-.14-1.4,0-.29-.1-1,0-.45-.1-1H266.2s.12.42.26,1.08c.06.29.13.62.19,1,.37,1.91.71,4.63.09,6,0,0-.7,1.61-1.69,3.64-1.43,2.93-3.44,6.75-4.76,7.94a1.82,1.82,0,0,0-.32.4,24.37,24.37,0,0,0-2.6-4.87c.43-1.12,1.12-2.9,1.77-4.73s1.32-3.82,1.65-5.15c.19-.77.35-1.51.48-2.19.48-2.4.65-4.08.65-4.08l-.87-.48s-.07.34-.2.93-.23,1-.39,1.7-.35,1.4-.57,2.19c0,.13-.08.26-.11.39-.09.34-.2.68-.31,1a40.61,40.61,0,0,1-2.06,5.51,16.54,16.54,0,0,1-1.73,2.93,13.75,13.75,0,0,0-3.43-2.29,11.19,11.19,0,0,1-.2-2.09c0-.26,0-.54,0-.84s0-.58.06-.89a25.51,25.51,0,0,1,.64-3.7l-.68-.63a22.77,22.77,0,0,0-1.15,4.56.17.17,0,0,1,0,.07,16.74,16.74,0,0,0-.15,2.68v.1a12,12,0,0,1-1.5-.88,14.1,14.1,0,0,1-2-1.75,20.74,20.74,0,0,1-2.08-2.45c-.44-.59-.8-1.13-1.05-1.54s-.48-.79-.48-.79Z" style="fill:#f0f0f0"></path><path d="M68.93,216.1v51.66H269v-23c-1.45-.5-2.22-.29-2.72.25a7.72,7.72,0,0,0-1.07,0,.64.64,0,0,0-.28.07.7.7,0,0,0-.2.49,1.8,1.8,0,0,1-1.94,1.36h-.05c0,.59-.18,1.19-.22,1.79h0a1.9,1.9,0,0,0-.77-.16.66.66,0,0,0-.61.44,1,1,0,0,1-.06.26c-.09.16-.3.19-.42.33s.06.7-.15,1a.78.78,0,0,0-.44-.74,2.31,2.31,0,0,0-.89-.2l-.89-.07a.77.77,0,0,0-.75.2c-.12.17-.07.41-.09.61a3.22,3.22,0,0,1-.19.6,2.51,2.51,0,0,0-.06,1.92l-.31.08c-.81.13-2.14.12-2.39.47a.69.69,0,0,0-.14-.88,1.12,1.12,0,0,0-.92-.2,2.11,2.11,0,0,1-1,.13c-.44-.11-.62-.63-.77-1.06s-.56-.91-1-.76a1,1,0,0,0-.33-1.18,3.62,3.62,0,0,1-.41-.27,2.19,2.19,0,0,1-.3-.54c-.4-.79-1.39-1-2.26-1.15a1,1,0,0,0-.63,0c-.23.11-.33.37-.45.6a2.91,2.91,0,0,1-1.41,1.36c-.83.3-.71-.22-1.42-.43a.79.79,0,0,0-.43,0c-1.35.35-2.9.9-3.25,2.24a12.81,12.81,0,0,0-.12,1.65,5.32,5.32,0,0,1-1.54,2.65l-.74-.63a.6.6,0,0,0,.06-.77,1.74,1.74,0,0,0-.65-.52,2.85,2.85,0,0,0-2.36-.51,4.23,4.23,0,0,0-.89.63,1.5,1.5,0,0,1-1,.4.65.65,0,0,1-.6-.76l-.13-.07a6,6,0,0,0-2.64-.83,1.48,1.48,0,0,0-1.39.44c-.27.39-.16.94-.36,1.38a1.08,1.08,0,0,1-1.88-.07c-.1-.27-.26-.66-.51-.53a1.67,1.67,0,0,1-1.81,1.16.63.63,0,0,0-.5-.63.61.61,0,0,0-.68.41,2.42,2.42,0,0,0-.06.46,1.07,1.07,0,0,1-.09.27,1.59,1.59,0,0,1-1.17.72c-.14,0-1.94,0-1.76-.25a4.41,4.41,0,0,0,.82-2.69,2,2,0,0,1,.07-.89c.13-.31.45-.54.53-.86a1,1,0,0,0-.53-1,3.2,3.2,0,0,0-1.15-.25,15.88,15.88,0,0,1-1.83-.31,2.21,2.21,0,0,1-.89-.38,2,2,0,0,1-.51-1.51,3,3,0,0,0-.3-1.59c-.29-.47-1-.68-1.38-.25a3,3,0,0,0-2.22.31,1.08,1.08,0,0,0-.44.38,1.49,1.49,0,0,0-.15.7,7.17,7.17,0,0,1-.91,2.93l-2.11-.65a1.31,1.31,0,0,0-.38-1.33,1.92,1.92,0,0,0-1.36-.47,1.9,1.9,0,0,0-1.31.5,1.18,1.18,0,0,0-.2,1.33c-.48,0-.91-.35-1.4-.39s-1,.53-.71.88a4.3,4.3,0,0,1-1.38-1.21,1.6,1.6,0,0,0-1.65-.59,1.79,1.79,0,0,0-.82,1,3.29,3.29,0,0,0-.42,1.41,1.13,1.13,0,0,0,.79,1.13c.38.73-.59,1.26-1.19,1-.32-.11-.38-.5-.72-.62s-.63.1-.93,0-.58-.34-.87-.52a1.4,1.4,0,0,0-1.44.05,1.38,1.38,0,0,0-.58,1.32c-.41.15-.84-.13-1.27-.22a1.57,1.57,0,0,0-1.78,1.14c-.08.36-.23.91-.59.79a1.7,1.7,0,0,0,.43,2.31c.32.21.77.41.72.78s-.5.46-.8.66c-.66.42-.45,1.25-.63,1.93v0a1.19,1.19,0,0,1-.4.61c-.86.74-3,.21-3.91-.13a3.49,3.49,0,0,0-1.3-.31,1.27,1.27,0,0,0-.64.2c-.71.4-1.15,1.35-1.72,2a3.85,3.85,0,0,1-2.48,1.32,1,1,0,0,1-.69-.12,5.54,5.54,0,0,1-.37-.45c-.41-.43-1.13-.23-1.62.11a3.4,3.4,0,0,1-1.54.82c-.46,0-.94-.25-1.37-.07-.7.27-.36,1-.75,1.45-.55.56-.61.45-1.41.7-.39.12-3.13.22-3.25.54a1.15,1.15,0,0,0-.64-1.31,3.5,3.5,0,0,0-1.58-.24,2.67,2.67,0,0,1,0-1.4c.05-.47-.09-1.06-.56-1.16s-.95.22-1.16-.14a.93.93,0,0,1-.07-.44c-.08-1-1-.71-1.5-1.13-.8-.63-.3.09-.65-.9-.13-.35-.15-1.33-.28-1.83s-.47-.76-.37-1.28a2.87,2.87,0,0,1,.66-1,1,1,0,0,0,.22-1.15c-.32-.5-1.12-.28-1.68-.53s-.68-.69-.94-1.11-.68-.86-1.17-.78c-.18,0-.35.14-.54.16-2,.22-2.41-1.77-2.29-3.14a1.46,1.46,0,0,0-.06-.69c-.24-.53-1-.57-1.36-1s-.15-1.17-.39-1.72a2.23,2.23,0,0,0-1-.94,4.66,4.66,0,0,0-3.18-1,.68.68,0,0,0-.55.33,4.18,4.18,0,0,0-.09.53.88.88,0,0,1-.82.55c-.34,0-.69,0-1,0-.92,0-3.05,3.57-3.85,2.81a.45.45,0,0,1-.1-.31,2.56,2.56,0,0,0-1.92-2.16c-1.19-.28-1.25.2-2.21.67-.32.16-.8.1-.92-.23s0-.49-.05-.72c-.1-.4-.59-.55-1-.52-1.18.06-2.85-.16-2.87,1.61a2.25,2.25,0,0,1,0,.82c-.09.26-.44.45-.64.25-.19.28.26.6.28.95s-.53.59-.9.8a.94.94,0,0,0-.36.32c-.37.56-.17,1.43-.63,2-.64.79-1.78.61-2.27,1.82a4.7,4.7,0,0,1-.81,1.61c-.3-.3-1-1.19-.9-1.76.09-.39.55-.86.22-1.1-.1-.06-.23-.06-.33-.12-.34-.19-.1-.69,0-1.06a1.3,1.3,0,0,0-.78-1.56,1,1,0,0,0-.44-.07,1.88,1.88,0,0,0-1.29.79,5.86,5.86,0,0,1,.06-.94c-1.22.31-1.42-2.05-2.65-2.37-.54-.14-1.38,0-1.47-.53.51-.17.49-1,.09-1.32a2.3,2.3,0,0,0-1.52-.4,1.19,1.19,0,0,0,0-1.64,2.51,2.51,0,0,0-1.64-.7,6.63,6.63,0,0,0-2.43.15,5.81,5.81,0,0,0-1.13.39c.21.36-.31.79-.71.66a1.29,1.29,0,0,1-.72-1c-.59.8-1.78-.12-2.76-.27a2.31,2.31,0,0,0-2.16,1.13c-.6.9-.69,2-1.3,2.82a1.92,1.92,0,0,1-.42.46c-.44.39-.77.51-.53,1.59a1.6,1.6,0,0,0,.25.63,4.15,4.15,0,0,0,.32.27s0,0,0,0a1.26,1.26,0,0,1,0,1.59,1.18,1.18,0,0,1-.18.21,5.53,5.53,0,0,1-1.77.92,1,1,0,0,0-.55.43,1.11,1.11,0,0,0,0,.72,10.75,10.75,0,0,1,.36,3.83.32.32,0,0,0-.08-.09.79.79,0,0,0-.48-.07l-3.11.18a2,2,0,0,0,0-2.39,3.09,3.09,0,0,1-.52-.84.64.64,0,0,1,.34-.81.9.9,0,0,0,.27-.07c.24-.14,0-.51-.15-.71-.34-.35-.67-.88-.39-1.27a1.7,1.7,0,0,1,.48-.35c.91-.61,1-3-.19-3.35a2.56,2.56,0,0,0-1.39.14c-1.44.42-3.18.87-4.32-.12-.23-.94.23-2.22-.61-2.69-.67-.38-1.85.09-2.08-.65-.1-.26,0-.54,0-.82a1,1,0,0,0-1.51-.84c.12-1,1.53-1.3,1.81-2.24A1.79,1.79,0,0,0,91.8,239c-.9-.76-2.42-1-3.16-.12-.35.44-.64,1.19-1.2,1.07,0-.54,0-1.07,0-1.61-.39.4-1.11,0-1.3-.54-.37-1-.26-2.8-1.94-2.08.07-.28.49-.66.49-1a2.37,2.37,0,0,0-1.07-2,2,2,0,0,0-1.53-.26,3.64,3.64,0,0,1-1.74.06c.77-1.21.17-2.45.63-3.69a3.37,3.37,0,0,1,.71-1,1.31,1.31,0,0,0,.19-1.77,3,3,0,0,0-.46-.59,4.54,4.54,0,0,0-3.14-1,2.06,2.06,0,0,0-.18-2.85,4.84,4.84,0,0,0-2.1-1.11l-.76-.2c.73-.82-.07-2.23-1.13-2.47a4.67,4.67,0,0,0-3.1.78c-.46-1-.92-2-1.39-3A1.51,1.51,0,0,1,68.93,216.1Z" style="fill:#ebebeb"></path><path d="M254.81,186.32a5.77,5.77,0,0,0,.17-1.18c.15-2.43,2.47-2,4.44-2.37,1.55-.26-2.54-4.16.57-5.42a2.67,2.67,0,0,0,1.5-1,1.76,1.76,0,0,0-.67-2.16,4.21,4.21,0,0,0-2.37-.59c-.5-.62-.09-1.55.4-2.18s1.09-1.34.91-2.12c-.28-1.17-1.92-1.22-3.11-1a8.67,8.67,0,0,1-.64-2.4c-.21-.8-.85-1.65-1.68-1.55s-1.25,1-2,1.16-1.65-.58-2.35-1.17-1.91-.95-2.39-.18c-.29.47-.12,1.11-.41,1.57-.52.79-1.75.3-2.51-.26s-2-1.07-2.51-.29a3.26,3.26,0,0,0-.29.81c-.36,1-1.48,1.56-2.36,2.22s-1.57,2-.83,2.81c.37.4,1,.56,1.19,1.07s-.42,1.21-.94,1.65c-.86.73-1,2.92.12,3.52.48.25,1.18.33,1.3.86s-.38.83-.69,1.2a2.25,2.25,0,0,0,.69,3.36c.27.13.61.24.71.52a1.09,1.09,0,0,1-.07.64,3.3,3.3,0,0,0-.11,1.21.59.59,0,0,0,.15.39.63.63,0,0,0,.36.1c1.64.07,2.43-.51,3.44.92a1,1,0,0,0,.34.36,1,1,0,0,0,.45.11c1.13.1,1.87-.61,2.9-.74,1.43-.18,1.73.56,3,1.15C253.47,188.24,254.43,187.67,254.81,186.32Z" style="fill:#ebebeb"></path><path d="M235.9,184.27a5,5,0,0,0,.18-1.17c.15-2.43,2.47-2,4.44-2.37,1.55-.26-2.54-4.16.57-5.42a2.72,2.72,0,0,0,1.5-1,1.76,1.76,0,0,0-.68-2.16,4.08,4.08,0,0,0-2.36-.59c-.5-.62-.09-1.55.4-2.18s1.09-1.35.91-2.12c-.29-1.18-1.93-1.22-3.11-1a8.34,8.34,0,0,1-.64-2.4c-.21-.81-.85-1.65-1.68-1.55s-1.26,1-2,1.15-1.65-.57-2.35-1.16-1.91-1-2.39-.18c-.29.46-.12,1.11-.42,1.57-.51.79-1.74.3-2.5-.26s-2-1.07-2.51-.29a3.12,3.12,0,0,0-.29.81c-.36,1-1.49,1.56-2.36,2.22s-1.57,2-.83,2.81c.37.4,1,.56,1.19,1.07s-.42,1.21-.94,1.65c-.86.73-1,2.92.12,3.52.48.25,1.18.33,1.29.85s-.37.84-.69,1.2a2.27,2.27,0,0,0,.69,3.37c.28.13.61.23.71.52a1,1,0,0,1-.06.63A3.36,3.36,0,0,0,222,183a.52.52,0,0,0,.15.38.55.55,0,0,0,.36.11c1.64.07,2.43-.51,3.43.92a1.46,1.46,0,0,0,.34.36,1,1,0,0,0,.46.11c1.13.09,1.86-.61,2.89-.74,1.43-.18,1.74.55,3,1.15C234.57,186.2,235.53,185.62,235.9,184.27Z" style="fill:#ebebeb"></path><path d="M234.08,172.24a5.74,5.74,0,0,0,.18-1.18c.14-2.43,2.47-2,4.44-2.37,1.54-.26-2.54-4.16.57-5.42a2.67,2.67,0,0,0,1.5-1,1.76,1.76,0,0,0-.68-2.16,4.16,4.16,0,0,0-2.36-.59c-.51-.62-.09-1.55.4-2.18s1.09-1.34.9-2.12c-.28-1.17-1.92-1.22-3.1-1a8.34,8.34,0,0,1-.64-2.4c-.21-.8-.86-1.65-1.68-1.55s-1.26,1-2,1.16-1.66-.58-2.35-1.17-1.91-.95-2.39-.18c-.29.47-.12,1.11-.42,1.57-.51.79-1.74.3-2.5-.26s-2-1.07-2.51-.29a3.26,3.26,0,0,0-.29.81c-.36,1-1.49,1.56-2.36,2.22s-1.57,2-.83,2.81c.37.4,1,.56,1.19,1.07s-.43,1.21-.94,1.65c-.86.73-1,2.92.12,3.52.48.25,1.18.33,1.29.86s-.37.83-.69,1.2a2.26,2.26,0,0,0,.69,3.36c.28.13.61.24.71.52a1,1,0,0,1-.06.64,3.3,3.3,0,0,0-.11,1.21.54.54,0,0,0,.15.39.61.61,0,0,0,.36.1c1.64.07,2.43-.51,3.43.92a1.18,1.18,0,0,0,.34.36,1,1,0,0,0,.46.11c1.12.1,1.86-.61,2.89-.74,1.43-.18,1.74.56,3,1.15C232.75,174.16,233.71,173.59,234.08,172.24Z" style="fill:#ebebeb"></path><path d="M221.63,178.23a5.64,5.64,0,0,0,.18-1.17c.14-2.43,2.46-2.05,4.44-2.38,1.54-.25-2.54-4.15.57-5.41a2.72,2.72,0,0,0,1.5-1.05,1.76,1.76,0,0,0-.68-2.15,4.18,4.18,0,0,0-2.36-.6c-.51-.61-.1-1.54.4-2.17s1.09-1.35.9-2.12c-.28-1.18-1.92-1.22-3.1-1a8.42,8.42,0,0,1-.64-2.4c-.22-.81-.86-1.65-1.68-1.55s-1.26,1-2,1.15-1.66-.57-2.35-1.16-1.92-1-2.4-.18c-.28.46-.11,1.11-.41,1.57-.52.79-1.74.3-2.5-.27s-2-1.07-2.51-.29a3.64,3.64,0,0,0-.3.82c-.36,1-1.48,1.55-2.35,2.22s-1.57,2-.83,2.8c.36.41,1,.57,1.19,1.08s-.43,1.21-.94,1.65c-.86.73-1,2.92.12,3.52.47.25,1.17.32,1.29.85s-.37.84-.69,1.2a2.26,2.26,0,0,0,.69,3.36c.27.13.61.24.71.53a1.15,1.15,0,0,1-.06.63,3.36,3.36,0,0,0-.11,1.22.56.56,0,0,0,.14.38.52.52,0,0,0,.36.1c1.65.08,2.44-.5,3.44.92a1.34,1.34,0,0,0,.34.37,1,1,0,0,0,.45.11c1.13.09,1.87-.61,2.9-.74,1.43-.18,1.73.55,3,1.15C220.3,180.16,221.26,179.58,221.63,178.23Z" style="fill:#ebebeb"></path><path d="M209.05,175.46a5.67,5.67,0,0,0,.17-1.17c.15-2.43,2.47-2,4.44-2.38,1.55-.25-2.54-4.15.57-5.41a2.69,2.69,0,0,0,1.5-1.05,1.75,1.75,0,0,0-.67-2.15,4.12,4.12,0,0,0-2.36-.59c-.51-.62-.1-1.55.39-2.18s1.09-1.35.91-2.12c-.28-1.18-1.92-1.22-3.11-1a8.77,8.77,0,0,1-.64-2.4c-.21-.81-.85-1.65-1.68-1.55s-1.25,1-2,1.15-1.65-.57-2.35-1.16-1.91-1-2.39-.18c-.29.46-.12,1.11-.41,1.57-.52.79-1.75.3-2.51-.26s-2-1.07-2.51-.3a3.19,3.19,0,0,0-.29.82c-.36,1-1.48,1.55-2.36,2.22s-1.57,2-.83,2.8c.37.41,1,.57,1.19,1.08s-.42,1.21-.94,1.65c-.86.73-1,2.92.12,3.52.48.25,1.18.33,1.3.85s-.38.84-.69,1.2a2.24,2.24,0,0,0,.69,3.36c.27.14.61.24.71.53a1.07,1.07,0,0,1-.07.63,3.36,3.36,0,0,0-.11,1.22.56.56,0,0,0,.15.38.51.51,0,0,0,.36.1c1.64.08,2.43-.5,3.44.92a1.09,1.09,0,0,0,.34.37,1,1,0,0,0,.45.11c1.13.09,1.87-.61,2.9-.74,1.43-.18,1.73.55,3,1.15C207.71,177.39,208.67,176.81,209.05,175.46Z" style="fill:#ebebeb"></path><path d="M208.88,188.92A4.14,4.14,0,0,0,209,188c.12-1.91,1.94-1.61,3.5-1.87,1.21-.2-2-3.27.45-4.26a2.16,2.16,0,0,0,1.18-.83,1.37,1.37,0,0,0-.53-1.69,3.25,3.25,0,0,0-1.86-.47c-.4-.49-.08-1.22.31-1.71s.86-1.06.71-1.68c-.22-.92-1.51-1-2.44-.77a6.69,6.69,0,0,1-.51-1.89c-.17-.64-.67-1.3-1.32-1.22s-1,.76-1.59.9-1.3-.45-1.85-.91-1.51-.75-1.89-.14c-.22.36-.09.87-.32,1.23-.41.62-1.37.24-2-.2s-1.56-.85-2-.23a2.55,2.55,0,0,0-.23.64c-.28.81-1.17,1.22-1.86,1.75s-1.23,1.56-.65,2.2c.29.32.8.45.94.85s-.34,1-.74,1.3c-.68.58-.8,2.3.09,2.77.38.2.93.26,1,.67s-.29.66-.54.95a1.78,1.78,0,0,0,.54,2.65c.22.1.48.18.56.41a.87.87,0,0,1,0,.5,2.6,2.6,0,0,0-.09,1,.45.45,0,0,0,.12.3.54.54,0,0,0,.28.08c1.3.06,1.92-.4,2.71.72a.67.67,0,0,0,.62.38c.89.07,1.47-.48,2.28-.59,1.13-.14,1.37.44,2.36.91C207.83,190.44,208.59,190,208.88,188.92Z" style="fill:#ebebeb"></path><path d="M201.83,184.27a5.53,5.53,0,0,0,.18-1.17c.14-2.43,2.46-2,4.44-2.37,1.54-.26-2.54-4.16.57-5.42a2.76,2.76,0,0,0,1.5-1,1.77,1.77,0,0,0-.68-2.16,4.1,4.1,0,0,0-2.36-.59c-.51-.62-.1-1.55.4-2.18s1.09-1.35.9-2.12c-.28-1.18-1.92-1.22-3.1-1a8.34,8.34,0,0,1-.64-2.4c-.22-.81-.86-1.65-1.68-1.55s-1.26,1-2,1.15-1.66-.57-2.35-1.16-1.92-1-2.4-.18c-.28.46-.11,1.11-.41,1.57-.52.79-1.74.3-2.5-.26s-2-1.07-2.51-.29a3.56,3.56,0,0,0-.3.81c-.36,1-1.48,1.56-2.35,2.22s-1.57,2-.83,2.81c.36.4,1,.56,1.19,1.07s-.43,1.21-.94,1.65c-.86.73-1,2.92.12,3.52.47.25,1.17.33,1.29.85s-.37.84-.69,1.2a2.27,2.27,0,0,0,.69,3.37c.27.13.61.23.71.52a1.14,1.14,0,0,1-.06.63,3.36,3.36,0,0,0-.11,1.22.56.56,0,0,0,.14.38.6.6,0,0,0,.37.11c1.64.07,2.43-.51,3.43.92a1.46,1.46,0,0,0,.34.36,1,1,0,0,0,.45.11c1.13.09,1.87-.61,2.9-.74,1.43-.18,1.74.55,3,1.15C200.5,186.2,201.46,185.62,201.83,184.27Z" style="fill:#ebebeb"></path><path d="M221.63,163.43a5.74,5.74,0,0,0,.18-1.18c.14-2.43,2.46-2,4.44-2.37,1.54-.26-2.54-4.16.57-5.42a2.71,2.71,0,0,0,1.5-1,1.78,1.78,0,0,0-.68-2.16,4.1,4.1,0,0,0-2.36-.59c-.51-.62-.1-1.55.4-2.18s1.09-1.34.9-2.12c-.28-1.17-1.92-1.22-3.1-1a8.34,8.34,0,0,1-.64-2.4c-.22-.8-.86-1.65-1.68-1.55s-1.26,1-2,1.16-1.66-.58-2.35-1.17-1.92-.95-2.4-.18c-.28.46-.11,1.11-.41,1.57-.52.79-1.74.3-2.5-.26s-2-1.07-2.51-.29a3.74,3.74,0,0,0-.3.81c-.36,1-1.48,1.56-2.35,2.22s-1.57,2-.83,2.81c.36.4,1,.56,1.19,1.07s-.43,1.21-.94,1.65c-.86.73-1,2.92.12,3.52.47.25,1.17.33,1.29.85s-.37.84-.69,1.2a2.27,2.27,0,0,0,.69,3.37c.27.13.61.23.71.52a1.18,1.18,0,0,1-.06.64,3.3,3.3,0,0,0-.11,1.21.6.6,0,0,0,.14.39.65.65,0,0,0,.36.1c1.65.07,2.44-.51,3.44.92a1.3,1.3,0,0,0,.34.36,1,1,0,0,0,.45.11c1.13.1,1.87-.61,2.9-.74,1.43-.18,1.73.56,3,1.15C220.3,165.35,221.26,164.78,221.63,163.43Z" style="fill:#ebebeb"></path><path d="M237.8,164.25a5.67,5.67,0,0,0,.17-1.17c.15-2.43,2.47-2.05,4.45-2.38,1.54-.25-2.55-4.15.56-5.41a2.75,2.75,0,0,0,1.51-1,1.76,1.76,0,0,0-.68-2.15,4.18,4.18,0,0,0-2.36-.6c-.51-.61-.1-1.54.39-2.17s1.09-1.35.91-2.12c-.28-1.18-1.92-1.22-3.11-1a8.77,8.77,0,0,1-.64-2.4c-.21-.81-.85-1.65-1.68-1.55s-1.25,1-2,1.15-1.65-.57-2.35-1.16-1.91-1-2.39-.18c-.29.46-.11,1.11-.41,1.57-.52.79-1.74.3-2.51-.27s-2-1.07-2.5-.29a3.21,3.21,0,0,0-.3.82c-.36,1-1.48,1.55-2.36,2.22s-1.56,2-.82,2.8c.36.4,1,.57,1.18,1.08s-.42,1.21-.94,1.65c-.86.73-1,2.92.12,3.52.48.25,1.18.32,1.3.85s-.38.84-.69,1.2a2.25,2.25,0,0,0,.69,3.36c.27.13.61.24.71.53a1.07,1.07,0,0,1-.07.63,3.36,3.36,0,0,0-.11,1.22.44.44,0,0,0,.51.48c1.64.08,2.43-.5,3.44.92a1.09,1.09,0,0,0,.34.37,1,1,0,0,0,.45.11c1.13.09,1.87-.61,2.9-.74,1.43-.19,1.73.55,3,1.14C236.46,166.18,237.43,165.6,237.8,164.25Z" style="fill:#ebebeb"></path><path d="M247.62,170.87a5.77,5.77,0,0,0,.17-1.17c.15-2.44,2.47-2,4.45-2.38,1.54-.26-2.55-4.16.56-5.41a2.8,2.8,0,0,0,1.51-1,1.78,1.78,0,0,0-.68-2.16,4.28,4.28,0,0,0-2.36-.59c-.51-.62-.1-1.55.39-2.18s1.09-1.34.91-2.12c-.28-1.17-1.92-1.21-3.11-1a8.58,8.58,0,0,1-.64-2.4c-.21-.8-.85-1.65-1.68-1.55s-1.25,1-2,1.16-1.65-.58-2.35-1.17-1.91-1-2.39-.18c-.29.47-.11,1.11-.41,1.57-.52.79-1.75.3-2.51-.26s-2-1.07-2.5-.29a3.28,3.28,0,0,0-.3.81c-.36,1-1.48,1.56-2.36,2.23s-1.56,2-.82,2.8c.36.4,1,.56,1.18,1.07s-.42,1.22-.94,1.65c-.86.74-1,2.92.12,3.52.48.25,1.18.33,1.3.86s-.38.83-.69,1.2a2.25,2.25,0,0,0,.69,3.36c.27.13.61.24.71.52a1.09,1.09,0,0,1-.07.64,3.34,3.34,0,0,0-.11,1.22.56.56,0,0,0,.15.38.63.63,0,0,0,.36.1c1.64.07,2.43-.51,3.44.92a1,1,0,0,0,.34.36,1.11,1.11,0,0,0,.45.12c1.13.09,1.87-.62,2.9-.75,1.43-.18,1.73.56,3,1.15C246.28,172.79,247.24,172.22,247.62,170.87Z" style="fill:#ebebeb"></path><path d="M198.76,171.58s.1.2.28.53h0c.37.71,1.12,2.07,2.14,3.7a46.05,46.05,0,0,0,3.67,5.08,19.5,19.5,0,0,0,5.52,4.82c.32.18.64.36.95.55,5.69,3.54,9.33,10.82,9.63,12.82.22,1.41.7,34.77,1,56.39.06,4.85.12,9.1.16,12.28h9.78c0-3.65,0-8.67,0-14.34-.14-13.82-.71-31.61-2.51-43.53.11-.61.2-1.31.31-2.11,1-7.59,8-19.06,9.46-20.9.41-.54,1-1.4,1.74-2.37,1.7-2.35,3.78-5.28,3.78-5.28l-.85-1.28-3.94,4.37-2.72,3,1.39-4.37,1.1-3.48.07-.23.2-.26,1.34-1.73,1.49-1.91L244,171.7l.65-.83-.85-.7-.81.89-1,1.1-2.85,3.11-.17-1.6-.22-2.22-.06-.46-.15-1.57h0l-.08-.68-.16-1.53h-1.86s.18.65.41,1.69c.09.45.21,1,.31,1.54h0c.58,3,1.13,7.34.14,9.51,0,0-1.12,2.54-2.69,5.75h0c-2.24,4.64-5.42,10.68-7.51,12.56a3.17,3.17,0,0,0-.52.63,37.44,37.44,0,0,0-4.11-7.71c.69-1.77,1.77-4.57,2.81-7.47h0c1.06-3,2.09-6,2.6-8.16.3-1.23.55-2.39.77-3.46.76-3.79,1-6.46,1-6.46l-1.4-.75s-.1.54-.3,1.47c-.15.7-.36,1.62-.62,2.7s-.55,2.2-.9,3.45l-.18.62h0c-.15.53-.31,1.06-.47,1.62a65.09,65.09,0,0,1-3.27,8.72,26.06,26.06,0,0,1-2.74,4.64,21.48,21.48,0,0,0-5.42-3.63,16.36,16.36,0,0,1-.32-3.27c0-.43,0-.89,0-1.38s.05-.91.1-1.4a41.44,41.44,0,0,1,1-5.86l-1.07-1a35,35,0,0,0-1.82,7.23s0,.07,0,.1a26.56,26.56,0,0,0-.26,4.23v.17a19.44,19.44,0,0,1-2.36-1.39,23.27,23.27,0,0,1-3.19-2.74s0,0,0,0a36.25,36.25,0,0,1-3.29-3.89c-.7-.94-1.26-1.8-1.67-2.44s-.76-1.26-.76-1.26Z" style="fill:#e6e6e6"></path><path d="M139.76,206.81a5.77,5.77,0,0,0,.17-1.18c.15-2.43,2.47-2,4.45-2.37,1.54-.26-2.55-4.16.56-5.42a2.73,2.73,0,0,0,1.51-1,1.78,1.78,0,0,0-.68-2.16,4.12,4.12,0,0,0-2.36-.59c-.51-.62-.1-1.55.39-2.18s1.09-1.34.91-2.12c-.28-1.17-1.92-1.22-3.11-1a8.67,8.67,0,0,1-.64-2.4c-.21-.8-.85-1.65-1.68-1.55s-1.25,1-2,1.16-1.65-.58-2.35-1.17-1.91-1-2.39-.18c-.29.47-.11,1.11-.41,1.57-.52.79-1.75.3-2.51-.26s-2-1.07-2.5-.29a3.28,3.28,0,0,0-.3.81c-.36,1-1.48,1.56-2.36,2.22s-1.56,2-.82,2.81c.36.4,1,.56,1.18,1.07s-.42,1.21-.94,1.65c-.86.73-1,2.92.12,3.52.48.25,1.18.33,1.3.86s-.38.83-.69,1.19a2.26,2.26,0,0,0,.69,3.37c.27.13.61.24.71.52a1.1,1.1,0,0,1-.07.64,3.3,3.3,0,0,0-.11,1.21.61.61,0,0,0,.15.39.63.63,0,0,0,.36.1c1.64.07,2.43-.51,3.44.92a1,1,0,0,0,.34.36,1,1,0,0,0,.45.11c1.13.1,1.87-.61,2.9-.74,1.43-.18,1.73.56,3,1.15C138.42,208.73,139.39,208.16,139.76,206.81Z" style="fill:#ebebeb"></path><path d="M120.86,204.76a5.57,5.57,0,0,0,.17-1.17c.15-2.43,2.47-2.05,4.44-2.37,1.55-.26-2.54-4.16.57-5.42a2.72,2.72,0,0,0,1.5-1,1.77,1.77,0,0,0-.67-2.16,4.13,4.13,0,0,0-2.37-.59c-.5-.62-.09-1.55.4-2.18s1.09-1.35.91-2.12c-.28-1.18-1.92-1.22-3.11-1a8.42,8.42,0,0,1-.64-2.4c-.21-.81-.85-1.65-1.68-1.55s-1.25,1-2,1.15-1.65-.57-2.35-1.16-1.91-1-2.39-.18c-.29.46-.12,1.11-.41,1.57-.52.79-1.75.3-2.51-.26s-2-1.07-2.51-.29a3.12,3.12,0,0,0-.29.81c-.36,1-1.48,1.56-2.36,2.22s-1.57,2-.83,2.81c.37.4,1,.56,1.19,1.07s-.42,1.21-.94,1.65c-.86.73-1,2.92.12,3.52.48.25,1.18.33,1.29.85s-.37.84-.69,1.2a2.27,2.27,0,0,0,.7,3.37c.27.13.6.23.71.52a1.06,1.06,0,0,1-.07.63,3.36,3.36,0,0,0-.11,1.22.52.52,0,0,0,.15.38.57.57,0,0,0,.36.11c1.64.07,2.43-.51,3.43.92a1.33,1.33,0,0,0,.35.36,1,1,0,0,0,.45.11c1.13.09,1.86-.61,2.9-.74,1.43-.18,1.73.55,3,1.15C119.52,206.69,120.48,206.11,120.86,204.76Z" style="fill:#ebebeb"></path><path d="M119,192.73a5.13,5.13,0,0,0,.18-1.18c.15-2.43,2.47-2,4.44-2.37,1.54-.26-2.54-4.16.57-5.42a2.67,2.67,0,0,0,1.5-1,1.76,1.76,0,0,0-.68-2.16,4.08,4.08,0,0,0-2.36-.59c-.51-.62-.09-1.55.4-2.18s1.09-1.34.9-2.12c-.28-1.17-1.92-1.22-3.1-1a8.34,8.34,0,0,1-.64-2.4c-.21-.8-.85-1.65-1.68-1.55s-1.26,1-2,1.16-1.66-.58-2.35-1.17-1.91-.95-2.39-.18c-.29.47-.12,1.11-.42,1.57-.51.79-1.74.3-2.5-.26s-2-1.07-2.51-.29a3.26,3.26,0,0,0-.29.81c-.36,1-1.49,1.56-2.36,2.22s-1.57,2-.83,2.81c.37.4,1,.56,1.19,1.07s-.43,1.21-.94,1.65c-.86.73-1,2.92.12,3.52.48.25,1.18.33,1.29.85s-.37.84-.69,1.2a2.27,2.27,0,0,0,.69,3.37c.28.13.61.24.71.52a1,1,0,0,1-.06.64,3.3,3.3,0,0,0-.11,1.21.56.56,0,0,0,.15.39.61.61,0,0,0,.36.1c1.64.07,2.43-.51,3.43.92a1.18,1.18,0,0,0,.34.36,1,1,0,0,0,.46.11c1.13.1,1.86-.61,2.89-.74,1.43-.18,1.74.56,3,1.15C117.7,194.65,118.66,194.08,119,192.73Z" style="fill:#ebebeb"></path><path d="M106.58,198.72a5.64,5.64,0,0,0,.18-1.17c.14-2.43,2.47-2.05,4.44-2.38,1.54-.25-2.54-4.15.57-5.41a2.72,2.72,0,0,0,1.5-1,1.75,1.75,0,0,0-.68-2.15,4.18,4.18,0,0,0-2.36-.6c-.51-.61-.09-1.54.4-2.17s1.09-1.35.9-2.12c-.28-1.18-1.92-1.22-3.1-1a8.42,8.42,0,0,1-.64-2.4c-.22-.81-.86-1.65-1.68-1.55s-1.26,1-2,1.15-1.66-.57-2.35-1.16-1.92-1-2.39-.18c-.29.46-.12,1.11-.42,1.57-.51.79-1.74.3-2.5-.27s-2-1.07-2.51-.29a3.19,3.19,0,0,0-.29.82c-.36,1-1.49,1.55-2.36,2.22s-1.57,2-.83,2.8c.37.4,1,.57,1.19,1.08s-.43,1.21-.94,1.65c-.86.73-1,2.92.12,3.52.47.25,1.17.32,1.29.85s-.37.84-.69,1.2a2.26,2.26,0,0,0,.69,3.36c.28.13.61.24.71.53a1.06,1.06,0,0,1-.06.63,3.36,3.36,0,0,0-.11,1.22.52.52,0,0,0,.15.38.55.55,0,0,0,.36.1c1.64.08,2.43-.5,3.43.92a1.34,1.34,0,0,0,.34.37,1,1,0,0,0,.46.11c1.12.09,1.86-.61,2.89-.74,1.43-.19,1.74.55,3,1.14C105.25,200.65,106.21,200.07,106.58,198.72Z" style="fill:#ebebeb"></path><path d="M94,196a5.67,5.67,0,0,0,.17-1.17c.15-2.43,2.47-2.05,4.45-2.38,1.54-.25-2.55-4.15.56-5.41a2.75,2.75,0,0,0,1.51-1.05,1.76,1.76,0,0,0-.68-2.15,4.18,4.18,0,0,0-2.36-.6c-.51-.61-.1-1.54.39-2.17s1.1-1.35.91-2.12c-.28-1.18-1.92-1.22-3.11-1a9.14,9.14,0,0,1-.64-2.4c-.21-.81-.85-1.65-1.68-1.55s-1.25,1-2,1.15-1.65-.57-2.35-1.16-1.91-1-2.39-.18c-.29.46-.11,1.11-.41,1.57-.52.79-1.74.3-2.51-.27s-2-1.07-2.5-.29a3.21,3.21,0,0,0-.3.82c-.36,1-1.48,1.55-2.36,2.22s-1.56,2-.82,2.8c.36.41,1,.57,1.18,1.08s-.42,1.21-.94,1.65c-.86.73-1,2.92.12,3.52.48.25,1.18.33,1.3.85s-.38.84-.69,1.2a2.25,2.25,0,0,0,.69,3.36c.27.13.61.24.71.53a1.07,1.07,0,0,1-.07.63,3.36,3.36,0,0,0-.11,1.22.62.62,0,0,0,.15.38.51.51,0,0,0,.36.1c1.64.08,2.43-.5,3.44.92a1.09,1.09,0,0,0,.34.37,1,1,0,0,0,.45.11c1.13.09,1.87-.61,2.9-.74,1.43-.18,1.73.55,3,1.15C92.66,197.88,93.63,197.3,94,196Z" style="fill:#ebebeb"></path><path d="M93.83,209.41a4.14,4.14,0,0,0,.14-.92c.12-1.91,1.94-1.61,3.5-1.87,1.21-.2-2-3.27.45-4.26a2.16,2.16,0,0,0,1.18-.83,1.39,1.39,0,0,0-.53-1.7,3.31,3.31,0,0,0-1.86-.46c-.4-.49-.08-1.22.31-1.71s.86-1.06.71-1.68c-.22-.92-1.51-.95-2.44-.77a6.69,6.69,0,0,1-.51-1.89c-.16-.64-.67-1.3-1.32-1.22s-1,.76-1.59.9-1.3-.45-1.85-.91-1.51-.75-1.88-.14c-.23.36-.1.87-.33,1.23-.41.62-1.37.24-2-.21s-1.55-.84-2-.22a2.55,2.55,0,0,0-.23.64c-.28.81-1.17,1.22-1.86,1.75s-1.23,1.56-.65,2.2c.29.32.8.45.94.85s-.34.95-.74,1.3c-.68.58-.8,2.3.09,2.77.38.2.93.26,1,.67s-.29.66-.54.95a1.78,1.78,0,0,0,.54,2.65c.22.1.48.18.56.41a.8.8,0,0,1,0,.5,2.6,2.6,0,0,0-.09,1,.45.45,0,0,0,.12.3.54.54,0,0,0,.28.08c1.3.05,1.92-.4,2.71.72a.67.67,0,0,0,.62.38c.89.07,1.47-.48,2.29-.59,1.12-.14,1.36.44,2.35.91C92.78,210.93,93.54,210.48,93.83,209.41Z" style="fill:#ebebeb"></path><path d="M86.78,204.76a5.53,5.53,0,0,0,.18-1.17c.14-2.43,2.47-2.05,4.44-2.37,1.54-.26-2.54-4.16.57-5.42a2.76,2.76,0,0,0,1.5-1,1.76,1.76,0,0,0-.68-2.16,4.1,4.1,0,0,0-2.36-.59c-.51-.62-.09-1.55.4-2.18s1.09-1.35.9-2.12c-.28-1.18-1.92-1.22-3.1-1a8.42,8.42,0,0,1-.64-2.4c-.22-.81-.86-1.65-1.68-1.55s-1.26,1-2,1.15-1.66-.57-2.35-1.16-1.92-1-2.39-.18c-.29.46-.12,1.11-.42,1.57-.51.79-1.74.3-2.5-.26s-2-1.07-2.51-.29a3.12,3.12,0,0,0-.29.81c-.36,1-1.49,1.56-2.36,2.22s-1.57,2-.83,2.81c.37.4,1,.56,1.19,1.07s-.43,1.21-.94,1.65c-.86.73-1,2.92.12,3.52.48.25,1.17.33,1.29.85s-.37.84-.69,1.2a2.27,2.27,0,0,0,.69,3.37c.28.13.61.23.71.52a1.06,1.06,0,0,1-.06.63,3.36,3.36,0,0,0-.11,1.22.52.52,0,0,0,.15.38.55.55,0,0,0,.36.11c1.64.07,2.43-.51,3.43.92a1.46,1.46,0,0,0,.34.36,1,1,0,0,0,.46.11c1.12.09,1.86-.61,2.89-.74,1.43-.18,1.74.55,3,1.15C85.45,206.69,86.41,206.11,86.78,204.76Z" style="fill:#ebebeb"></path><path d="M106.58,183.91a5.53,5.53,0,0,0,.18-1.17c.14-2.43,2.47-2,4.44-2.37,1.54-.26-2.54-4.16.57-5.42a2.71,2.71,0,0,0,1.5-1,1.76,1.76,0,0,0-.68-2.16,4.1,4.1,0,0,0-2.36-.59c-.51-.62-.09-1.55.4-2.18s1.09-1.34.9-2.12c-.28-1.17-1.92-1.22-3.1-1a8.34,8.34,0,0,1-.64-2.4c-.22-.8-.86-1.65-1.68-1.55s-1.26,1-2,1.15-1.66-.57-2.35-1.16-1.92-.95-2.39-.18c-.29.46-.12,1.11-.42,1.57-.51.79-1.74.3-2.5-.26s-2-1.07-2.51-.29a3.26,3.26,0,0,0-.29.81c-.36,1-1.49,1.56-2.36,2.22s-1.57,2-.83,2.81c.37.4,1,.56,1.19,1.07s-.43,1.21-.94,1.65c-.86.73-1,2.92.12,3.52.47.25,1.17.33,1.29.85s-.37.84-.69,1.2a2.27,2.27,0,0,0,.69,3.37c.28.13.61.23.71.52a1.06,1.06,0,0,1-.06.63,3.36,3.36,0,0,0-.11,1.22.52.52,0,0,0,.15.38.55.55,0,0,0,.36.11c1.64.07,2.43-.51,3.43.92a1.3,1.3,0,0,0,.34.36,1,1,0,0,0,.46.11c1.12.1,1.86-.61,2.89-.74,1.43-.18,1.74.56,3,1.15C105.25,185.84,106.21,185.27,106.58,183.91Z" style="fill:#ebebeb"></path><path d="M122.75,184.74a6.4,6.4,0,0,0,.18-1.17c.14-2.43,2.46-2,4.44-2.38,1.54-.25-2.55-4.15.57-5.41a2.76,2.76,0,0,0,1.5-1.05,1.76,1.76,0,0,0-.68-2.15,4.18,4.18,0,0,0-2.36-.6c-.51-.61-.1-1.54.39-2.17s1.1-1.35.91-2.13c-.28-1.17-1.92-1.21-3.11-1a9.14,9.14,0,0,1-.64-2.4c-.21-.81-.85-1.65-1.68-1.55s-1.25,1-2,1.15-1.66-.57-2.36-1.16-1.91-1-2.39-.18c-.29.46-.11,1.11-.41,1.56-.52.8-1.74.31-2.5-.26s-2-1.07-2.51-.29a3.21,3.21,0,0,0-.3.82c-.36,1-1.48,1.55-2.36,2.22s-1.56,2-.82,2.8c.36.4,1,.57,1.19,1.08s-.43,1.21-1,1.65c-.86.73-1,2.92.12,3.52.48.25,1.18.32,1.3.85s-.37.84-.69,1.2a2.26,2.26,0,0,0,.69,3.36c.27.13.61.24.71.53a1.07,1.07,0,0,1-.07.63,3.59,3.59,0,0,0-.11,1.22.62.62,0,0,0,.15.38.58.58,0,0,0,.36.1c1.64.08,2.44-.5,3.44.92a1.09,1.09,0,0,0,.34.37,1,1,0,0,0,.45.11c1.13.09,1.87-.61,2.9-.74,1.43-.19,1.73.55,3,1.14C121.42,186.67,122.38,186.09,122.75,184.74Z" style="fill:#ebebeb"></path><path d="M132.57,191.36a6.54,6.54,0,0,0,.18-1.17c.14-2.44,2.46-2.05,4.44-2.38,1.54-.26-2.55-4.16.57-5.41a2.81,2.81,0,0,0,1.5-1.05,1.78,1.78,0,0,0-.68-2.16,4.26,4.26,0,0,0-2.36-.59c-.51-.62-.1-1.55.39-2.18s1.1-1.34.91-2.12c-.28-1.17-1.92-1.21-3.11-1a9,9,0,0,1-.64-2.4c-.21-.8-.85-1.65-1.68-1.55s-1.25,1-2,1.16-1.65-.58-2.35-1.17-1.91-.95-2.39-.18c-.29.47-.11,1.11-.41,1.57-.52.79-1.74.3-2.51-.26s-2-1.07-2.5-.29a3.28,3.28,0,0,0-.3.81c-.36,1-1.48,1.56-2.36,2.23s-1.56,2-.82,2.8c.36.4,1,.56,1.19,1.07s-.43,1.22-1,1.65c-.86.74-1,2.92.12,3.52.48.25,1.18.33,1.3.86s-.38.83-.69,1.2a2.26,2.26,0,0,0,.69,3.36c.27.13.61.24.71.52a1.09,1.09,0,0,1-.07.64,3.34,3.34,0,0,0-.11,1.22.64.64,0,0,0,.15.38.65.65,0,0,0,.36.1c1.64.07,2.44-.51,3.44.92a1,1,0,0,0,.34.36,1.16,1.16,0,0,0,.45.12c1.13.09,1.87-.62,2.9-.75,1.43-.18,1.73.56,3,1.15C131.23,193.28,132.2,192.71,132.57,191.36Z" style="fill:#ebebeb"></path><path d="M83.7,192.07l.28.54.67,1.24c.33.56.71,1.23,1.18,2,.09.16.19.32.3.49l.33.53.39.59c.08.11.15.23.24.34l.06.11.46.66c.16.22.32.46.5.68l.31.44.45.58c.18.24.37.47.56.7a1.19,1.19,0,0,0,.15.18,2,2,0,0,0,.22.27,19.79,19.79,0,0,0,5.52,4.82c.33.17.65.35,1,.55a14.27,14.27,0,0,1,1.21.82,26.2,26.2,0,0,1,6.27,7.2h0l.25.43,0,0c.21.37.41.73.59,1.07a13.12,13.12,0,0,1,1.29,3.27c0,.29.1,2,.16,4.74.13,5.1.27,13.7.41,23.17,0,.82,0,1.66,0,2.49l0,1.62c.09,5.39.16,10.94.24,16.17h10c-.15-7.94-.46-16.62-1-24.51-.35-4.68-.79-9.07-1.38-12.87.1-.61.21-1.31.31-2.11,0-.11,0-.21,0-.32a27.23,27.23,0,0,1,1.41-5.24h0c.18-.51.38-1,.58-1.54,0-.1.09-.21.14-.31.1-.26.2-.52.32-.77s.27-.65.41-1c.06-.12.11-.23.16-.35h0c.2-.43.39-.85.6-1.27.1-.22.21-.43.31-.65h0c.86-1.76,1.75-3.41,2.56-4.83l.46-.78a44,44,0,0,1,2.41-3.78.24.24,0,0,1,.06-.08.48.48,0,0,1,.09-.11c.38-.52.94-1.27,1.55-2.12l.09-.12.56-.78.45-.62.47-.67c.79-1.08,1.5-2.07,1.92-2.67l.39-.56-.66-1-.19-.28-1.14,1.26h0l-2.8,3.1-2.71,3,1.37-4.37,1-3.06.13-.42.07-.23.21-.27,1.34-1.71h0l1.48-1.9,1.27-1.65.65-.83-.85-.71-.82.89-1,1.11-2.85,3.11-.17-1.59-.23-2.23,0-.45-.16-1.56h0l-.08-.7-.15-1.53h-1.86s.17.65.41,1.69c.09.45.2,1,.31,1.54h0a33.52,33.52,0,0,1,.67,6.43,8.16,8.16,0,0,1-.54,3.07s-1.12,2.54-2.69,5.75h0c0,.06-.05.11-.07.16h0c-.18.34-.35.69-.52,1-.34.7-.71,1.41-1.08,2.13s-.71,1.37-1.08,2-.66,1.21-1,1.78a41.06,41.06,0,0,1-2.27,3.6l-.2.28q-.27.38-.54.69a7,7,0,0,1-.77.82l-.1.12a2.59,2.59,0,0,0-.42.51c-.09-.23-.19-.45-.27-.67a.61.61,0,0,1,0-.12c-.65-1.48-1.28-2.8-1.92-4-.26-.46-.51-.89-.76-1.3h0a.66.66,0,0,1-.12-.17.31.31,0,0,1-.06-.13c-.31-.48-.61-.93-.92-1.36l.09-.2c.24-.63.52-1.38.84-2.21h0l.49-1.28h0c.45-1.18.92-2.47,1.39-3.76h0c1.06-3,2.09-6,2.6-8.16.29-1.23.55-2.39.77-3.46.75-3.79,1-6.46,1-6.46l-1.39-.75s-.11.54-.31,1.47c-.15.7-.36,1.62-.62,2.7s-.55,2.19-.89,3.45h0l-.18.62h0c-.15.53-.3,1.06-.48,1.62a64.58,64.58,0,0,1-3.27,8.72,25.72,25.72,0,0,1-2.74,4.63,20.33,20.33,0,0,0-4.71-3.26c-.23-.13-.47-.24-.7-.36a17.28,17.28,0,0,1-.31-3.28h0c0-.42,0-.87,0-1.36s.06-.91.1-1.4.09-.95.17-1.46a39.33,39.33,0,0,1,.84-4.4l-1.07-1a32.44,32.44,0,0,0-1.13,3.72,30.87,30.87,0,0,0-.68,3.51.38.38,0,0,0,0,.1,25.42,25.42,0,0,0-.26,4.24v.17a21.84,21.84,0,0,1-2.36-1.4,23.41,23.41,0,0,1-2.81-2.36c-.12-.13-.25-.25-.38-.38a33.63,33.63,0,0,1-2.7-3.11c-.21-.27-.42-.54-.6-.8q-.53-.69-.93-1.29c-.17-.27-.34-.51-.49-.74h0l-.25-.4c-.5-.77-.76-1.26-.76-1.26Z" style="fill:#e6e6e6"></path><rect x="217.49" y="107.55" width="2.67" height="163.28" style="fill:#e0e0e0"></rect><rect x="167.35" y="107.55" width="2.67" height="163.28" style="fill:#e0e0e0"></rect><rect x="117.21" y="107.55" width="2.67" height="163.28" style="fill:#e0e0e0"></rect><circle cx="367.88" cy="132.46" r="22.51" transform="translate(-20.59 88.06) rotate(-13.28)" style="fill:#e0e0e0"></circle><circle cx="367.88" cy="132.46" r="19.14" transform="translate(-16.47 60.64) rotate(-9.22)" style="fill:#f0f0f0"></circle><polyline points="368.78 119.34 368.78 132.71 377.64 127.7" style="fill:#f0f0f0;stroke:#e0e0e0;stroke-linecap:round;stroke-linejoin:round;stroke-width:2px"></polyline><path d="M322.39,272.23h81.95a16.09,16.09,0,0,1,16.1,16.09v64H306.29v-64A16.09,16.09,0,0,1,322.39,272.23Z" style="fill:#e6e6e6"></path><path d="M282.06,319.66h14.67a9.56,9.56,0,0,1,9.56,9.56v52.92H272.5V329.22A9.56,9.56,0,0,1,282.06,319.66Z" style="fill:#e0e0e0"></path><path d="M282.06,319.66h.31a9.56,9.56,0,0,1,9.57,9.56v52.92H272.5V329.22A9.56,9.56,0,0,1,282.06,319.66Z" style="fill:#ebebeb"></path><rect x="296.03" y="357.83" width="112.47" height="24.31" style="fill:#e6e6e6"></rect><rect x="286.15" y="335.6" width="127.91" height="25.51" rx="9.72" style="fill:#f5f5f5"></rect><rect x="380.98" y="335.6" width="32.9" height="25.51" rx="9.72" style="fill:#e0e0e0;isolation:isolate"></rect><path d="M405.61,319.66h14.67a9.56,9.56,0,0,1,9.56,9.56v52.92H396.05V329.22A9.56,9.56,0,0,1,405.61,319.66Z" style="fill:#e0e0e0"></path><path d="M405.61,319.66h.31a9.56,9.56,0,0,1,9.56,9.56v52.92H396.05V329.22A9.56,9.56,0,0,1,405.61,319.66Z" style="fill:#f0f0f0"></path></g><g id="freepik--Shadow--inject-45"><ellipse id="freepik--path--inject-45" cx="250" cy="416.24" rx="193.89" ry="11.32" style="fill:#f5f5f5"></ellipse></g><g id="freepik--Plant--inject-45"><path d="M104.37,371.19s7.76-9.23,12.72-4.93,2.45,13.44-3.27,13.73a14.41,14.41,0,0,1-9.45-2.89Z" style="fill:#23D07E"></path><path d="M104.37,371.19s7.76-9.23,12.72-4.93,2.45,13.44-3.27,13.73a14.41,14.41,0,0,1-9.45-2.89Z" style="fill:#fff;opacity:0.2;isolation:isolate"></path><path d="M72.74,347.78S66.23,341,62.2,342.12,58.59,359.57,71.09,353Z" style="fill:#23D07E"></path><path d="M72.74,347.78S66.23,341,62.2,342.12,58.59,359.57,71.09,353Z" style="fill:#fff;opacity:0.30000000000000004;isolation:isolate"></path><path d="M96,398.68s21.4-29.28,4-35.21S79.56,387,84.53,395.23,96,398.68,96,398.68Z" style="fill:#23D07E"></path><path d="M86.08,338.74S72.8,307.92,92.47,307s21.8,30.56-.83,35.13Z" style="fill:#23D07E"></path><path d="M96,398.68s21.4-29.28,4-35.21S79.56,387,84.53,395.23,96,398.68,96,398.68Z" style="fill:#fff;opacity:0.30000000000000004;isolation:isolate"></path><path d="M86.08,338.74S72.8,307.92,92.47,307s21.8,30.56-.83,35.13Z" style="fill:#fff;opacity:0.30000000000000004;isolation:isolate"></path><path d="M90.79,364s6.45-27.22-6-29.39-24.65,22.42,1,34.78C85.85,369.37,90.25,366.64,90.79,364Z" style="fill:#23D07E"></path><path d="M90.79,364s6.45-27.22-6-29.39-24.65,22.42,1,34.78C85.85,369.37,90.25,366.64,90.79,364Z" style="fill:#fff;opacity:0.2;isolation:isolate"></path><polygon points="111.4 394.52 75.48 394.52 78.48 417.51 108.4 417.51 111.4 394.52" style="fill:#263238"></polygon><path d="M92.72,336.54c.8-.84,1.58-1.68,2.29-2.59a30.16,30.16,0,0,0,2.06-2.74,32,32,0,0,0,3.21-6,21.26,21.26,0,0,0,1.44-6.58l0-1.7c-.05-.57-.14-1.13-.2-1.7,0-.28,0-.57-.08-.85l-.2-.83c-.14-.56-.27-1.12-.39-1.69a16.58,16.58,0,0,1,1.6,6.78,18.28,18.28,0,0,1-1.28,6.93,24.73,24.73,0,0,1-3.52,6.08A25.25,25.25,0,0,1,92.72,336.54Z" style="fill:#23D07E"></path><path d="M97.43,310.09a16.21,16.21,0,0,0-9.13,9l-.57,1.54c-.17.52-.26,1.06-.4,1.59a27.4,27.4,0,0,0-.56,3.26c-.11,1.1-.11,2.22-.16,3.33s.09,2.23.09,3.37c-.23-1.1-.39-2.22-.58-3.34s-.13-2.27-.11-3.41a19.7,19.7,0,0,1,1.37-6.72,15.17,15.17,0,0,1,4-5.59,14.79,14.79,0,0,1,2.83-1.94A12.52,12.52,0,0,1,97.43,310.09Z" style="fill:#23D07E"></path><path d="M82.39,336.54a11.61,11.61,0,0,0-3.51,2.78,12.46,12.46,0,0,0-2.3,3.78,15,15,0,0,0-1,4.29,6.67,6.67,0,0,0,0,1.09c0,.36,0,.73,0,1.09a13,13,0,0,0,.46,2.13,24.83,24.83,0,0,0,4.22,7.81A43.33,43.33,0,0,0,83.16,363c1,1.14,2.07,2.21,3.16,3.27A38,38,0,0,1,79.67,360a28.78,28.78,0,0,1-2.7-3.75A19.57,19.57,0,0,1,75.09,352a13.91,13.91,0,0,1-.47-2.31,11.82,11.82,0,0,1,0-1.19,6.57,6.57,0,0,1,.06-1.18,14.33,14.33,0,0,1,1.23-4.5A11.65,11.65,0,0,1,82.39,336.54Z" style="fill:#23D07E"></path><path d="M86.08,338.74c-.16,1.05-.33,2.09-.42,3.14a29.89,29.89,0,0,0-.2,3.13,19.6,19.6,0,0,0,.2,3.08,6.88,6.88,0,0,0,.93,2.79,11,11,0,0,1,.79,1.45,10,10,0,0,1,.54,1.57,15.43,15.43,0,0,1,.4,3.23,24.09,24.09,0,0,1-.69,6.34c.05-1.06.09-2.11.07-3.16a27.4,27.4,0,0,0-.15-3.14,12,12,0,0,0-1.81-5.76,7.76,7.76,0,0,1-1-3.19,15.36,15.36,0,0,1,0-3.25A24.45,24.45,0,0,1,86.08,338.74Z" style="fill:#23D07E"></path><path d="M94.81,366.26a3.17,3.17,0,0,0-1.13,1.17A10,10,0,0,0,93,368.9,23.72,23.72,0,0,0,91.9,372q-.87,3.18-1.53,6.44c-.46,2.16-.86,4.34-1.27,6.51-.21,1.09-.4,2.18-.58,3.28s-.37,2.18-.53,3.29a43.79,43.79,0,0,1,.35-6.68c.24-2.22.61-4.42,1-6.61a48.68,48.68,0,0,1,1.78-6.46,23.63,23.63,0,0,1,1.35-3.1,10.14,10.14,0,0,1,1-1.4A2.93,2.93,0,0,1,94.81,366.26Z" style="fill:#23D07E"></path><path d="M100.89,367.21a18.83,18.83,0,0,1,1.78,6,19.4,19.4,0,0,1-.24,6.31,10.22,10.22,0,0,1-.39,1.54c-.16.51-.29,1-.49,1.51a19.87,19.87,0,0,1-3.3,5.38,10.48,10.48,0,0,1-1.1,1.11c-.38.36-.76.72-1.15,1.06a28.83,28.83,0,0,0,3.43-5.1,20.09,20.09,0,0,0,2-5.7,23,23,0,0,0,.44-6A28,28,0,0,0,100.89,367.21Z" style="fill:#23D07E"></path><path d="M67.69,351.11a4.17,4.17,0,0,1-1.78.29,5.16,5.16,0,0,1-1.8-.4,4.15,4.15,0,0,1-1.51-1.08,3.21,3.21,0,0,1-.79-1.66,11.14,11.14,0,0,0,1.31,1.08,8.85,8.85,0,0,0,1.39.75A27.69,27.69,0,0,0,67.69,351.11Z" style="fill:#23D07E"></path><path d="M69,346.61l-1.59-.74a9.86,9.86,0,0,0-1.53-.57,5.22,5.22,0,0,0-1.52-.22,6.28,6.28,0,0,0-1.64.37,2.71,2.71,0,0,1,1.5-1.14,3.75,3.75,0,0,1,1.94,0,4.73,4.73,0,0,1,1.66.88A4.31,4.31,0,0,1,69,346.61Z" style="fill:#23D07E"></path><path d="M107.92,372.56a7.87,7.87,0,0,1,1.44-2.09,8.36,8.36,0,0,1,2-1.62,4.57,4.57,0,0,1,2.58-.69,3,3,0,0,1,2.29,1.21,4,4,0,0,0-2.27-.43,5.47,5.47,0,0,0-2.11.78A36.68,36.68,0,0,0,107.92,372.56Z" style="fill:#23D07E"></path><path d="M107.92,377.1a48.41,48.41,0,0,0,5.75-.43,8.14,8.14,0,0,0,2.61-.83,4,4,0,0,0,1.83-2,3.35,3.35,0,0,1-1.4,2.67,6.35,6.35,0,0,1-2.87,1.16,12.16,12.16,0,0,1-3,.1A11.16,11.16,0,0,1,107.92,377.1Z" style="fill:#23D07E"></path></g><g id="freepik--Form--inject-45"><path d="M139,135.45a7.78,7.78,0,1,0-15.56,0Z" style="fill:#23D07E"></path><path d="M296.78,417.51h-150a7.78,7.78,0,0,1-7.78-7.78V135.45a7.78,7.78,0,0,0-7.78-7.79h150a7.78,7.78,0,0,1,7.78,7.79V409.73A7.78,7.78,0,0,0,296.78,417.51Z" style="fill:#23D07E"></path><path d="M296.78,417.51h-150a7.78,7.78,0,0,1-7.78-7.78V135.45a7.78,7.78,0,0,0-7.78-7.79h150a7.78,7.78,0,0,1,7.78,7.79V409.73A7.78,7.78,0,0,0,296.78,417.51Z" style="fill:#fff;opacity:0.7000000000000001;isolation:isolate"></path><path d="M146.78,417.51a7.78,7.78,0,0,0,7.78-7.78h150a7.78,7.78,0,0,1-7.78,7.78Z" style="fill:#23D07E"></path><rect x="140.71" y="141.38" width="146.44" height="19.78" style="fill:#23D07E"></rect><path d="M182.12,146.65H144.67a.92.92,0,0,1-.92-.92h0a.92.92,0,0,1,.92-.92h37.45a.92.92,0,0,1,.92.92h0A.92.92,0,0,1,182.12,146.65Z" style="fill:#fff;opacity:0.7000000000000001;isolation:isolate"></path><path d="M152.12,150.35h-7.45a.93.93,0,0,1-.92-.93h0a.92.92,0,0,1,.92-.92h7.45a.92.92,0,0,1,.92.92h0A.93.93,0,0,1,152.12,150.35Z" style="fill:#fff;opacity:0.7000000000000001;isolation:isolate"></path><path d="M282.12,157.73H244.67a.92.92,0,0,1-.92-.92h0a.93.93,0,0,1,.92-.93h37.45a.93.93,0,0,1,.92.93h0A.92.92,0,0,1,282.12,157.73Z" style="fill:#fff;opacity:0.7000000000000001;isolation:isolate"></path><g style="isolation:isolate"><path d="M183.12,331.65H145.67a.92.92,0,0,1-.92-.92h0a.92.92,0,0,1,.92-.92h37.45a.92.92,0,0,1,.92.92h0A.92.92,0,0,1,183.12,331.65Z" style="opacity:0.2;isolation:isolate"></path><rect x="144.75" y="334.13" width="136.92" height="65.65" style="fill:#fff;opacity:0.8;isolation:isolate"></rect></g><g style="isolation:isolate"><path d="M183.12,211.65H145.67a.92.92,0,0,1-.92-.92h0a.92.92,0,0,1,.92-.92h37.45a.92.92,0,0,1,.92.92h0A.92.92,0,0,1,183.12,211.65Z" style="opacity:0.2;isolation:isolate"></path><rect x="144.75" y="214.13" width="136.92" height="29.39" style="fill:#fff;opacity:0.8;isolation:isolate"></rect></g><path d="M146.78,417.51a7.78,7.78,0,0,0,7.78-7.78h150a7.78,7.78,0,0,1-7.78,7.78Z" style="fill:#fff;opacity:0.30000000000000004;isolation:isolate"></path><path d="M139,135.45a7.78,7.78,0,1,0-15.56,0Z" style="fill:#fff;opacity:0.30000000000000004;isolation:isolate"></path><path d="M227.42,196.31a1,1,0,0,1-.72-.29,1.71,1.71,0,0,1-.16-1.79,4.71,4.71,0,0,1,1.66-2.1,2.42,2.42,0,0,0-1.87-1.24c-1.27-.2-2.46.92-3.73,2.11-1.66,1.55-3.54,3.31-5.86,1.87-1-.59-1.33-1.79-1.14-3.53l-.83.62c-1.59,1.17-5.42,3.81-6.54,3.09-.9-.58-.72-1.81-.55-2.89.08-.59.2-1.4,0-1.61s-.31-.1-.43-.09c-.85,0-2.37,1.11-3.84,2.12-2.49,1.72-5.06,3.5-6.95,2.77s-1.75-2.37-1.69-3.72c0-1.19,0-1.94-.64-2.23s-3.65,1.6-5.72,3c-3.13,2.16-5.84,4-7.25,3.21a2,2,0,0,1-.91-1.32,19.56,19.56,0,0,1-6.12,1.55,2.46,2.46,0,0,1-2-.68c-1.32-1.34-1.08-4.36-.85-7.29.18-2.26.38-4.82-.36-5.6a.76.76,0,0,0-.67-.25c-3.39.08-12.8,10.2-16.14,14.09l-.76-.65c1.26-1.47,12.43-14.34,16.88-14.44a1.81,1.81,0,0,1,1.42.56c1,1.11.85,3.55.63,6.37-.21,2.58-.44,5.49.56,6.51a1.48,1.48,0,0,0,1.23.38,18.53,18.53,0,0,0,6.12-1.61.76.76,0,0,1,0-.15c.16-1.85,1.42-4.31,2.86-4.84a1.59,1.59,0,0,1,1.74.4,1.66,1.66,0,0,1,.39,1.83c-.43,1.15-2,2.38-4,3.38a1.15,1.15,0,0,0,.47.9c.87.51,3.94-1.62,6.18-3.18,3.34-2.3,5.46-3.67,6.69-3.13s1.29,2,1.24,3.19c-.06,1.43,0,2.33,1,2.75,1.39.54,4-1.23,6-2.66,1.73-1.19,3.22-2.23,4.34-2.3a1.47,1.47,0,0,1,1.24.41c.52.57.38,1.52.24,2.44s-.24,1.67.11,1.9c.65.12,3.92-1.76,7.1-4.35,0-.21.11-.42.18-.64,1-3.39,3.75-8.4,5.57-8.4h0c.31,0,.88.15,1.13,1.06.69,2.52-3.32,6.32-6,8.52-.4,1.87-.23,3.16.5,3.62,1.56,1,2.79,0,4.65-1.75,1.38-1.3,2.82-2.64,4.57-2.36A3.39,3.39,0,0,1,229,191.6a9.45,9.45,0,0,1,3.68-1c5-.43,5.55,2.49,5.81,3.9a4.85,4.85,0,0,0,.12.58c.89-.12,5.6-3.24,8.43-5.51a1.73,1.73,0,0,1,2.27,0,4.73,4.73,0,0,1,1.34,2.05,5.05,5.05,0,0,1,4.33.55c3.92,2.45,14,2.67,18.23-.39l.58.81c-4.6,3.34-15.13,3.06-19.34.43a4,4,0,0,0-3.53-.43,4.1,4.1,0,0,1-.11,2.39,1.42,1.42,0,0,1-1.67.84,1.43,1.43,0,0,1-1.27-1.08,2.68,2.68,0,0,1,1.41-2.44,4.87,4.87,0,0,1,.45-.27,3.82,3.82,0,0,0-1-1.67.73.73,0,0,0-1,0c-.08.07-8.06,6.31-9.52,5.65-.44-.2-.54-.72-.65-1.32-.27-1.45-.63-3.44-4.74-3.08a8.42,8.42,0,0,0-3.39,1,3.34,3.34,0,0,1,.09.52,3,3,0,0,1-1.62,3.17A1.54,1.54,0,0,1,227.42,196.31Zm1.08-3.13a3.63,3.63,0,0,0-1,1.37c-.18.45-.12.71-.08.76a.26.26,0,0,0,.14,0A2,2,0,0,0,228.5,193.18ZM250,193l-.12.08c-.72.5-1.08,1.11-1,1.42s.28.25.48.29a.43.43,0,0,0,.57-.27A2.84,2.84,0,0,0,250,193Zm-66.38-3.83a.69.69,0,0,0-.24.05c-.87.32-1.86,2-2.15,3.52a6.49,6.49,0,0,0,3-2.58.65.65,0,0,0-.15-.77A.66.66,0,0,0,183.64,189.17Zm38-7.35c-.82,0-3.13,3.28-4.36,6.86a27.24,27.24,0,0,0,2-2c1.87-2,2.75-3.61,2.49-4.57C221.74,181.94,221.67,181.83,221.62,181.82Z" style="fill:#23D07E"></path><path d="M204.81,234.52a1.77,1.77,0,0,1-1.71-.78c-.71-1.24.63-3.45,2.18-6,1.07-1.77,2.54-4.2,2.13-4.87-.11-.18-.46-.26-1-.22-3.91.26-9.5,5.25-12.31,8.49a2.79,2.79,0,0,1,.21,1.21,2.23,2.23,0,0,1-2.17,2.17.75.75,0,0,1-.8-.74,5.88,5.88,0,0,1,1.54-2.77c-.56-.74-1.74-1.41-3.78-1.69a9.54,9.54,0,0,0-6.07,1.35,4.56,4.56,0,0,1-.43,2.37,2.41,2.41,0,0,1-2.13,1.48,1.08,1.08,0,0,1-1.07-.55c-.17-.31-.23-.88.41-1.78a8.5,8.5,0,0,1,2.11-2,1.62,1.62,0,0,0-.25-.51,1.06,1.06,0,0,0-1.11-.38,22.22,22.22,0,0,0-4.16,1.65c-3.44,1.58-7.71,3.56-12,3.56a2.66,2.66,0,0,1-2.7-2,7,7,0,0,1-.12-2.82c-3.52,2.39-6.91,4.33-7.66,4.75l-.49-.87c2-1.1,5.29-3.12,8.42-5.29.85-3.46,3.06-7.37,5.07-8.72a2.35,2.35,0,0,1,2.94-.1,1.72,1.72,0,0,1,.66,1.53c-.18,2.08-3.91,5.2-7.81,7.93a6.85,6.85,0,0,0,0,3.3,1.63,1.63,0,0,0,1.74,1.29c4,0,8.19-1.92,11.54-3.47a22.6,22.6,0,0,1,4.4-1.72,2,2,0,0,1,2.09.76,2.62,2.62,0,0,1,.32.57,10.3,10.3,0,0,1,6.45-1.33,6.69,6.69,0,0,1,4.29,1.91c3.17-3.6,9.06-8.34,12.81-8.59a1.9,1.9,0,0,1,1.92.7c.72,1.19-.6,3.38-2.14,5.91-1.09,1.79-2.58,4.25-2.16,5,.12.22.52.27.84.27,2.57,0,5.58-1.39,7.69-2.87a3.58,3.58,0,0,1-.59-.89,2.56,2.56,0,0,1,.38-2.77,2.58,2.58,0,0,1,2.75-.71,1.41,1.41,0,0,1,1.14,1.62,5.47,5.47,0,0,1-2,2.78c1.09.66,3,1.28,6.46,1.28,6.57,0,8.47-2.26,10-4.08,1.06-1.27,2.07-2.47,4.27-2.47.37,0,1.48,0,1.86.75s-.45,2.06-1.38,3.31c-.45.6-1.39,1.84-1.25,2.12,0,0,.13.15.77.15,2.41,0,4-1.53,5.5-3,1.18-1.15,2.3-2.24,3.72-2.46a1.72,1.72,0,0,1,1.43.31,3.07,3.07,0,0,1,.67,2.39c0,1.55.16,2.18,1.16,2.18,1.79,0,4.73-1.44,6.49-2.63a1.67,1.67,0,0,1,0-1.78,1.42,1.42,0,0,1,1.5-.46c.95.16,1,.8.95,1a2.66,2.66,0,0,1-1.08,1.47c.86.94,2.68,2,5.78,2,6.39,0,9.28-3.35,9.31-3.38l.77.64c-.13.15-3.2,3.74-10.08,3.74-3.35,0-5.51-1.17-6.58-2.41-2.09,1.43-5.37,2.8-7.05,2.8-2.08,0-2.12-1.89-2.16-3.15,0-.67,0-1.43-.31-1.66a.81.81,0,0,0-.64-.08c-1.1.17-2.06,1.11-3.17,2.19-1.59,1.55-3.38,3.3-6.2,3.3-.32,0-1.31,0-1.66-.7s.4-1.92,1.34-3.17c.5-.67,1.45-1.93,1.28-2.26,0,0-.11-.2-1-.2-1.73,0-2.48.88-3.5,2.11-1.66,2-3.73,4.44-10.77,4.44-3.88,0-6.07-.76-7.31-1.62C210.92,233.05,207.54,234.52,204.81,234.52Zm-24.51-1a1.3,1.3,0,0,0,.18,0,1.44,1.44,0,0,0,1.23-.93,3.52,3.52,0,0,0,.34-1.24,8.47,8.47,0,0,0-1.06,1c-.6.67-.7,1.07-.69,1.18Zm13-1.4a8.21,8.21,0,0,0-.9,1.38,1.29,1.29,0,0,0,.9-1.2A1.08,1.08,0,0,0,193.32,232.1Zm20.87-4.95a1.5,1.5,0,0,0-1.15.5,1.52,1.52,0,0,0-.21,1.7,2.38,2.38,0,0,0,.48.68,5,5,0,0,0,1.88-2.28c0-.15.06-.36-.44-.52A2.23,2.23,0,0,0,214.19,227.15Zm40.74.08c-.15,0-.26,0-.3.09a.65.65,0,0,0,0,.58,2.44,2.44,0,0,0,.59-.63l-.09,0A.93.93,0,0,0,254.93,227.23ZM168.61,220a2,2,0,0,0-1.08.4c-1.63,1.1-3.43,4.11-4.36,7,3.4-2.45,6.27-5,6.4-6.48a.69.69,0,0,0-.29-.67A1,1,0,0,0,168.61,220Z" style="fill:#23D07E"></path><path d="M154.22,275.74c-1.6-1.6-1.24-4.51.93-7.4,2.39-3.2,6.42-5.56,9.49-3.88a4.32,4.32,0,0,1,2.11,2.44,8.13,8.13,0,0,1,4.06.09,6.26,6.26,0,0,1,2.66,1.58,7.85,7.85,0,0,1,4.74-2,1.88,1.88,0,0,1,1.72.66c.43.69,0,1.58-.42,2.44-.28.56-.65,1.33-.49,1.58,0,.07.24.27,1.12.27a7.78,7.78,0,0,0,4.34-1.66,7.11,7.11,0,0,1,1.41-4.26,1.87,1.87,0,0,1,1.9-.79,1.17,1.17,0,0,1,.87,1.4c-.15,1.07-1.4,2.78-3.14,4.15a3,3,0,0,0,.18.64,1.16,1.16,0,0,0,1.17.71,7.14,7.14,0,0,0,4.37-1.89c1-.74,1.83-1.37,2.8-1.27a1.18,1.18,0,0,1,.84.42,1.51,1.51,0,0,1,.1,1.23c-.07.39-.11.66,0,.82s.53.4,1.86.4a12,12,0,0,0,7.46-3.12l.7.71a12.87,12.87,0,0,1-8.16,3.41c-1.37,0-2.2-.24-2.63-.76A1.89,1.89,0,0,1,194,270a2,2,0,0,0,.06-.44l-.13,0c-.57-.08-1.27.46-2.09,1.07a8.1,8.1,0,0,1-5,2.09,2.17,2.17,0,0,1-2.07-1.29,2.23,2.23,0,0,1-.16-.43,8.53,8.53,0,0,1-4.5,1.53c-1,0-1.66-.24-2-.73-.46-.73,0-1.66.43-2.56.22-.47.61-1.25.47-1.47,0,0-.14-.19-.87-.19a6.85,6.85,0,0,0-4.16,1.8,2.78,2.78,0,0,1,.28,1.68,2.41,2.41,0,0,1-2.3,2.06.93.93,0,0,1-1-1,5.11,5.11,0,0,1,1.71-2.89,5.37,5.37,0,0,0-2.24-1.3,7,7,0,0,0-3.54-.06,2.75,2.75,0,0,1,0,.41,6.91,6.91,0,0,1-3.27,5.65,3.26,3.26,0,0,1-3.4.09,1.93,1.93,0,0,1-.83-2.65c.8-1.72,3.49-3.45,6.31-4.24a3.36,3.36,0,0,0-1.62-1.81c-2.54-1.38-6.13.83-8.21,3.61-1.41,1.88-2.51,4.6-1,6.09ZM166,268.12c-2.55.75-5,2.34-5.59,3.68a.94.94,0,0,0,.44,1.37,2.28,2.28,0,0,0,2.38-.1A5.89,5.89,0,0,0,166,268.3Zm7.3,2a6.32,6.32,0,0,0-.54.64c-.67.87-.73,1.34-.71,1.42a1.52,1.52,0,0,0,1.32-1.28A1.63,1.63,0,0,0,173.27,270.11Zm14.15-4.35a1.22,1.22,0,0,0-.77.49,5.92,5.92,0,0,0-1.12,2.76,6.55,6.55,0,0,0,2.14-2.94c0-.25,0-.27-.14-.3Z" style="fill:#23D07E"></path><path d="M183.12,171.65H145.67a.92.92,0,0,1-.92-.92h0a.92.92,0,0,1,.92-.92h37.45a.92.92,0,0,1,.92.92h0A.92.92,0,0,1,183.12,171.65Z" style="opacity:0.2;isolation:isolate"></path><rect x="144.75" y="174.13" width="136.92" height="29.39" style="fill:#fff;opacity:0.8;isolation:isolate"></rect><path d="M183.12,251.65H145.67a.92.92,0,0,1-.92-.92h0a.92.92,0,0,1,.92-.92h37.45a.92.92,0,0,1,.92.92h0A.92.92,0,0,1,183.12,251.65Z" style="opacity:0.2;isolation:isolate"></path><rect x="144.75" y="254.13" width="66.92" height="29.39" style="fill:#fff;opacity:0.8;isolation:isolate"></rect><path d="M253.12,251.65H215.67a.92.92,0,0,1-.92-.92h0a.92.92,0,0,1,.92-.92h37.45a.92.92,0,0,1,.92.92h0A.92.92,0,0,1,253.12,251.65Z" style="opacity:0.2;isolation:isolate"></path><rect x="214.75" y="254.13" width="66.92" height="29.39" style="fill:#fff;opacity:0.8;isolation:isolate"></rect><path d="M183.12,291.65H145.67a.92.92,0,0,1-.92-.92h0a.92.92,0,0,1,.92-.92h37.45a.92.92,0,0,1,.92.92h0A.92.92,0,0,1,183.12,291.65Z" style="opacity:0.2;isolation:isolate"></path><rect x="144.75" y="294.13" width="66.92" height="29.39" style="fill:#fff;opacity:0.8;isolation:isolate"></rect><path d="M253.12,291.65H215.67a.92.92,0,0,1-.92-.92h0a.92.92,0,0,1,.92-.92h37.45a.92.92,0,0,1,.92.92h0A.92.92,0,0,1,253.12,291.65Z" style="opacity:0.2;isolation:isolate"></path><rect x="214.75" y="294.13" width="66.92" height="29.39" style="fill:#fff;opacity:0.8;isolation:isolate"></rect></g><g id="freepik--Character--inject-45"><path d="M376.82,290.13l-1.58,4.78-1.89,5.73L370,310.7l-.59,1.81L366,322.93l-5.86,17.75c-.81,27.15-15.68,63.88-15.68,63.88l-5.28-1.44c1.93-26.62,7.16-58.74,11.59-82.83q1-5.67,2-10.67c.31-1.58.6-3.1.89-4.56.47-2.38.91-4.6,1.32-6.63.83-4.12,1.52-7.46,2-9.82.54-2.57.85-4,.85-4Z" style="fill:#e4897b"></path><path d="M403.91,285l-1.22,8.17L401.08,304l-.18,1.21-.35,2.35-1.22,8.18L396,337.65c3.82,26.89-4.58,65.62-4.58,65.62l-5.45-.52c-2.85-28.87-3-64.82-2.57-89.79.06-3.87.13-7.49.21-10.77,0-.1,0-.21,0-.31v-.17c.16-6.5.33-11.67.45-14.94.11-2.57.16-4,.16-4Z" style="fill:#e4897b"></path><path d="M357.84,284.63l19,5.5-1.58,4.78-1.89,5.73L355,298.43c.83-4.12,1.52-7.46,2-9.82C357.53,286,357.84,284.63,357.84,284.63Z" style="opacity:0.2;isolation:isolate"></path><path d="M403.91,285l-1.22,8.17L401.08,304l-17.42-2.09v-.17c.16-6.5.33-11.67.45-14.94.11-2.57.16-4,.16-4Z" style="opacity:0.2;isolation:isolate"></path><path d="M378.7,201.85s-7.66,11-10.56,12.91-23.64.38-23.64.38l-1.06,4.51s21.29,3.9,25.76,1.51,15.69-14.8,15.69-14.8Z" style="fill:#e4897b"></path><path d="M378.7,201.85s-7.66,11-10.56,12.91-23.64.38-23.64.38l-1.06,4.51s21.29,3.9,25.76,1.51,15.69-14.8,15.69-14.8Z" style="opacity:0.2;isolation:isolate"></path><path d="M350.19,214.5l.69,7.43s27,3.32,29.88,1.74,5.4-16.22,5.4-16.22l-12.13-1s-9.8,7.24-10.9,8.1S350.19,214.5,350.19,214.5Z" style="fill:#23D07E"></path><path d="M350.19,214.5l.69,7.43s27,3.32,29.88,1.74,5.4-16.22,5.4-16.22l-12.13-1s-9.8,7.24-10.9,8.1S350.19,214.5,350.19,214.5Z" style="fill:#fff;opacity:0.6000000000000001;isolation:isolate"></path><path d="M344.5,215.14a17.19,17.19,0,0,0-4.08-3.27,15.86,15.86,0,0,0-5.29-1.17l-.85,5.84a28.13,28.13,0,0,0,4.26,2.77c1.51.64,4.9.34,4.9.34Z" style="fill:#e4897b"></path><path d="M344.5,215.14a17.19,17.19,0,0,0-4.08-3.27,15.86,15.86,0,0,0-5.29-1.17l-.85,5.84a28.13,28.13,0,0,0,4.26,2.77c1.51.64,4.9.34,4.9.34Z" style="opacity:0.2;isolation:isolate"></path><polygon points="255.85 266.25 253.7 266.62 254.91 264.81 260 261.5 260.93 262.94 255.85 266.25" style="fill:#263238"></polygon><polygon points="255.85 266.25 253.7 266.62 254.91 264.81 260 261.5 260.93 262.94 255.85 266.25" style="fill:#fff;opacity:0.7000000000000001;isolation:isolate"></polygon><path d="M415.48,167.05l-5.31-8.16-19.86,11.74-122.86,80h0c-2.42,1.57-9.19,9.21-11.14,12.55l1.55,2.39c3.85-.43,13.58-3.54,16-5.11l122.87-80Z" style="fill:#23D07E"></path><path d="M390.31,170.64l-122.86,80c-2.42,1.57-9.2,9.21-11.15,12.56l1.56,2.38a53.7,53.7,0,0,0,8.53-2.13,40.59,40.59,0,0,0,7.46-3l122.86-80,1.48-1.06,17.29-12.36-5.31-8.16-18.3,10.83Z" style="opacity:0.2;isolation:isolate"></path><rect x="285.49" y="219.42" width="12.33" height="44.97" rx="1.25" transform="translate(248.14 618.31) rotate(-123.08)" style="fill:#263238"></rect><path d="M273.91,260.46l-.06,0c-2.41,1.57-12.14,4.68-16,5.11l-1.56-2.38a53.14,53.14,0,0,1,5.4-6.94,39.8,39.8,0,0,1,5.75-5.62l.06,0Z" style="opacity:0.2;isolation:isolate"></path><polygon points="398.18 179.41 391.87 169.72 410.17 158.89 415.48 167.05 398.18 179.41" style="opacity:0.2;isolation:isolate"></polygon><path d="M396.65,180.51l-81.13,52.84-.7-1.07a3.25,3.25,0,0,1,.95-4.5l75.68-49.29a3.26,3.26,0,0,1,4.5.95Z" style="opacity:0.1;isolation:isolate"></path><path d="M390.24,170.68l-81.12,52.85.69,1.07a3.26,3.26,0,0,0,4.5,1L390,176.25a3.26,3.26,0,0,0,.95-4.5Z" style="opacity:0.1;isolation:isolate"></path><g style="opacity:0.2;isolation:isolate"><path d="M413.1,163.39,397,173.87a.5.5,0,0,1-.55-.84l16.08-10.48Z"></path></g><g style="opacity:0.2;isolation:isolate"><path d="M399,176.87a.51.51,0,0,1-.7-.12h0a.51.51,0,0,1,.13-.68l15.67-11.15.54.84Z"></path><path d="M411.56,161,395,170.86a.52.52,0,0,1-.68-.16,0,0,0,0,1,0,0,.49.49,0,0,1,.17-.68L411,160.19Z"></path></g><path d="M352.5,175.34a.25.25,0,0,1-.18-.08,3.53,3.53,0,0,0-3-.76.25.25,0,0,1-.29-.19.25.25,0,0,1,.19-.3,4,4,0,0,1,3.46.91.25.25,0,0,1,0,.35A.23.23,0,0,1,352.5,175.34Z" style="fill:#263238"></path><path d="M351.06,178.9a15.43,15.43,0,0,1-1.86,3.17,2,2,0,0,0,2,.67Z" style="fill:#de5753"></path><path d="M349.64,177c0,.6.38,1.06.78,1s.69-.52.66-1.12-.39-1.06-.79-1S349.6,176.42,349.64,177Z" style="fill:#263238"></path><path d="M350.46,175.91l-1.32-.43S349.85,176.53,350.46,175.91Z" style="fill:#263238"></path><path d="M367.37,188.12l-.21.2a10.79,10.79,0,0,1-3.51,2.36c-3.86,1.47-6.65,1.3-8.67-.26h0c-2.86-2.36-4.14-7.06-4.58-12.88a21.66,21.66,0,0,1,.33-6.91v-.11c0-.07,0-.18.07-.26a7.94,7.94,0,0,1,5.12-5.6,16.77,16.77,0,0,1,3.36-.86C370.51,162.14,375.11,180.5,367.37,188.12Z" style="fill:#e4897b"></path><path d="M367.16,188.32a10.6,10.6,0,0,1-3.53,2.2c-3.86,1.47-6.67,1.17-8.7-.41a11.34,11.34,0,0,0,7.06-1.57A5.94,5.94,0,0,1,367.16,188.32Z" style="opacity:0.2;isolation:isolate"></path><path d="M363.29,160.27s-7.79-.87-11.54,2.74c-4.37,4.2-5.71,8.11.83,13,0,0,12.08-5.84,16.4-5.55a44.86,44.86,0,0,1,7.5,1.1C376.21,163.08,367.26,158,363.29,160.27Z" style="fill:#263238"></path><path d="M361.67,191.14a5,5,0,0,1,2.09,7.39L380,194s-7.71-3.37-8.33-8.8C371.69,185.18,363.14,184.49,361.67,191.14Z" style="fill:#e4897b"></path><path d="M350.7,170.55s.47,8,8.42,10.34c0,0,4.34,7.76,9.08,7.22,6.47-.73,10.89-10.68,7.37-19.72C371,156.68,352.51,158.22,350.7,170.55Z" style="fill:#263238"></path><path d="M355,179.15c-.17-1.23.53-3.44,2.49-3.42s3.79,4.75-.93,6.51C355.9,182.49,355.37,181.72,355,179.15Z" style="fill:#e4897b"></path><path d="M403.14,233.14s11.78,27.52.77,67.42L353.3,296c6.62-32.38,15.58-50.07,15.58-50.07l1.6-16.29Z" style="fill:#23D07E"></path><path d="M363.08,195a15.49,15.49,0,0,1,12.11-6.86l4.15,4.39Z" style="fill:#23D07E"></path><path d="M395.87,239.39l-18.1,1.89v-4.11l17.57-1.74C395.47,236.43,395.69,238.07,395.87,239.39Z" style="fill:#263238"></path><polygon points="376.36 237.31 376.36 241.43 368.87 242.21 368.87 238.05 376.36 237.31" style="fill:#263238"></polygon><polygon points="396.77 235.29 404.38 234.54 405.34 238.4 397.49 239.22 396.77 235.29" style="fill:#263238"></polygon><path d="M319.75,230.2a17.29,17.29,0,0,0-4.69-2.3,16.08,16.08,0,0,0-5.42,0l.43,5.9a28.07,28.07,0,0,0,4.77,1.78c1.6.29,4.86-.73,4.86-.73Z" style="fill:#e4897b"></path><path d="M403.14,233.14l-33.37,3.74L353.18,199.5s11.55-9.95,32.94-6.74C386.12,192.76,393.78,196.17,403.14,233.14Z" style="fill:#23D07E"></path><path d="M403.14,233.14l-33.37,3.74-7.88-17.76-3.35-7.53-5.36-12.09s11.55-9.95,32.94-6.74C386.12,192.76,393.78,196.17,403.14,233.14Z" style="fill:#fff;opacity:0.7000000000000001;isolation:isolate"></path><path d="M361.89,219.12l-3.35-7.53a5.94,5.94,0,0,1,1.27-1.76A9.65,9.65,0,0,1,361.89,219.12Z" style="opacity:0.2;isolation:isolate"></path><path d="M350.27,209.83s-5.1,12.4-7.52,14.89-23,5.48-23,5.48l-.05,4.64s21.62-.8,25.47-4.1,12.12-17.83,12.12-17.83Z" style="fill:#e4897b"></path><path d="M353.18,199.5c-2.86,2.59-9.61,24.67-10.43,25.22s-19.17,4.88-19.17,4.88,2.07,6.37,2.06,6,18.46-1.42,20.7-2.27,14.4-20.1,14.4-20.1a42.75,42.75,0,0,0-3.45-9.62C355.18,199.93,353.18,199.5,353.18,199.5Z" style="fill:#23D07E"></path><path d="M353.18,199.5c-2.86,2.59-9.61,24.67-10.43,25.22s-19.17,4.88-19.17,4.88,2.07,6.37,2.06,6,18.46-1.42,20.7-2.27,14.4-20.1,14.4-20.1a42.75,42.75,0,0,0-3.45-9.62C355.18,199.93,353.18,199.5,353.18,199.5Z" style="fill:#fff;opacity:0.7000000000000001;isolation:isolate"></path><polygon points="322.54 229.68 324.22 228.65 326.79 236.07 324.22 236.07 322.54 229.68" style="fill:#23D07E"></polygon><path d="M351.75,163s1.71-5.2,14.37-4.12S381,167.87,380,174s2.72,13.19,7.33,16.89,7.78,10.54-4.09,12.65-20.86-2.86-23.68-11.65S355.47,180,355.47,180C348.07,179.41,339.68,163.67,351.75,163Z" style="fill:#263238"></path><path d="M330.52,415.87a10,10,0,0,1,3.14-1.7h0s3.41-3.39,5-13.57l4.46-1.16a3.78,3.78,0,0,1,4.06,1.58,2.16,2.16,0,0,1,.29.59,26.13,26.13,0,0,1,.48,3.31,93.66,93.66,0,0,1,.06,11.18h-.81l-.32-7c-.12-2.38-1.94.41-2.46,3s-1.64,5.3-6.86,5.42C331.51,417.6,329,417.37,330.52,415.87Z" style="fill:#263238"></path><path d="M347.39,401.1a36.43,36.43,0,0,1,1.25-5.41H337.86s1.2,4.71.21,8.25C343.06,402.62,347.39,401.1,347.39,401.1Z" style="fill:#263238"></path><path d="M376.52,415.87a10,10,0,0,1,3.14-1.7h0s3.41-3.39,5-13.57l4.46-1.16a3.78,3.78,0,0,1,4.06,1.58,2.16,2.16,0,0,1,.29.59,26.13,26.13,0,0,1,.48,3.31,93.66,93.66,0,0,1,.06,11.18h-.81l-.32-7c-.12-2.38-1.94.41-2.46,3s-1.64,5.3-6.86,5.42C377.51,417.6,375,417.37,376.52,415.87Z" style="fill:#263238"></path><path d="M393.39,401.1a36.43,36.43,0,0,1,1.25-5.41H383.86s1.2,4.71.21,8.25C389.06,402.62,393.39,401.1,393.39,401.1Z" style="fill:#263238"></path></g></svg>