<svg xmlns="http://www.w3.org/2000/svg" viewBox="0 0 750 500"><g id="freepik--Character--inject-359"><path d="M360.63,447.83l-3.3-53.91-8.55-88.25L309.9,345.62s13,101.1,15.89,102.11Z" style="fill:#b78876"></path><polygon points="207.9 244.08 224.14 237.98 275.14 237.98 292.44 245.15 276.91 282.22 252.89 287.31 226.8 278.07 217.07 266.17 207.9 244.08" style="fill:#b78876"></polygon><path d="M214.32,136.52c1.87-7.56,4.1-15.14,8.15-21.8s10.12-12.36,17.6-14.53,16.24-1.71,23.58.58c6.05,1.9,10.2,5.16,14.44,8.85,6.89,6,10.45,15.34,13.37,24" style="fill:#23D07E"></path><path d="M214.81,136.64l-1-.24c1.81-7.37,4.06-15.14,8.2-21.94,4.55-7.48,10.91-12.72,17.89-14.75a42.91,42.91,0,0,1,23.86.59c6.26,2,10.49,5.34,14.63,8.94,7,6.06,10.5,15.28,13.51,24.2l-.94.32c-3-8.79-6.44-17.87-13.23-23.77-4.05-3.52-8.2-6.84-14.26-8.74a41.91,41.91,0,0,0-23.29-.58c-6.74,2-12.89,7-17.31,14.31C218.83,121.67,216.61,129.34,214.81,136.64Z" style="fill:#23D07E"></path><path d="M296.36,134.2a33.38,33.38,0,0,0-12.62-21.14c-6.64-5-15-7.26-23.32-7.9-13-1-28.12,2.54-37,12-8.6,9.16-14.07,22.36-13,33.92.49,5.2,5.54,19.28,9.53,22.67l74.27-1.92C298.69,164.71,297.7,142.51,296.36,134.2Z" style="fill:#23D07E"></path><path d="M219.79,174.27l-.15-.12c-4.22-3.58-9.22-18-9.7-23-1.08-11.22,4.07-24.69,13.09-34.3,9.7-10.34,25.7-13.07,37.43-12.17,9.59.73,17.53,3.42,23.59,8a33.87,33.87,0,0,1,12.81,21.46c1.25,7.8,2.45,30.55-2.2,38l-.14.22h-.27Zm36.43-68.76c-10.9,0-24.1,3.11-32.46,12-8.84,9.42-13.87,22.58-12.83,33.53.47,4.87,5.33,18.68,9.22,22.21l73.8-1.9c4-6.9,3.38-28,1.92-37.08a32.79,32.79,0,0,0-12.43-20.82c-5.9-4.46-13.66-7.08-23.05-7.8C259.05,105.56,257.65,105.51,256.22,105.51Z" style="fill:#23D07E"></path><path d="M295,149.77a41,41,0,0,0-40.84-37.83H252c-22.92,1.29-34.63,21.47-32.7,44.35L223.4,262h52.53l-.46-34.39s22-3.39,22.35-25.41C298,191.53,296.51,169.6,295,149.77Z" style="fill:#b78876"></path><path d="M275.65,227.54s-14.07.82-28.85-8.5c0,0,6.76,15.86,28.74,13.93Z" style="fill:#995037"></path><path d="M286.37,167.17a3.14,3.14,0,0,1-3,3.17,3,3,0,0,1-3.23-2.85,3.14,3.14,0,0,1,3-3.17A3,3,0,0,1,286.37,167.17Z" style="fill:#263238"></path><path d="M290.19,160.53c-.39.41-2.77-1.36-6.15-1.35s-5.87,1.69-6.24,1.27c-.18-.18.22-.92,1.3-1.71a8.7,8.7,0,0,1,5-1.53,8.3,8.3,0,0,1,4.9,1.6C290,159.61,290.39,160.35,290.19,160.53Z" style="fill:#263238"></path><path d="M253.82,168.68a3.14,3.14,0,0,1-3,3.17,3,3,0,0,1-3.23-2.85,3.14,3.14,0,0,1,3-3.17A3,3,0,0,1,253.82,168.68Z" style="fill:#263238"></path><path d="M256.88,162.22c-.39.41-2.78-1.35-6.16-1.35s-5.87,1.69-6.23,1.27c-.18-.18.21-.92,1.3-1.71a8.57,8.57,0,0,1,5-1.52,8.23,8.23,0,0,1,4.9,1.59C256.72,161.3,257.07,162,256.88,162.22Z" style="fill:#263238"></path><path d="M269.15,186.23c0-.2,2.09-.56,5.5-1,.87-.08,1.68-.25,1.83-.84a4.35,4.35,0,0,0-.57-2.57l-2.54-6.58c-3.53-9.38-6.09-17.09-5.71-17.23s3.55,7.35,7.08,16.73l2.44,6.62a5.08,5.08,0,0,1,.44,3.4,2.2,2.2,0,0,1-1.43,1.26,6,6,0,0,1-1.47.2C271.29,186.41,269.16,186.42,269.15,186.23Z" style="fill:#263238"></path><path d="M259.19,188.55c.55,0,.55,3.64,3.68,6.25s7.06,2.22,7.08,2.74c.05.23-.87.71-2.52.75a9.15,9.15,0,0,1-5.91-2.07,8,8,0,0,1-2.86-5.25C258.52,189.43,258.93,188.52,259.19,188.55Z" style="fill:#263238"></path><path d="M258.62,154.56c-.33.92-3.71.52-7.68,1s-7.16,1.64-7.7.82c-.24-.4.31-1.27,1.6-2.17a13.47,13.47,0,0,1,11.71-1.42C258,153.4,258.76,154.12,258.62,154.56Z" style="fill:#263238"></path><path d="M291,150.75c-.64.84-3.56.33-7,.64s-6.26,1.15-7,.42c-.34-.36,0-1.17,1.23-2a11.36,11.36,0,0,1,5.55-1.83,11,11,0,0,1,5.72,1C290.82,149.6,291.3,150.35,291,150.75Z" style="fill:#263238"></path><path d="M222.58,172.6c-.37-.16-15.12-4.5-14.67,10.56s15.47,11.5,15.49,11.06S222.58,172.6,222.58,172.6Z" style="fill:#b78876"></path><path d="M220,188.66c-.07,0-.25.19-.69.4a2.59,2.59,0,0,1-2,.1c-1.61-.53-3-3-3.18-5.73a8.73,8.73,0,0,1,.62-3.78,3,3,0,0,1,1.92-2.07,1.33,1.33,0,0,1,1.57.67c.21.42.12.72.2.74s.32-.26.18-.88a1.7,1.7,0,0,0-.62-.92,1.94,1.94,0,0,0-1.46-.34,3.66,3.66,0,0,0-2.67,2.41,8.82,8.82,0,0,0-.79,4.23c.19,3,1.83,5.82,4,6.39a2.83,2.83,0,0,0,2.39-.47C219.94,189,220,188.68,220,188.66Z" style="fill:#995037"></path><path d="M232.45,127.84l7.45-6.43L263.58,125l16.62-4.28,4.37,4.81c-1.87,2.5,2.11-8.23-1.68-11.1-8.16-6.19-15.06-6-25.3-6.15s-31.09,12.3-38.51,19.36c-5.93,5.65-5.9,10.54-5.9,10.54-.94,8.15,3.62,17.4,5.43,25.4.93,4.12,2.74,16.59,2.74,16.59h0c3.46,0,4.75-2.76,4.22-6.18l-.65-13.42s11.77-8.37,6.19-23.67C230.22,135.71,228.31,130.11,232.45,127.84Z" style="fill:#263238"></path><path d="M229.38,131.42c1.34-4.3,6-7,10.51-6.91s8.71,2.4,12,5.47a14.2,14.2,0,0,0,2.69,2.21,3.57,3.57,0,0,0,3.35.21c.31-.17.64-.42,1-.33a1.13,1.13,0,0,1,.56.5,9.25,9.25,0,0,0,3.48,3.3,3.85,3.85,0,0,0,4.47-.67,5.77,5.77,0,0,0,9.67-4.27c2,.67,4.1-.53,5.48-2.08a11.15,11.15,0,0,0-2.77-17.07,19.86,19.86,0,0,0-7.28-2.1,91.58,91.58,0,0,0-11.93-.9,14.66,14.66,0,0,0-5.2.62c-2.28.82-4.19,2.69-6.6,3a11.68,11.68,0,0,1-4.58-.73,18.13,18.13,0,0,0-6.63-1c-4.41.39-8.06,3.56-11,6.88-2.05,2.35-4,5-4.62,8s.3,6.62,2.95,8.26a3.88,3.88,0,0,0,3.5.47,2.32,2.32,0,0,0,1.25-3" style="fill:#263238"></path><path d="M219,165.88c-1.63-11.49.32-25.36,8.7-35.26s23.23-15.9,33-14c7.66,1.46,24.29,2,30.37,18.06l-.85-13.22s-7.41-15-29.23-14.55-31.37,3-41.93,15.87-7.43,23.8-6,29.35S219,165.88,219,165.88Z" style="fill:#23D07E"></path><path d="M219.86,168.53l-1.32-2.41c-.18-.34-4.56-8.37-6-13.91l-.1-.4c-1.48-5.81-4.25-16.63,6.23-29.39,10.77-13.12,20.44-15.61,42.3-16s29.62,14.68,29.69,14.83l.05.19,1.07,16.53-1.18-3.1c-5.27-13.87-18.85-16-27-17.24-1.12-.17-2.14-.33-3.05-.5-9.89-1.88-24.49,4.33-32.56,13.86-7.25,8.57-10.46,21.61-8.58,34.87Zm42.08-61.17H261c-21.51.43-31,2.87-41.55,15.69-10.15,12.36-7.47,22.86-6,28.51l.1.39a64.47,64.47,0,0,0,4.63,11.28c-1.14-12.59,2.19-24.75,9.13-32.94,8.27-9.78,23.31-16.15,33.51-14.21.89.17,1.91.33,3,.5,7.79,1.21,20.5,3.19,26.58,15.26l-.66-10.29C289.12,120.38,281.63,107.36,261.94,107.36Z" style="fill:#23D07E"></path><path d="M279.12,110.14a6.15,6.15,0,0,1-.8-.28c-.52-.18-1.26-.51-2.25-.84a53.9,53.9,0,0,0-8.54-2.2,59.63,59.63,0,0,0-13-.77,53,53,0,0,0-15.63,3.12,50.42,50.42,0,0,0-13.79,8,38.49,38.49,0,0,0-5,4.88c-.73.81-1.34,1.68-2,2.48s-1.14,1.63-1.62,2.43a46.53,46.53,0,0,0-3.87,7.92c-.39,1-.62,1.75-.82,2.26a3.79,3.79,0,0,1-.31.78,8.06,8.06,0,0,1,.21-.81c.17-.53.36-1.32.73-2.3a43.82,43.82,0,0,1,3.74-8c.48-.81,1-1.62,1.61-2.47s1.23-1.7,2-2.53a38.53,38.53,0,0,1,5-5,50.25,50.25,0,0,1,13.92-8.09,52.46,52.46,0,0,1,15.79-3.11,59.09,59.09,0,0,1,13.12.88,51.48,51.48,0,0,1,8.55,2.37c1,.37,1.71.73,2.22,1A4.73,4.73,0,0,1,279.12,110.14Z" style="fill:#263238"></path><path d="M220.43,146.55s-.26-.07-.67-.31a10.86,10.86,0,0,1-1.64-1.19,13.43,13.43,0,0,1-4.48-12.1,11,11,0,0,1,.47-2c.16-.46.28-.69.31-.68s-.25,1-.41,2.69a14.26,14.26,0,0,0,4.36,11.79C219.57,145.94,220.48,146.48,220.43,146.55Z" style="fill:#263238"></path><path d="M226.8,133.34a5.78,5.78,0,0,1-1.9-1.38,12,12,0,0,1-3-4.8,10.86,10.86,0,0,1-.44-5.65,6,6,0,0,1,.76-2.22c.09,0-.21.88-.4,2.28a11.91,11.91,0,0,0,.57,5.43,13.33,13.33,0,0,0,2.79,4.7C226.12,132.75,226.85,133.27,226.8,133.34Z" style="fill:#263238"></path><path d="M237.14,123.69a5.28,5.28,0,0,1-1.61-1.11,12.7,12.7,0,0,1-2.89-3.72,11.35,11.35,0,0,1-1.24-4.55,4.78,4.78,0,0,1,.16-1.94,17.35,17.35,0,0,0,1.54,6.26C234.74,121.84,237.27,123.55,237.14,123.69Z" style="fill:#263238"></path><path d="M247.1,106.64a5.15,5.15,0,0,1,1,1.45,19.57,19.57,0,0,1,1.5,3.9,18.41,18.41,0,0,1,.58,4.14,4.79,4.79,0,0,1-.12,1.72c-.17,0-.16-2.63-1-5.73S247,106.72,247.1,106.64Z" style="fill:#263238"></path><path d="M266.27,106.27a4.31,4.31,0,0,1,.76,1.55,11.2,11.2,0,0,1,.54,4.14,11,11,0,0,1-1,4.05,4.16,4.16,0,0,1-.93,1.46,19.31,19.31,0,0,0,1.42-5.54A19.26,19.26,0,0,0,266.27,106.27Z" style="fill:#263238"></path><path d="M278.58,109.74a4.5,4.5,0,0,1,1,1.58,11.43,11.43,0,0,1,.24,8.89,4.52,4.52,0,0,1-.94,1.63,17.07,17.07,0,0,0,1.2-6.09A17,17,0,0,0,278.58,109.74Z" style="fill:#263238"></path><path d="M290.41,120.11a3.09,3.09,0,0,1,.27,1.49,10,10,0,0,1-2.41,6.79c-.62.71-1.1,1-1.14,1a19.45,19.45,0,0,0,2.49-4.34A19,19,0,0,0,290.41,120.11Z" style="fill:#263238"></path><path d="M296.42,133a7.3,7.3,0,0,1-4,6,34.65,34.65,0,0,0,2.36-2.77C295.91,134.63,296.26,133,296.42,133Z" style="fill:#263238"></path><path d="M297.23,147.56c.13,0,0,.91-.79,1.61s-1.68.74-1.68.61.68-.4,1.33-1S297.08,147.52,297.23,147.56Z" style="fill:#263238"></path><path d="M218.87,159.55a11.12,11.12,0,0,1-8.23-5.63,32.34,32.34,0,0,0,3.75,3.36A31.59,31.59,0,0,0,218.87,159.55Z" style="fill:#263238"></path><path d="M220.08,166.85c.1.1-.74.86-2.08.93a2.5,2.5,0,0,1-2.18-.68c.07-.13,1,.25,2.15.16S220,166.72,220.08,166.85Z" style="fill:#263238"></path><g style="opacity:0.30000000000000004"><path d="M277.32,109.62a42.24,42.24,0,0,0-32.44-5.9c-11,2.55-21,10.4-26.7,20.15,0,0,13.62-17.23,33.12-17.83S277.32,109.62,277.32,109.62Z"></path></g><path d="M262.26,167.66a23.29,23.29,0,0,0-.45-2.71,11.21,11.21,0,0,0-4.09-6.06,11,11,0,0,0-10.42-1.54,11,11,0,0,0-5.08,3.83,10.94,10.94,0,0,0,0,13,10.47,10.47,0,0,0,2.32,2.33,10.24,10.24,0,0,0,2.77,1.5,11.09,11.09,0,0,0,14.51-7.6,23.29,23.29,0,0,0,.45-2.71,8.61,8.61,0,0,1-.25,2.76,11.16,11.16,0,0,1-4.07,6.3,11.33,11.33,0,0,1-10.8,1.7,11.42,11.42,0,0,1-5.34-4,11.42,11.42,0,0,1,0-13.56,11.42,11.42,0,0,1,5.34-4,11.33,11.33,0,0,1,10.8,1.7,11.16,11.16,0,0,1,4.07,6.3A8.61,8.61,0,0,1,262.26,167.66Z" style="fill:#455a64"></path><path d="M295.79,166.34a20.81,20.81,0,0,0-.45-2.71,11.15,11.15,0,0,0-4.09-6.06A11,11,0,0,0,280.84,156a10.29,10.29,0,0,0-2.78,1.5,10.43,10.43,0,0,0-2.31,2.33,10.92,10.92,0,0,0,0,13,11,11,0,0,0,5.09,3.83,11.09,11.09,0,0,0,14.5-7.59,20.77,20.77,0,0,0,.45-2.72,8.67,8.67,0,0,1-.25,2.77,11.3,11.3,0,0,1-8.85,8.46,11.4,11.4,0,0,1-6-.47,10.85,10.85,0,0,1-2.9-1.55,10.57,10.57,0,0,1-2.43-2.43,11.38,11.38,0,0,1,0-13.56,10.57,10.57,0,0,1,2.43-2.43,10.85,10.85,0,0,1,2.9-1.55,11.51,11.51,0,0,1,6-.47,11.26,11.26,0,0,1,4.78,2.17,11.11,11.11,0,0,1,4.07,6.3A8.61,8.61,0,0,1,295.79,166.34Z" style="fill:#455a64"></path><path d="M273.74,162.07c-.06.07-.65-.45-1.77-1a9.21,9.21,0,0,0-9.15.54c-1,.66-1.58,1.24-1.64,1.18a4.48,4.48,0,0,1,1.43-1.49,8.69,8.69,0,0,1,9.53-.55A4.32,4.32,0,0,1,273.74,162.07Z" style="fill:#455a64"></path><path d="M240.58,165.57A106.19,106.19,0,0,1,230.5,169a105.75,105.75,0,0,1-10.22,2.91c-.05-.14,4.46-1.66,10.07-3.41S240.53,165.44,240.58,165.57Z" style="fill:#455a64"></path><path d="M250.63,177a4.35,4.35,0,0,1-2-.26,10.55,10.55,0,0,1-6.81-6.35,4.45,4.45,0,0,1-.39-1.94c.09,0,.25.72.73,1.8a11.69,11.69,0,0,0,6.59,6.14C249.89,176.76,250.64,176.88,250.63,177Z" style="fill:#fff"></path><path d="M278.14,173.29c0,.06-.74-.14-1.51-1a8.13,8.13,0,0,1-1.84-4,10.86,10.86,0,0,1,.1-4.36,3.4,3.4,0,0,1,.72-1.65c.07,0-.2.66-.36,1.73a13.15,13.15,0,0,0,.05,4.19,9.25,9.25,0,0,0,1.61,3.81A12.68,12.68,0,0,0,278.14,173.29Z" style="fill:#fff"></path><path d="M261.89,189.32c-.1-.1.32-.69.95-1.32s1.22-1.05,1.32-.95-.32.7-1,1.32S262,189.42,261.89,189.32Z" style="fill:#263238"></path><path d="M263.51,190.32c-.11-.09.3-.81.93-1.61s1.22-1.37,1.33-1.28-.3.81-.92,1.6S263.62,190.41,263.51,190.32Z" style="fill:#263238"></path><path d="M265.15,191.55c-.12-.07.14-.81.6-1.67s.92-1.49,1.05-1.42-.14.81-.59,1.67S265.28,191.62,265.15,191.55Z" style="fill:#263238"></path><path d="M267.69,191.56c-.14,0-.22-.53-.17-1.16s.2-1.13.35-1.11.22.52.17,1.15S267.83,191.57,267.69,191.56Z" style="fill:#263238"></path><path d="M270.1,192c-.14,0-.26-.46-.26-1s.12-1,.26-1,.26.46.26,1S270.24,192,270.1,192Z" style="fill:#263238"></path><path d="M272.37,192.17c-.14,0-.39-.54-.56-1.28s-.2-1.37-.06-1.4.39.54.56,1.28S272.51,192.14,272.37,192.17Z" style="fill:#263238"></path><path d="M220.28,194.9a3.58,3.58,0,0,1-6.39,2.79,4.58,4.58,0,0,1-.79-3.52,4,4,0,0,1,1.69-2.42,3.12,3.12,0,0,1,2.57-.62,5.27,5.27,0,0,0-2.36.92,3.82,3.82,0,0,0-1.43,2.22,4.22,4.22,0,0,0,.74,3.11,3,3,0,0,0,2.81,1.27,3.22,3.22,0,0,0,2.18-1.39A7.07,7.07,0,0,0,220.28,194.9Z" style="fill:#263238"></path><path d="M213.62,241.72S176.16,257.18,171,259.51c-8,3.64-21,18.32-22.64,21s-4.31,16.71-4.31,16.71-6.47,9.16-6.47,10.78,38,35.58,38,35.58l4.6,62.7-7.64,41.43H325.79l-6-106.83,33.42-33.42-4.85-10.78h0a55.24,55.24,0,0,0-28.91-38.26l-32.54-16.72s-3.78,26.41-36.66,26.41S213.62,241.72,213.62,241.72Z" style="fill:#fafafa"></path><path d="M213.62,241.72s.1.57.38,1.66a32.85,32.85,0,0,0,5.87,11.73,30.74,30.74,0,0,0,8.33,7.4,37.14,37.14,0,0,0,13.15,4.77,51.73,51.73,0,0,0,8,.7,53.34,53.34,0,0,0,8.72-.55,41.09,41.09,0,0,0,9.05-2.39,36.79,36.79,0,0,0,4.44-2.13,33.06,33.06,0,0,0,4.17-2.89,31.82,31.82,0,0,0,11-18.33l.05-.23.21.1,19.32,9.91,10.33,5.3c1.76.89,3.53,1.81,5.29,2.81a57.53,57.53,0,0,1,5.12,3.34,55.21,55.21,0,0,1,21.09,31.85l.38,1.66.05.21.07.15.18.39.35.77c.46,1,.93,2.08,1.4,3.13.95,2.09,1.89,4.19,2.85,6.31l.06.14-.11.11L320,341.07l.07-.18c1.85,33,3.88,69.13,6,106.82l0,.28H172.28l.06-.3q3.94-21.37,7.65-41.42v.06q-2.43-33.45-4.57-62.71l.07.15q-13.42-12-25.34-23.05c-3.94-3.68-7.8-7.23-11.34-10.9a12.78,12.78,0,0,1-1.24-1.48.6.6,0,0,1-.12-.31l0-.26a2.72,2.72,0,0,1,.15-.48,8.76,8.76,0,0,1,.4-.88c.57-1.12,1.22-2.18,1.88-3.22,1.31-2.09,2.67-4.09,4-6l0,.07c.72-3.65,1.48-7.19,2.34-10.61a48.1,48.1,0,0,1,1.48-5,8.56,8.56,0,0,1,.55-1.19c.24-.36.48-.72.74-1.05.51-.67,1.05-1.32,1.59-1.95a110.88,110.88,0,0,1,13.24-13.23,36,36,0,0,1,7-4.72l7.18-3,12.52-5.2,23.07-9.54-23.07,9.73-12.45,5.23-7.15,3a35.94,35.94,0,0,0-6.92,4.69,112.72,112.72,0,0,0-13.18,13.22c-.53.64-1.07,1.28-1.57,1.95-.26.33-.49.68-.72,1a7.82,7.82,0,0,0-.52,1.14,46.14,46.14,0,0,0-1.47,5c-.85,3.41-1.6,6.95-2.32,10.59v0l0,0c-1.36,1.94-2.71,4-4,6-.64,1.05-1.3,2.1-1.86,3.21a8.75,8.75,0,0,0-.37.83,1.83,1.83,0,0,0-.13.42l0,.1V308h0s.07,0-.08,0h.09s0,0,0,0l.05.08a12.15,12.15,0,0,0,1.21,1.42c3.52,3.64,7.39,7.19,11.33,10.87q11.9,11,25.36,23l.06.06v.08q2.16,29.21,4.63,62.71v.06q-3.69,20-7.63,41.42l-.24-.29H325.79l-.25.27c-2.11-37.69-4.12-73.81-6-106.82v-.11l.08-.08,33.43-33.41-.05.25-2.84-6.31c-.46-1-.93-2.09-1.4-3.12l-.35-.78-.17-.39a1.23,1.23,0,0,1-.1-.24l-.05-.21-.38-1.65a54.78,54.78,0,0,0-20.9-31.62,60.69,60.69,0,0,0-5.08-3.33l-2.63-1.44-2.64-1.36-10.33-5.31-19.3-9.94.25-.13A32.15,32.15,0,0,1,276,260.26a32.7,32.7,0,0,1-4.22,2.91,35.91,35.91,0,0,1-4.48,2.14,41.25,41.25,0,0,1-9.12,2.39,52.72,52.72,0,0,1-8.76.53,52.1,52.1,0,0,1-8.08-.72,37.43,37.43,0,0,1-13.21-4.84,31.18,31.18,0,0,1-8.35-7.47,32.94,32.94,0,0,1-4.17-7,29.94,29.94,0,0,1-1.62-4.76A16.15,16.15,0,0,1,213.62,241.72Z" style="fill:#263238"></path><path d="M174.65,342.94a2.11,2.11,0,0,1-.2-.53l-.49-1.56c-.2-.68-.45-1.51-.79-2.45s-.67-2-1.14-3.22-.95-2.47-1.56-3.82-1.28-2.79-2-4.3A93.59,93.59,0,0,0,163,317.7a90.81,90.81,0,0,0-6.65-8.58c-1.13-1.24-2.18-2.43-3.24-3.46s-2-2-3-2.87-1.8-1.6-2.56-2.26-1.42-1.21-2-1.65l-1.26-1q-.44-.36-.42-.39a2.71,2.71,0,0,1,.48.31l1.33,1c.57.41,1.27.93,2,1.58s1.69,1.35,2.61,2.21,2,1.78,3,2.84,2.15,2.22,3.3,3.45a87.49,87.49,0,0,1,6.72,8.61,86.25,86.25,0,0,1,5.48,9.44c.72,1.52,1.42,2.95,2,4.34s1.08,2.67,1.51,3.87.77,2.29,1.08,3.25.54,1.79.71,2.48.28,1.17.39,1.59A2.34,2.34,0,0,1,174.65,342.94Z" style="fill:#263238"></path><path d="M153.87,275.24a3.7,3.7,0,0,1,.37.63l1,1.86,3.55,6.83c3,5.75,7.34,13.69,10.47,23.15a116,116,0,0,1,5.67,24.76c.35,3.24.46,5.88.48,7.7,0,.91,0,1.62,0,2.09a3.91,3.91,0,0,1,0,.74,3.71,3.71,0,0,1-.06-.73c0-.53-.05-1.23-.08-2.09-.08-1.82-.25-4.44-.64-7.66a123.71,123.71,0,0,0-5.8-24.64c-3.12-9.41-7.39-17.35-10.3-23.15-1.47-2.9-2.64-5.26-3.41-6.91-.39-.82-.68-1.47-.88-1.9A5.74,5.74,0,0,1,153.87,275.24Z" style="fill:#263238"></path><path d="M323,289.14a2.36,2.36,0,0,1,0,.56c-.06.42-.14.95-.23,1.59-.22,1.38-.51,3.38-.85,5.84-.68,4.94-1.46,11.79-1.93,19.38s-.5,14.48-.41,19.46c0,2.49.09,4.51.13,5.9l0,1.61a3.42,3.42,0,0,1,0,.56,2.08,2.08,0,0,1-.09-.55c0-.43-.07-1-.13-1.61-.11-1.39-.22-3.4-.3-5.9-.18-5-.19-11.89.27-19.51s1.3-14.46,2.08-19.39c.38-2.46.73-4.45,1-5.82l.32-1.58A2.09,2.09,0,0,1,323,289.14Z" style="fill:#263238"></path><path d="M342.48,280.68s-.06.16-.22.44l-.73,1.23c-.69,1.13-1.6,2.65-2.72,4.5-2.28,3.81-5.33,9.12-8.52,15.09s-6,11.44-8,15.39L319.86,322l-.69,1.25q-.24.43-.27.42a1.51,1.51,0,0,1,.18-.47l.59-1.29c.58-1.19,1.35-2.79,2.29-4.74,2-4,4.68-9.48,7.87-15.46s6.3-11.28,8.66-15c1.19-1.88,2.17-3.39,2.87-4.42l.81-1.17A1.88,1.88,0,0,1,342.48,280.68Z" style="fill:#263238"></path><path d="M349,297.53a10.53,10.53,0,0,1-1,1.34c-.67.84-1.67,2-2.92,3.49-2.5,2.92-6.08,6.84-10.23,11s-8.1,7.7-11,10.19c-1.46,1.24-2.66,2.23-3.51,2.9a9.72,9.72,0,0,1-1.34,1,11,11,0,0,1,1.21-1.15l3.4-3c2.85-2.56,6.75-6.15,10.89-10.28s7.76-8,10.33-10.85l3-3.38A10.43,10.43,0,0,1,349,297.53Z" style="fill:#263238"></path><path d="M335.42,307.12a25.86,25.86,0,0,1-2.32,2.66l-5.74,6.29-5.68,6.33a25.27,25.27,0,0,1-2.43,2.57,4.17,4.17,0,0,1,.54-.79c.37-.49.92-1.18,1.61-2,1.38-1.69,3.34-4,5.57-6.44s4.32-4.65,5.86-6.19c.77-.77,1.4-1.39,1.85-1.8S335.39,307.09,335.42,307.12Z" style="fill:#263238"></path><path d="M288.86,245a17.9,17.9,0,0,1-.52,4.12,26.2,26.2,0,0,1-4.87,10.18,30.72,30.72,0,0,1-5.51,5.56,33.88,33.88,0,0,1-7.8,4.49,47.24,47.24,0,0,1-20.22,3.19A51.59,51.59,0,0,1,230,267.66a38.45,38.45,0,0,1-13.19-10.29,32.81,32.81,0,0,1-5.58-9.82,22.55,22.55,0,0,1-1.07-4s0,.08.09.25.13.46.21.77.21.76.38,1.25.33,1.05.58,1.67a33.52,33.52,0,0,0,5.67,9.65,38.44,38.44,0,0,0,13.11,10.1A51.78,51.78,0,0,0,250,272a47.05,47.05,0,0,0,20-3.12,33.25,33.25,0,0,0,7.72-4.38,30.73,30.73,0,0,0,5.48-5.45,26.66,26.66,0,0,0,5-10,15,15,0,0,0,.37-1.72,12.9,12.9,0,0,0,.2-1.28l.1-.8A.84.84,0,0,1,288.86,245Z" style="fill:#263238"></path><path d="M313.57,321.71a176,176,0,0,1-4.43,45.42c-19.45,5.13-30,1.28-43.72-4.23-1.89-16,1.4-28.67,2.84-44.73,0,0,13.95,5.44,25.85,6.63S313.57,321.71,313.57,321.71Z" style="fill:#455a64"></path><g style="opacity:0.30000000000000004"><path d="M280.14,326a6.29,6.29,0,0,0-6.61,2.77c-.46.76-.75,1.62-1.24,2.36A17.23,17.23,0,0,0,271,333a1.81,1.81,0,0,0,.18,2.08c.91.86,2.42,0,3.64.22a10.27,10.27,0,0,1,1.92,1,4.25,4.25,0,0,0,4.45-1,12.3,12.3,0,0,0,2.61-4,31.56,31.56,0,0,1-3.19,1.72,1.68,1.68,0,0,1-1.49.13c-.45-.25-.41-1.13.1-1.14a3.24,3.24,0,0,1-2,.33c-.66-.18-1.17-1-.78-1.57s1-.46,1.48-.73c1.35-.72,2.56-3.78,2.19-4"></path><path d="M294.14,362.34a6.27,6.27,0,0,0,5.23,4.91c.88.11,1.78,0,2.66.18a16.85,16.85,0,0,0,2.19.41,1.83,1.83,0,0,0,1.83-1c.41-1.18-1-2.19-1.28-3.42a9.86,9.86,0,0,1,.12-2.16,4.24,4.24,0,0,0-2.71-3.66,12.56,12.56,0,0,0-4.73-.75,32.3,32.3,0,0,1,2.87,2.22,1.7,1.7,0,0,1,.73,1.3c-.05.51-.87.84-1.09.37a3.21,3.21,0,0,1,1.11,1.69c.11.67-.43,1.48-1.11,1.35s-.83-.71-1.27-1.06c-1.21-.93-4.5-.79-4.55-.37"></path><path d="M286.4,326.17a5.64,5.64,0,0,0-2.51-.25,3.26,3.26,0,0,0-2.14,1.25,2.33,2.33,0,0,0-.2,2.41c.34.59,1,1.12.86,1.79a4.17,4.17,0,0,1-.35.74.59.59,0,0,0,.14.73c.27.16.6-.07.83-.29l2.4-2.33a5.41,5.41,0,0,0,1.46-1.94,1.83,1.83,0,0,0-.61-2.17"></path><path d="M296.31,326.68c-.93-.41-.76-.71-1.63-1.23a3.12,3.12,0,0,0-2.89-.39c-1.05.53-1.39,1.84-1.62,3-.32,1.66-.65,3.32-1,5a5.45,5.45,0,0,0,0,3.15,3.52,3.52,0,0,0,3.39,1.89,7.67,7.67,0,0,0,3.8-1.45,4.88,4.88,0,0,0,2.2-2.45,2,2,0,0,0-1.38-2.61,3.72,3.72,0,0,0-2.15.81,1.9,1.9,0,0,1-2.18.08c-.64-.61-.24-1.76.47-2.3s1.62-.73,2.38-1.2,1.37-1.46.93-2.23"></path><path d="M274.36,341.91c-.55-.72-1.12-.76-2-1.28a3.08,3.08,0,0,0-2.89-.38c-1.05.53-1.39,1.84-1.62,3-.32,1.66-.65,3.32-1,5a5.37,5.37,0,0,0,0,3.15,3.52,3.52,0,0,0,3.39,1.89,7.61,7.61,0,0,0,3.81-1.45,4.89,4.89,0,0,0,2.2-2.45,2,2,0,0,0-1.39-2.6,3.8,3.8,0,0,0-2.15.8c-.67.38-1.61.62-2.17.09s-.25-1.77.46-2.31,1.63-.73,2.38-1.2,1.37-1.45.93-2.23"></path><path d="M305.63,338.22c-1,.22-1-.12-2.05,0a3.11,3.11,0,0,0-2.55,1.41c-.52,1.05,0,2.31.49,3.37.72,1.53,1.45,3,2.18,4.58a5.34,5.34,0,0,0,1.88,2.53,3.53,3.53,0,0,0,3.85-.5,7.65,7.65,0,0,0,2.2-3.43,4.86,4.86,0,0,0,.3-3.28,2,2,0,0,0-2.66-1.27,3.82,3.82,0,0,0-1.25,1.92c-.31.71-.92,1.46-1.69,1.37s-1.25-1.27-1-2.13.87-1.55,1.2-2.38A1.83,1.83,0,0,0,306,338"></path><path d="M308.7,327.83a7.84,7.84,0,0,1-2.31-.14,6.14,6.14,0,0,0-2.3-.05,2.25,2.25,0,0,0-1.71,1.41,6.69,6.69,0,0,0,.08,2.18c0,.55-.07,1.1-.09,1.65a2.32,2.32,0,0,0,.45,1.56,2.92,2.92,0,0,0,1.72.76,3.23,3.23,0,0,0,2.78-.29,3.15,3.15,0,0,0,.8-1.52q.78-2.5,1.55-5Z"></path><path d="M272.5,356.07a6.61,6.61,0,0,1-1.93-.12,5.17,5.17,0,0,0-1.92,0,1.89,1.89,0,0,0-1.42,1.18,5.47,5.47,0,0,0,.07,1.8c0,.46-.06.92-.07,1.38a1.92,1.92,0,0,0,.37,1.3,2.44,2.44,0,0,0,1.43.63,2.68,2.68,0,0,0,2.31-.24,2.61,2.61,0,0,0,.67-1.27l1.29-4.16Z"></path><path d="M282.88,353.49a5.12,5.12,0,0,0-5.86.17,4.68,4.68,0,0,0-1.16,5.45c.35.7.86,1.3,1.24,2,.75,1.37.95,3.07,2,4.19,1.49,1.55,4.14,1.35,5.92.14a13.5,13.5,0,0,0,3.89-5,4.22,4.22,0,0,0,.67-1.94,4.29,4.29,0,0,0-1.56-2.75,4,4,0,0,0-1.43-1.09,1.38,1.38,0,0,0-1.62.44c-.42.68.09,1.52.31,2.29a3,3,0,0,1-1.82,3.57,2.44,2.44,0,0,1-3.06-2.25c.09-2,2.73-3.24,2.44-5.17"></path><path d="M298.66,352.14a6.83,6.83,0,0,1-4.43.75c-.7-.12-1.51-.52-1.52-1.22s.53-1,1-1.39a3.83,3.83,0,0,0,1.28-2.8,2.63,2.63,0,0,0-1.72-2.43,2,2,0,0,0-2.49,1.34,4.93,4.93,0,0,0,.36,2.25,1.87,1.87,0,0,1-.49,2.1,1.46,1.46,0,0,1-1.68-.27,3.54,3.54,0,0,1-.88-1.57c-.72-2.17-.83-4.8.72-6.48,1.22-1.33,3.14-1.7,4.92-2a2.54,2.54,0,0,1,3.45,2c.54,1.35,1.07,2.87.5,4.19-.31.71-.92,1.33-.89,2.1.05,1.35,2,2.09,1.92,3.43"></path><path d="M278.34,344.1a3.84,3.84,0,0,1,1.45,1.77,10.73,10.73,0,0,1,.49,2,2.67,2.67,0,0,0,1.35,1.93,2.25,2.25,0,0,0,2.53-.92,6.46,6.46,0,0,0,.95-2.72,4.3,4.3,0,0,0-.2-3.11,3.28,3.28,0,0,0-2.45-1.25,6.72,6.72,0,0,0-3.71.68,1.57,1.57,0,0,0-.8.72.63.63,0,0,0,.39.87"></path><path d="M294.84,361a1.34,1.34,0,0,1,1-1.2,9,9,0,0,1,1.63-.3,1.77,1.77,0,0,0,1.34-.86,1.52,1.52,0,0,0-.55-1.74,4.31,4.31,0,0,0-1.82-.71,2.84,2.84,0,0,0-2.11.05,2.23,2.23,0,0,0-.91,1.62,4.58,4.58,0,0,0,.36,2.53,1,1,0,0,0,.47.56.42.42,0,0,0,.6-.24"></path></g><path d="M313.57,321.71a1.22,1.22,0,0,1-.17.13l-.56.33a17.23,17.23,0,0,1-2.31,1,38.22,38.22,0,0,1-9.32,1.83,37.26,37.26,0,0,1-6.79,0,70.23,70.23,0,0,1-7.89-1.27,147.14,147.14,0,0,1-18.35-5.37l.31-.19c-.75,6.46-1.58,13.47-2.18,20.91a186.83,186.83,0,0,0-.65,23.4l0,.39-.15-.22a85.88,85.88,0,0,0,11.36,4.16,66.59,66.59,0,0,0,11.35,2.34,44.51,44.51,0,0,0,20.81-2.24l-.13.16c1.26-6.74,2.34-12.94,3.19-18.45s1.53-10.35,1.38-14.32c.05-7.77.08-11.68.08-12.61a1.14,1.14,0,0,1,0,.19c0,.16,0,.36,0,.62,0,.57,0,1.38,0,2.43,0,2.17.07,5.33.12,9.33s-.48,8.89-1.27,14.41-1.87,11.73-3.12,18.48l0,.12-.1,0a44.72,44.72,0,0,1-21.06,2.33,68.25,68.25,0,0,1-11.43-2.34,86.2,86.2,0,0,1-11.44-4.19l-.15-.06v-.16l0-.39a186.06,186.06,0,0,1,.66-23.48c.63-7.45,1.47-14.46,2.24-20.91l0-.29.27.1a149.1,149.1,0,0,0,18.27,5.44,72,72,0,0,0,7.84,1.31,36.88,36.88,0,0,0,6.73,0,40,40,0,0,0,9.31-1.69,18.14,18.14,0,0,0,2.32-.92l.57-.29Z" style="fill:#263238"></path><path d="M293.79,359.4a6.11,6.11,0,0,1-.9-.89c-.56-.6-1.34-1.48-2.28-2.59-1.89-2.21-4.41-5.36-7-9s-4.74-7-6.22-9.52c-.74-1.25-1.32-2.28-1.71-3a4.89,4.89,0,0,1-.54-1.14,7.44,7.44,0,0,1,.72,1l1.84,2.91c1.56,2.45,3.76,5.8,6.33,9.41s5,6.77,6.85,9l2.15,2.68A5.42,5.42,0,0,1,293.79,359.4Z" style="fill:#263238"></path><path d="M310.53,327.66s-.12.11-.37.26a12.24,12.24,0,0,1-1.13.64,23.88,23.88,0,0,1-4.42,1.76,33.94,33.94,0,0,1-15.62.56,56.18,56.18,0,0,1-14.76-5.27c-1.79-.92-3.2-1.71-4.17-2.28-.49-.29-.85-.52-1.1-.68a1.93,1.93,0,0,1-.37-.26,10.1,10.1,0,0,1,1.57.76c1,.51,2.43,1.26,4.23,2.13a60.3,60.3,0,0,0,14.7,5.09,35.09,35.09,0,0,0,15.42-.4,28.42,28.42,0,0,0,4.44-1.59A14.45,14.45,0,0,1,310.53,327.66Z" style="fill:#263238"></path><path d="M296.69,404.45h-.32l-.95-.09c-.84-.11-2.08-.17-3.66-.44a83.67,83.67,0,0,1-13.16-3.08,101.74,101.74,0,0,1-18.41-8A133.42,133.42,0,0,1,239.91,379a201.26,201.26,0,0,1-17.86-16.87c-5.18-5.5-9.61-10.66-13.28-15s-6.56-8-8.56-10.46c-1-1.23-1.74-2.19-2.29-2.87l-.58-.76q-.19-.25-.18-.27a1.52,1.52,0,0,1,.22.23l.63.73,2.36,2.81c2,2.45,5,6,8.68,10.36s8.16,9.47,13.35,14.94a204.82,204.82,0,0,0,17.84,16.8,135.81,135.81,0,0,0,20.18,13.82,103.88,103.88,0,0,0,18.29,8,88.84,88.84,0,0,0,13.09,3.23c1.56.3,2.8.4,3.63.53l.94.14A1.3,1.3,0,0,1,296.69,404.45Z" style="fill:#263238"></path><path d="M137.71,259s8.66-1.77,12.33-6.68S167.82,215,167.82,215s-3.9-2.72-8.79,2.58c-3.62,3.93-9.92,13.55-9.92,13.55s2.53-20.44,3.39-27.45c.76-6.15,1.55-15.52-1.46-16.74s-4.72,10.65-6.44,15.49-4,11.78-4,11.78c0,.38,2.46-24.36,1.3-31.14-.84-4.95-6.91-3.09-7.08,2.66,0,0-2.32-5.8-5-1.63s-4.77,28.21-6.4,27.79-1.06-20.06-3.62-21.88c-1.45-1-3.39.81-3.77,5.79s-3,42.57-2.07,47.78,3,7.07,3,7.07Z" style="fill:#b78876"></path><path d="M95.71,329.38a841.31,841.31,0,0,1,23-87.66h28.79l-13.09,79.7,6.19-10.06,30,27.88s-22.28,29.79-33,35.27C103.36,392.06,90.38,355.83,95.71,329.38Z" style="fill:#b78876"></path><path d="M142.58,270.6a6.28,6.28,0,0,1-.12.89c-.11.62-.25,1.46-.43,2.53-.4,2.24-.95,5.39-1.64,9.28-1.34,7.84-3.28,18.66-4.83,30.69-.18,1.51-.35,3-.52,4.46s-.28,2.92-.33,4.34c0,.71-.06,1.42-.05,2.11s.05,1.37.16,2c.23,1.35.55,2.65.89,3.92.68,2.53,1.42,4.93,1.86,7.24a31.2,31.2,0,0,1-1,15.81c-.37,1.06-.69,1.86-.94,2.39a5.78,5.78,0,0,1-.39.8,4.84,4.84,0,0,1,.3-.84c.21-.54.5-1.35.84-2.41a32.91,32.91,0,0,0,1.41-9.24,30.92,30.92,0,0,0-.62-6.42c-.46-2.28-1.21-4.66-1.9-7.21-.35-1.27-.68-2.59-.92-4-.12-.69-.12-1.41-.18-2.12s0-1.42,0-2.14c0-1.44.22-2.89.33-4.37s.34-3,.51-4.47c1.56-12.06,3.56-22.87,5-30.7.73-3.91,1.35-7.07,1.8-9.25.22-1.06.4-1.89.53-2.51l.15-.65A1,1,0,0,1,142.58,270.6Z" style="fill:#995037"></path><path d="M138,242.68c-.09,0-.41-1-1.2-2.6a21.31,21.31,0,0,0-9.51-9.51c-1.57-.79-2.62-1.12-2.59-1.21a2.36,2.36,0,0,1,.76.15,14.1,14.1,0,0,1,2,.72,19.18,19.18,0,0,1,5.73,4,19,19,0,0,1,3.95,5.74,12.89,12.89,0,0,1,.72,2C138,242.4,138,242.67,138,242.68Z" style="fill:#995037"></path><path d="M146.57,234.65c.07.14-2.23,1.27-4.56,3.35s-3.74,4.21-3.87,4.12a12.79,12.79,0,0,1,3.53-4.51A12.59,12.59,0,0,1,146.57,234.65Z" style="fill:#995037"></path><path d="M135.35,183.68c.14,0-.28,6.67-.94,14.87s-1.31,14.84-1.45,14.83.27-6.67.93-14.87S135.2,183.67,135.35,183.68Z" style="fill:#995037"></path><path d="M106.53,305.79a12.13,12.13,0,0,0-.33,3,9.36,9.36,0,0,0,.85,3.47,8.61,8.61,0,0,0,3,3.57,9.15,9.15,0,0,0,5.41,1.5,8.87,8.87,0,0,0,3.08-.69,9,9,0,0,0,2.76-1.88,13.08,13.08,0,0,0,3.34-6.34,27.07,27.07,0,0,0,.4-7.83c-.07-1-.15-1.95-.23-2.9l.48.11-2.45,3.85c-.41.62-.8,1.25-1.2,1.86a8,8,0,0,1-.63.93,1.27,1.27,0,0,1-.53.39,1.06,1.06,0,0,1-.68,0,4.5,4.5,0,0,1-1-.55,7.67,7.67,0,0,0-2.78-1.09,7.91,7.91,0,0,0-3.76.22l-.25.08,0-.27a25.15,25.15,0,0,0-2.41-8l.33,0c-1.14,3.25-2.06,5.85-2.58,7.68-.26.91-.45,1.63-.58,2.11a3.43,3.43,0,0,1-.21.73,3.84,3.84,0,0,1,.11-.75c.1-.49.25-1.22.49-2.14.46-1.86,1.34-4.49,2.43-7.74l.14-.41.19.39a25.16,25.16,0,0,1,2.54,8.09l-.29-.19a8.27,8.27,0,0,1,4-.26,8.16,8.16,0,0,1,2,.63,8.54,8.54,0,0,1,.94.51,3.69,3.69,0,0,0,.86.49c.54.22.88-.51,1.28-1.12s.79-1.24,1.18-1.87l2.45-3.85.41-.64.07.76c.08,1,.17,1.93.23,2.92a27.51,27.51,0,0,1-.42,8,13.42,13.42,0,0,1-3.51,6.56,9,9,0,0,1-6.15,2.66,9.5,9.5,0,0,1-5.64-1.62,8.89,8.89,0,0,1-3-3.76,9.55,9.55,0,0,1-.78-3.58,8.46,8.46,0,0,1,.27-2.3c.06-.25.14-.44.18-.57S106.52,305.79,106.53,305.79Z" style="fill:#263238"></path><path d="M108.13,306.35a7.52,7.52,0,0,0,.56,2.18,4.33,4.33,0,0,0,4.33,2.41l-.24.25v0a4.67,4.67,0,0,0-2.58-4.32,8.32,8.32,0,0,0-2.17-.62,3.32,3.32,0,0,1,2.33.28,4.79,4.79,0,0,1,2,1.63,5.13,5.13,0,0,1,.93,3.05v.25l-.23,0a4.74,4.74,0,0,1-3.08-.78,4.47,4.47,0,0,1-1.64-2A3.26,3.26,0,0,1,108.13,306.35Z" style="fill:#263238"></path><path d="M110.44,309.35c-.15,0-.19-.53-.1-1.14s.27-1.09.42-1.07.18.53.09,1.14S110.58,309.37,110.44,309.35Z" style="fill:#263238"></path><path d="M117.51,311.16a8.83,8.83,0,0,0,2,.08,4.22,4.22,0,0,0,2.76-1.65,3,3,0,0,0,.31-.52c0-.18,0-.22-.1-.33a3.53,3.53,0,0,0-2.4-.28,3.59,3.59,0,0,0-1.78,1,7.1,7.1,0,0,0-1,1.65,2.62,2.62,0,0,1,.78-1.9,3.86,3.86,0,0,1,4.75-.89.84.84,0,0,1,.32.41.86.86,0,0,1,0,.51,2.87,2.87,0,0,1-.39.65,4.44,4.44,0,0,1-1,.95,4.18,4.18,0,0,1-2.14.77A2.8,2.8,0,0,1,117.51,311.16Z" style="fill:#263238"></path><path d="M114,303.07a11.72,11.72,0,0,1,.69,5l0,.75-.44-.6-.12-.16a7.43,7.43,0,0,1-1.36-3.49,3,3,0,0,1,.09-1.55,9.87,9.87,0,0,1,.27,1.49,8.43,8.43,0,0,0,1.43,3.24l.1.15-.46.15C114.3,305.28,113.88,303.09,114,303.07Z" style="fill:#263238"></path><path d="M116.92,303.41c.07,0,.11.47,0,1.21a8,8,0,0,1-.32,1.28c-.08.23-.18.48-.29.72l-.18.37a.75.75,0,0,1-.41.43.4.4,0,0,1-.49-.19.83.83,0,0,1-.07-.31v-.41q0-.4,0-.78a8.17,8.17,0,0,1,.2-1.29c.17-.73.38-1.14.44-1.12s0,.46-.08,1.18c0,.36-.07.79-.08,1.26,0,.24,0,.49,0,.74V307s0,0-.07,0,0,.08,0,0,.19-.34.28-.57.21-.46.3-.68a11.36,11.36,0,0,0,.41-1.19C116.75,303.85,116.84,303.41,116.92,303.41Z" style="fill:#263238"></path><path d="M115.21,312.43s.06-.12.24-.09a.43.43,0,0,1,.27.17.53.53,0,0,1,.07.45.85.85,0,0,1-.86.55,2.42,2.42,0,0,1-1.09-.26,2.5,2.5,0,0,1-.68-.5l-.2-.21.22-.16a1.93,1.93,0,0,1,1.4-.36c.35.05.52.18.51.23s-.85-.09-1.6.52l0-.37a2.93,2.93,0,0,0,.56.39c.58.28,1.26.34,1.37,0a.22.22,0,0,0-.06-.3C115.3,312.46,115.23,312.47,115.21,312.43Z" style="fill:#263238"></path><path d="M119.13,313.53s.05.19,0,.52a2.48,2.48,0,0,1-.86,1.17,2.43,2.43,0,0,1-2.14.4,2.71,2.71,0,0,1-1.83-1.92l0-.25.51-.08a1.71,1.71,0,0,1-1.61,2,2.45,2.45,0,0,1-1.93-.85,3.54,3.54,0,0,1-.69-1.19c-.1-.31-.12-.48-.09-.5a12.78,12.78,0,0,0,1,1.44,2.1,2.1,0,0,0,1.63.62,1.23,1.23,0,0,0,1.14-1.37l.52-.09,0,.19a2.25,2.25,0,0,0,1.47,1.58,2.12,2.12,0,0,0,1.78-.24A3.53,3.53,0,0,0,119.13,313.53Z" style="fill:#263238"></path><path d="M119.47,304.53c.06,0,.08.37-.1.91a4.26,4.26,0,0,1-1.2,1.83l-.06.05-.47.42,0-.63a8.39,8.39,0,0,1,.42-2.89,8.34,8.34,0,0,1,.1,2.92l-.43-.21,0-.05A10.43,10.43,0,0,0,119.47,304.53Z" style="fill:#263238"></path><path d="M124.08,302.61c.12.1-.1.53-.33,1.05s-.4,1-.55,1-.19-.56.08-1.17S124,302.52,124.08,302.61Z" style="fill:#263238"></path><path d="M109.62,300.44c.14,0,.32.52.27,1.19s-.29,1.18-.43,1.14-.13-.55-.09-1.18S109.48,300.46,109.62,300.44Z" style="fill:#263238"></path><path d="M106.92,312.8c-.14,0,0-1.12,1-2l.27-.21.16.47c-1,0-1.63.48-1.71.37s.52-.81,1.69-.88l.81-.06-.65.52-.23.19C107.41,311.94,107.06,312.84,106.92,312.8Z" style="fill:#263238"></path><path d="M121.92,314.26c-.11.08-.65-.51-1.25-1.34l.46-.22.07.29c.27,1.19,0,2.18-.09,2.15s-.17-.94-.42-2l-.06-.28-.33-1.38.79,1.17C121.66,313.48,122,314.19,121.92,314.26Z" style="fill:#263238"></path><path d="M108.49,286.14a3.31,3.31,0,0,1,.11.58c.07.43.15.95.24,1.59l.76,5.72-.29-.16,3.42-1.82.29-.15,0,.33c.32,2.39.67,5,1.05,7.85h-.51c.12-.78.24-1.6.37-2.44.48-3.11.94-6.08,1.36-8.76l.32.26-3.35,1.23-.29.1v-.3c0-2.23,0-4.18-.07-5.78l.22.13-2.67,1.21a10.4,10.4,0,0,1-1,.41,4.53,4.53,0,0,1,.88-.51l2.67-1.38.2-.1v.23c0,1.6.12,3.55.2,5.78l-.29-.2,3.33-1.27.38-.14-.06.4c-.4,2.69-.85,5.65-1.32,8.77-.12.84-.25,1.66-.37,2.44l-.28,1.82-.23-1.83c-.36-2.81-.7-5.47-1-7.86l.33.17-3.45,1.76-.26.14,0-.29c-.23-2.39-.43-4.36-.57-5.83,0-.63-.1-1.15-.13-1.57A2.07,2.07,0,0,1,108.49,286.14Z" style="fill:#263238"></path><path d="M119.22,289.64a12.57,12.57,0,0,1-.53,1.58c-.37,1-.89,2.37-1.55,4L117,295l2.92,0h.33l-.12.31c-.65,1.7-1.38,3.58-2.14,5.57l-.45-.25,1.13-1.47,4.08-5.3.15.39-2.66-.41-.3-.05.14-.27,2.07-3.83.13.22-2.19-.19a5.21,5.21,0,0,1-.83-.11,2.56,2.56,0,0,1,.77,0c.51,0,1.28,0,2.26,0h.23l-.1.21c-.55,1.09-1.21,2.4-1.95,3.89l-.16-.31,2.66.36.4.06-.24.32-4,5.32L117.91,301l-1.13,1.48.69-1.73,2.19-5.55.21.31-2.92-.09h-.29l.11-.26c.73-1.73,1.34-3.12,1.77-4.07A9.31,9.31,0,0,1,119.22,289.64Z" style="fill:#263238"></path><path d="M119.4,310.2c-.14,0-.2-.45-.13-.95s.25-.9.39-.88.2.44.13.95S119.54,310.22,119.4,310.2Z" style="fill:#263238"></path><path d="M116.6,320.92a5.39,5.39,0,0,0-1.29-.29,10.56,10.56,0,0,0-3.53.72,7,7,0,0,1-2.58.3,2.91,2.91,0,0,1-2.47-1.69,23,23,0,0,1-.82-3.14,8,8,0,0,0-1.83-2.77,4.69,4.69,0,0,1-.91-1.6,3.1,3.1,0,0,1,0-1.81,23.3,23.3,0,0,1,1.37-2.95,3.64,3.64,0,0,0,.19-2.68c-.24-.85-.64-1.61-.88-2.36a4.3,4.3,0,0,1-.25-2.14,2.49,2.49,0,0,1,.81-1.41c.74-.6,1.34-.38,1.3-.37a2,2,0,0,0-1.16.52,2.3,2.3,0,0,0-.66,1.31,4.17,4.17,0,0,0,.3,2c.26.72.67,1.47.95,2.37a4.34,4.34,0,0,1,.22,1.46,4.84,4.84,0,0,1-.38,1.53,24.16,24.16,0,0,0-1.31,2.89,2.58,2.58,0,0,0,0,1.53,4.44,4.44,0,0,0,.83,1.43,8.44,8.44,0,0,1,1.91,2.95,25.15,25.15,0,0,0,.77,3.08,2.48,2.48,0,0,0,2.08,1.47,6.89,6.89,0,0,0,2.43-.24,9.7,9.7,0,0,1,3.65-.56,3,3,0,0,1,1,.29C116.51,320.83,116.61,320.9,116.6,320.92Z" style="fill:#263238"></path><path d="M119.51,318.3c-.05,0,.28-.4.95-.25a1.36,1.36,0,0,1,.89.71,1.38,1.38,0,0,1-1.54,1.88,1.36,1.36,0,0,1-.87-.73c-.28-.62,0-1,0-1s0,.38.27.8a1.09,1.09,0,0,0,.65.44.94.94,0,0,0,1-1.22,1.05,1.05,0,0,0-.57-.55C119.88,318.2,119.55,318.37,119.51,318.3Z" style="fill:#263238"></path><path d="M125.34,291.67s.1,0,.29,0a2,2,0,0,1,.76.33,3.72,3.72,0,0,1,1.35,2.65c.16,1.27-.16,2.76.3,4.29a18.82,18.82,0,0,1,.65,2.52,7.31,7.31,0,0,1-.32,2.82,17.82,17.82,0,0,0-.4,5.23,13.73,13.73,0,0,1-.17,2.36,6.62,6.62,0,0,1-.66,2,4.48,4.48,0,0,1-2.08,2.13,2.86,2.86,0,0,1-.78.22c-.19,0-.29,0-.29,0s.39-.08,1-.4a4.52,4.52,0,0,0,1.84-2.11,8.82,8.82,0,0,0,.68-4.16,17.63,17.63,0,0,1,.38-5.37,7.19,7.19,0,0,0,.32-2.63,18.45,18.45,0,0,0-.62-2.46c-.45-1.67-.08-3.19-.2-4.38a3.59,3.59,0,0,0-1.11-2.52A3.17,3.17,0,0,0,125.34,291.67Z" style="fill:#263238"></path><path d="M123.2,286.39c0,.05-.16.3-.06.73a.86.86,0,0,0,.39.55.75.75,0,0,0,1-.79.87.87,0,0,0-.45-.51c-.39-.2-.68-.05-.72-.12s.25-.38.85-.22a1.14,1.14,0,0,1,.77.7,1.11,1.11,0,0,1-.41,1.24,1.12,1.12,0,0,1-1.3.11,1.14,1.14,0,0,1-.5-.92C122.76,286.54,123.18,286.32,123.2,286.39Z" style="fill:#263238"></path><path d="M125.11,262.13s-.29.64-.78,1.8a19.84,19.84,0,0,0-1.39,5.11,21,21,0,0,0,.52,7.8,27.63,27.63,0,0,0,4.05,8.7c2,2.81,4.09,5.39,5.31,8.18a31.41,31.41,0,0,1,2.25,7.66c.37,2.24.55,4.07.66,5.33l.1,1.45a1.64,1.64,0,0,1,0,.51,2.6,2.6,0,0,1-.1-.5l-.21-1.44c-.17-1.25-.4-3.07-.82-5.28a32.13,32.13,0,0,0-2.31-7.53c-1.22-2.71-3.33-5.24-5.31-8.09A27.16,27.16,0,0,1,123,277a20.68,20.68,0,0,1-.43-8,17.83,17.83,0,0,1,1.58-5.14,12.83,12.83,0,0,1,.68-1.3A2.33,2.33,0,0,1,125.11,262.13Z" style="fill:#263238"></path><path d="M132.65,293.4s0,.06.07.2l.14.25.1.17s0,.07,0,.11.07.09,0,.2l-.4.41.31-.52a22.36,22.36,0,0,0,2.67-6.72,29.86,29.86,0,0,0,.05-12.36l0-.23.43.14a12.86,12.86,0,0,0-3.66,6.83,21.44,21.44,0,0,0-.27,6.44c.18,1.84.45,3.32.63,4.34a9.62,9.62,0,0,1,.25,1.6,9.12,9.12,0,0,1-.45-1.55,37.66,37.66,0,0,1-.79-4.35,20.8,20.8,0,0,1,.16-6.58,13.23,13.23,0,0,1,3.77-7.12l.35-.31.09.45,0,.23a29,29,0,0,1-.16,12.56A19.4,19.4,0,0,1,133,294.3l-.08-.07C132.69,293.77,132.53,293.37,132.65,293.4Z" style="fill:#263238"></path><path d="M125,281s-.07.09-.24.21a2.94,2.94,0,0,1-.84.37,5.67,5.67,0,0,1-3.33-.29,21.14,21.14,0,0,1-8.84-6.4l-.29-.36L111,274l.72.16a36.55,36.55,0,0,1,10,3.79,5.84,5.84,0,0,1,2.33,2.24,3,3,0,0,1,.27.85c0,.2,0,.31,0,.31a6.35,6.35,0,0,0-.43-1.07,6,6,0,0,0-2.35-2,40.25,40.25,0,0,0-9.88-3.6l.26-.42.28.35a22.06,22.06,0,0,0,8.57,6.38,5.72,5.72,0,0,0,3.15.44A6.56,6.56,0,0,0,125,281Z" style="fill:#263238"></path><path d="M122.54,270.78a1.6,1.6,0,0,1-.13-.45,10.7,10.7,0,0,1-.18-1.34,22.23,22.23,0,0,1,.25-5,25.25,25.25,0,0,1,.74-3.35,13.89,13.89,0,0,1,1.6-3.63,15.55,15.55,0,0,1,6.74-5.94l.37-.17.26-.12.09.27a8.63,8.63,0,0,1,.19,4.66,14.14,14.14,0,0,1-1.6,4,38.41,38.41,0,0,1-4.42,5.72,36.22,36.22,0,0,0-3,3.8c-.62,1-.9,1.52-.94,1.5a1.76,1.76,0,0,1,.16-.43,11.5,11.5,0,0,1,.61-1.18,30.09,30.09,0,0,1,2.86-3.93,39.91,39.91,0,0,0,4.28-5.72,13.25,13.25,0,0,0,1.52-3.88,8.18,8.18,0,0,0-.18-4.38l.35.16-.36.16a15.39,15.39,0,0,0-6.56,5.72,13.92,13.92,0,0,0-1.58,3.5,27.67,27.67,0,0,0-1.21,8.18C122.46,270.14,122.59,270.77,122.54,270.78Z" style="fill:#263238"></path><path d="M118.5,356.58a2,2,0,0,1,.08-.54c.08-.41.19-.91.32-1.53a51.48,51.48,0,0,0,1-5.65,19.35,19.35,0,0,0-.77-8.34,12.11,12.11,0,0,0-2.48-4.23,21.68,21.68,0,0,0-4.16-3.34A45.62,45.62,0,0,1,108,329.8a25.78,25.78,0,0,1-3.53-3.66,26.16,26.16,0,0,1-4.16-7.49A23.82,23.82,0,0,1,99,313a14,14,0,0,1-.11-1.57,2,2,0,0,1,0-.54c.06,0,.09.75.3,2.08a26.46,26.46,0,0,0,1.45,5.53,26.18,26.18,0,0,0,4.19,7.31,24.84,24.84,0,0,0,3.48,3.57,46.71,46.71,0,0,0,4.39,3.1A22.06,22.06,0,0,1,117,336a12.31,12.31,0,0,1,2.55,4.42,19.23,19.23,0,0,1,.69,8.53,44.16,44.16,0,0,1-1.13,5.66l-.42,1.51A2.32,2.32,0,0,1,118.5,356.58Z" style="fill:#263238"></path><path d="M103.4,324.32a4.7,4.7,0,0,1,.46,1.09c.26.71.62,1.75,1,3.06a20,20,0,0,1,.74,4.75,11.71,11.71,0,0,1-1.25,5.77l-.21.4-.23-.38-.11-.17a13.93,13.93,0,0,1-1.85-10.47,12.4,12.4,0,0,1,1.1-3.09,4.52,4.52,0,0,1,.65-1,19.71,19.71,0,0,0-1.39,4.18,14.13,14.13,0,0,0,1.93,10.12l.1.16-.45,0a11.5,11.5,0,0,0,1.23-5.52,21.26,21.26,0,0,0-.61-4.66C103.84,326,103.32,324.35,103.4,324.32Z" style="fill:#263238"></path><path d="M112.23,332.45a4.45,4.45,0,0,1,1.22,0,18.6,18.6,0,0,1,3.27.58c1.36.34,2.94.87,4.72,1.34a14.6,14.6,0,0,0,5.88.52l-.19.38c-.1-.16-.19-.35-.3-.51a7.91,7.91,0,0,0-5-3.19,14.08,14.08,0,0,0-5,0c-2.85.48-4.58,1-4.61.93a6.47,6.47,0,0,1,1.19-.44,29.59,29.59,0,0,1,3.36-.85,13.62,13.62,0,0,1,5.17-.07,8.3,8.3,0,0,1,5.32,3.37c.12.19.22.38.32.56l.19.32-.38.06a14.68,14.68,0,0,1-6.08-.58c-1.8-.51-3.36-1.07-4.7-1.45A33.28,33.28,0,0,0,112.23,332.45Z" style="fill:#263238"></path><path d="M119.56,344.3a1.07,1.07,0,0,1,.5-.06,2.35,2.35,0,0,1,1.33.52,3.44,3.44,0,0,1,1.19,1.92,9.22,9.22,0,0,1,.07,3,50.57,50.57,0,0,1-1.1,7.62,17.48,17.48,0,0,1-4.41,8.32c-.19.19-.39.36-.57.53l-.28.26-.14-.37A22.5,22.5,0,0,1,114.8,357a22.9,22.9,0,0,1,1.61-7.28,21,21,0,0,1,2.39-4.41c.33-.49.65-.82.84-1.07a2.12,2.12,0,0,1,.32-.34,29,29,0,0,0-3.21,5.95,23.15,23.15,0,0,0-1.48,7.18,22.58,22.58,0,0,0,1.37,8.86l-.41-.11c.17-.16.37-.32.54-.5a17.16,17.16,0,0,0,4.31-8.07,54,54,0,0,0,1.2-7.54,9.29,9.29,0,0,0,0-2.88,3.18,3.18,0,0,0-1-1.83A2.52,2.52,0,0,0,119.56,344.3Z" style="fill:#263238"></path></g></svg>