<svg xmlns="http://www.w3.org/2000/svg" viewBox="0 0 500 500"><g id="freepik--Table--inject-19"><path d="M460.14,467.77l1.24,0,3.72,0v.11c-20.82.12-108.12.2-212.61.2L98.63,468,52,467.88l-12.68-.05-3.29,0-1.13,0,1.13,0,3.29,0L52,467.67l46.63-.08,153.86-.08c104.49,0,191.79.09,212.61.21v.11l-3.72,0C460.55,467.79,460.14,467.77,460.14,467.77Z" style="fill:#263238"></path></g><g id="freepik--Character--inject-19"><path d="M332.7,369.85c-2.24-1.45-32.11-7.66-32.11-7.66l-72,1.88-25.79,4.75s-4.78,80-4.07,81.47,53.8.57,55.21,2S304.37,459,304.37,459l45.37-81.41Z" style="fill:#ae7461"></path><path d="M400.66,390.21c-16.35-13.88-81-25.62-84.62-25.62,0,0-5,40.28-50,40.28-38.27,0-47.41-39-47.41-39l-27.94,4.39c-4.3.82-42.51,9.77-48.78,11.55-13.05,3.7-39.79,13.17-47.54,41.43-2.86,10.46-2.78,29.29-6.21,44.31l68.06,0s219.73.19,219.75,0l73.88.06S418,404.92,400.66,390.21Z" style="fill:#23D07E"></path><path d="M148.17,467.73c-.14,0-3-7.45-6.46-16.74s-6.11-16.87-6-16.92,3,7.44,6.46,16.74S148.3,467.68,148.17,467.73Z" style="fill:#263238"></path><path d="M366.77,467.39a6.13,6.13,0,0,1-.1-1.23c0-.9-.05-2-.08-3.36,0-2.95-.1-6.81-.16-11.08s-.28-8.23-.49-11.06c-.1-1.33-.18-2.45-.25-3.34a6.83,6.83,0,0,1-.05-1.24,5,5,0,0,1,.25,1.21c.13.79.27,1.93.42,3.34.3,2.83.55,6.75.64,11.08s.06,8.25,0,11.09c0,1.33-.06,2.46-.09,3.36A5.32,5.32,0,0,1,366.77,467.39Z" style="fill:#263238"></path><g style="opacity:0.30000000000000004"><path d="M237.49,467.77c3.08-13.21,6.52-26.31,7.42-40.77a24.83,24.83,0,0,1,1.12-7.29c1.8-4.74,6.83-8.25,7-13.32.12-5.31-6-9.27-11.18-8.27s-9.12,5.64-10.89,10.65-1.81,10.43-2,15.74c-.56,13.48-10.32,30.13-13.39,43.26"></path></g><path d="M218.8,134.16c-23.09,5.58-44.76,27.91-54.45,49.21s-10.22,41.45-7.26,64.59c1.79,14,5.72,28.27,8.27,41.62,2.65,13.9-4,33.36-11.56,45.38-2.88,4.54-6.72,9.45-5.34,14.62,1.27,4.79,6.54,7.38,11.41,8.65a53.54,53.54,0,0,0,30.48-1.07q-.65,5.14-1.3,10.28c26.29-.53,51.61-9.21,76.41-17.79,8.31-2.87,17-6,22.83-12.46,3.21-3.57,5.34-7.93,7.37-12.25a537.53,537.53,0,0,0,21.65-53.41" style="fill:#263238"></path><path d="M337,165.84c-20-24.39-46.76-38.43-78.27-38.95-17.78-.3-25.13,3.4-37.94,6.85s-24.35,10.32-32,21.17c-9.07,12.87-16.69,27.29-18.41,43-1.76,16.08-3.52,32.27-2.31,48.41s5.6,32.38,15.1,45.47l41,7.14c22.67.77,45.65,1.51,67.74-3.66s43.55-17.06,55.38-36.41C363.75,231.92,356.93,190.24,337,165.84Z" style="fill:#263238"></path><path d="M300.44,165.57l-54.72-21.75-14.3,1.66c-32.17.12-54.36,35.59-54.57,61.65-.23,28.94.63,64.29,5.22,85.63,9.25,42.9,45.87,46.47,45.87,46.47s-.75,22.86-1,37.27l83.79-6.05,4.21-190.18A15.25,15.25,0,0,0,300.44,165.57Z" style="fill:#ae7461"></path><path d="M198.46,242.28a5.55,5.55,0,0,0,5.66,5.31,5.31,5.31,0,0,0,5.44-5.32,5.56,5.56,0,0,0-5.65-5.31A5.32,5.32,0,0,0,198.46,242.28Z" style="fill:#263238"></path><path d="M186,228.35c.73.66,4.89-2.5,11-2.74s10.73,2.43,11.36,1.7c.31-.32-.47-1.54-2.48-2.79a16.35,16.35,0,0,0-9.14-2.22,15.55,15.55,0,0,0-8.72,3C186.16,226.77,185.58,228.05,186,228.35Z" style="fill:#263238"></path><path d="M225,268.44c0-.34-3.74-.78-9.79-1.22-1.54-.07-3-.29-3.31-1.32s.13-2.76.77-4.58l3.87-11.86c5.36-16.88,9.14-30.72,8.46-30.93s-5.57,13.3-10.93,30.18q-1.92,6.24-3.68,11.92c-.48,1.76-1.37,3.78-.46,6a3.82,3.82,0,0,0,2.63,2.09,10.39,10.39,0,0,0,2.61.22C221.28,269,225,268.78,225,268.44Z" style="fill:#263238"></path><path d="M227.87,339.18s29.22.28,57.11-18.64c0,0-13.79,30.85-57.33,29.18Z" style="fill:#6f4439"></path><path d="M187.48,212.26c1.08,1.4,5.6.18,11,.33,5.37,0,9.87,1.31,11-.07.49-.67-.17-2.06-2.1-3.42a17,17,0,0,0-17.69-.22C187.68,210.2,187,211.58,187.48,212.26Z" style="fill:#263238"></path><path d="M267.63,241a5.56,5.56,0,0,1-5.26,5.7,5.32,5.32,0,0,1-5.82-4.91,5.56,5.56,0,0,1,5.26-5.7A5.31,5.31,0,0,1,267.63,241Z" style="fill:#263238"></path><path d="M270.82,225.66c-.71.84-5.5-2.33-12.05-2s-11.17,3.92-11.93,3.15c-.37-.34.33-1.82,2.33-3.46a16.72,16.72,0,0,1,9.5-3.51,16,16,0,0,1,9.65,2.56C270.42,223.88,271.18,225.28,270.82,225.66Z" style="fill:#263238"></path><path d="M261.93,204.69c-1.15,1.38-5.79.05-11.34.08-5.55-.14-10.23,1.09-11.34-.31-.49-.68.23-2.06,2.26-3.38a17.15,17.15,0,0,1,9.18-2.38,16.84,16.84,0,0,1,9.09,2.57C261.77,202.63,262.44,204,261.93,204.69Z" style="fill:#263238"></path><path d="M355.85,194.38C336.5,155,307.47,128.75,255.59,126.87l41.17,100.31c19.36,28.11,19.35,62.2,9.13,94.77-2.86,9.12-6.72,19.67-1.36,27.58s17.76,8.12,25.84,2.94c7.31-4.69,11.94-12.39,16.07-20.11a6.6,6.6,0,0,0,3.79,7c3.58,1.44,7.83-.3,10.39-3.2s3.75-6.73,4.72-10.47c3.4-13.14,4.82-26.71,5.47-40.27C372.29,254.36,369.54,222.29,355.85,194.38Z" style="fill:#263238"></path><path d="M307.48,253c-.17-3.23,3.14-11,6.29-11.7,8.43-1.79,23.79-2,25.11,19.63,1.82,29.49-28.17,25.23-28.28,24.39C310.52,284.66,308.06,264.13,307.48,253Z" style="fill:#ae7461"></path><path d="M318.08,274c.12-.1.54.33,1.43.67a5.13,5.13,0,0,0,3.85-.15c3-1.34,5.36-6.45,5.18-11.77a17,17,0,0,0-1.89-7.27c-1-2.1-2.53-3.53-4.11-3.71a2.63,2.63,0,0,0-3,1.6c-.34.85-.12,1.42-.27,1.48s-.67-.45-.5-1.68a3.23,3.23,0,0,1,1-1.93,4,4,0,0,1,2.8-.92c2.28,0,4.46,2,5.65,4.24a17.7,17.7,0,0,1,2.29,8.12c.17,5.95-2.53,11.7-6.72,13.2a5.55,5.55,0,0,1-4.75-.5C318.18,274.75,318,274.1,318.08,274Z" style="fill:#6f4439"></path><path d="M315,241.38l-7.51,9c-70.69-42.65-95.6-109.74-92.07-105.11,0,0,22.17-9.12,46.23-5s69.71,16.14,69,44.52S315,241.38,315,241.38Z" style="fill:#263238"></path><path d="M220.61,282.33c-1,.45-1.47,3.7-1.16,5a3.67,3.67,0,0,0,2.19,2.57,5.58,5.58,0,0,0,3,.12,33.89,33.89,0,0,0,7.16-2.23c2.44-1,5.89-3.29,8.27-4.53-3.83-1.94-8.76-2.74-12.83-3.21a6.1,6.1,0,0,0-4.21.73" style="fill:#6f4439"></path><path d="M221.58,282.09a2.83,2.83,0,0,1-1.09-3.34,4.48,4.48,0,0,1,2.69-2.54,11,11,0,0,1,3.75-.55c3,0,5.2.86,8,2a18,18,0,0,1,7.26,5.26c-7-.59-13.4-2.11-20.57-.81" style="fill:#6f4439"></path><path d="M220.05,289c-.06.06-.53-.2-1-1A5.09,5.09,0,0,1,219,284a6.42,6.42,0,0,1,4.48-3.63,18.3,18.3,0,0,1,6.83-.27,61.83,61.83,0,0,1,11.84,2.5c3,.93,4.71,1.68,4.65,1.88s-1.93-.16-4.93-.81a106,106,0,0,0-11.71-2,19.11,19.11,0,0,0-6.31.1,5.52,5.52,0,0,0-3.83,2.65,5,5,0,0,0-.36,3.25C219.86,288.48,220.14,288.87,220.05,289Z" style="fill:#263238"></path><path d="M244.93,303.7c-.13.12-1.13-1.09-3.17-2.45a16.33,16.33,0,0,0-17.94-.41c-2.1,1.28-3.15,2.44-3.28,2.31s.78-1.42,2.87-2.92a15.69,15.69,0,0,1,18.78.42C244.22,302.24,245,303.64,244.93,303.7Z" style="fill:#6f4439"></path><circle cx="317.86" cy="290.03" r="10.39" style="fill:#455a64"></circle><path d="M218.05,134.16c-.56,1.59,26.84-4.12,38.45,2.92s20.61,17.63,28.44,28.71c15.8,22.37,28.59,48.24,30,75.59,3.08-1.26,11.53-.72,15.67,1.91,0,0,14.52-88.39-71.95-116.4C258.7,126.89,223.15,119.73,218.05,134.16Z" style="fill:#455a64"></path><path d="M225.54,128.59a9.53,9.53,0,0,1,1.61-.57,31.8,31.8,0,0,1,4.78-1.12c1.06-.11,2.23-.36,3.53-.38l2-.11,2.19,0a52.29,52.29,0,0,1,10.2,1.44,73.89,73.89,0,0,1,24.19,11.26A108.15,108.15,0,0,1,298,161.47a112.71,112.71,0,0,1,16.44,28.28c.86,2.37,1.77,4.65,2.53,6.92s1.35,4.5,2,6.65l1.44,6.33c.45,2,.67,4,1,5.89.13,1,.32,1.86.4,2.76s.16,1.78.24,2.64c.13,1.71.32,3.32.38,4.83,0,3,.15,5.63.05,7.75s-.24,3.75-.32,4.89a9.49,9.49,0,0,1-.18,1.7,11.92,11.92,0,0,1,0-1.71c0-1.15.07-2.79.12-4.89s-.15-4.71-.23-7.71c-.09-1.5-.3-3.1-.46-4.8-.09-.84-.18-1.72-.27-2.61s-.29-1.8-.44-2.74c-.34-1.86-.59-3.83-1.05-5.84s-1-4.1-1.49-6.26-1.33-4.33-2-6.6-1.68-4.5-2.55-6.84a114.1,114.1,0,0,0-16.36-28,109.39,109.39,0,0,0-23.6-22.18,74.62,74.62,0,0,0-23.83-11.34,53.12,53.12,0,0,0-10-1.57L237.5,127l-2,.06c-1.29,0-2.45.21-3.5.29a40,40,0,0,0-4.78.92A12.13,12.13,0,0,1,225.54,128.59Z" style="fill:#263238"></path><path d="M225.87,467.39s7.69-29.9,10.76-42.19a22.83,22.83,0,0,0,.42-8.94l-.81-5.37c3.14-.55,4.46-1.16,7.34-3.61h0a4.92,4.92,0,0,0,5.09-2.8c1.24-2.42,2.79-6.52,4.29-10.34,2.74-7,3.7-16.72,3.7-16.72s4.71-8.79,4.43-12.52-2.92-9.84-2.92-9.84.67-6-.45-8.45c-1.71-3.79-6.09-5.78-10.64-4.51-3.88,1.08-22.91,4.92-22.91,4.92l-3.55-3.7-.92-13.26,10.75-3.72s7,3.08,12.11,1.14a9.64,9.64,0,0,0,4.53-3.3,2.46,2.46,0,0,0-.93-3.62c-4.47-2.22-14.76-7.19-18.08-7.51-4.28-.42-20.82,7.54-22.15,10-.28.5-2.31,29.71-2.31,29.71a17.94,17.94,0,0,0-4.43,11.19c0,6.5-1.65,55-1.65,55L173.2,467.37" style="fill:#ae7461"></path><path d="M173.2,467.37s.12-.29.4-.85l1.22-2.49c1.1-2.2,2.7-5.43,4.77-9.6l17.79-35.58,0,.07c.27-9.32.57-19.7.9-31q.24-8.46.51-17.56c0-1.51.09-3,.14-4.58a29.72,29.72,0,0,1,.33-4.68,18.59,18.59,0,0,1,4.2-8.58l-.06.15q.7-9.81,1.46-20.22c.13-1.73.27-3.47.41-5.22.08-.88.15-1.76.23-2.64.05-.45.08-.86.15-1.35a2.23,2.23,0,0,1,.09-.39l.23-.29a2.43,2.43,0,0,1,.5-.51,29.61,29.61,0,0,1,4.55-2.93c1.58-.88,3.21-1.67,4.86-2.45A51.81,51.81,0,0,1,226.27,313a6.14,6.14,0,0,1,2.86,0,24.21,24.21,0,0,1,2.7.85c1.77.65,3.51,1.38,5.24,2.14s3.45,1.57,5.17,2.39l2.58,1.25,1.28.63a2.84,2.84,0,0,1,1.2,1,2.67,2.67,0,0,1,.07,3,8.73,8.73,0,0,1-2.09,2.11,11.56,11.56,0,0,1-2.62,1.39,11.2,11.2,0,0,1-2.91.62,17.65,17.65,0,0,1-4.82-.37,25.55,25.55,0,0,1-4.59-1.39h.19l-10.74,3.72L220,330q.47,6.7.91,13.26l-.07-.16,3.55,3.7-.23-.07c7.62-1.57,15.11-3,22.33-4.77a10.93,10.93,0,0,1,5.59-.28,8.86,8.86,0,0,1,4.71,2.89,7.87,7.87,0,0,1,1.39,2.42,12.05,12.05,0,0,1,.43,2.7,35.24,35.24,0,0,1-.16,5.35l0-.12a55.15,55.15,0,0,1,2.07,5.76,25.81,25.81,0,0,1,.71,2.95,7.78,7.78,0,0,1,0,3,30.21,30.21,0,0,1-1.84,5.61c-.76,1.79-1.59,3.51-2.47,5.2l0-.08a83.54,83.54,0,0,1-2.06,11.48,81.05,81.05,0,0,1-3.69,10.43c-.67,1.66-1.34,3.3-2.11,4.87a6.33,6.33,0,0,1-1.58,2.12,4.84,4.84,0,0,1-2.37,1.1,5.21,5.21,0,0,1-1.31.05l-.16,0h0l.15,0h0l-.06.05-.24.2-.49.4a16.94,16.94,0,0,1-2,1.44,12.52,12.52,0,0,1-4.59,1.53l.14-.2c.32,2.23.69,4.38,1,6.53a23.26,23.26,0,0,1-.24,6.26c-.39,2-1,3.88-1.41,5.74l-1.37,5.35c-1.78,6.9-3.3,12.83-4.55,17.67l-2.88,11.11c-.34,1.26-.59,2.22-.76,2.88s-.28,1-.28,1,.07-.34.23-1l.71-2.89,2.79-11.14c1.22-4.85,2.72-10.78,4.46-17.68q.66-2.6,1.36-5.36c.44-1.85,1-3.75,1.38-5.72a22.69,22.69,0,0,0,.22-6.18c-.26-2.11-.64-4.28-1-6.51l0-.17.17,0a12.32,12.32,0,0,0,4.47-1.5,17.68,17.68,0,0,0,2-1.42l.47-.39.24-.2.06,0h0l.16-.05h.18a4.41,4.41,0,0,0,1.2-.05,4.94,4.94,0,0,0,3.67-3c.76-1.55,1.42-3.18,2.08-4.84a79.91,79.91,0,0,0,3.66-10.38,86.21,86.21,0,0,0,2-11.43v0l0,0c.88-1.67,1.7-3.4,2.45-5.17a28.9,28.9,0,0,0,1.81-5.51,7.54,7.54,0,0,0,0-2.88,27,27,0,0,0-.7-2.89,53.46,53.46,0,0,0-2.06-5.71l0-.06V355a33.05,33.05,0,0,0,.15-5.27,10.77,10.77,0,0,0-.41-2.59,7.47,7.47,0,0,0-1.29-2.25,8.39,8.39,0,0,0-4.46-2.72,10.28,10.28,0,0,0-5.35.29c-7.25,1.73-14.72,3.21-22.35,4.78l-.14,0-.1-.1-3.55-3.71-.06-.06v-.1q-.45-6.56-.91-13.25l0-.2.19-.06,10.74-3.73.09,0,.1,0a21.32,21.32,0,0,0,9.16,1.72,10.7,10.7,0,0,0,2.76-.59,10.86,10.86,0,0,0,2.5-1.32,8.15,8.15,0,0,0,2-2,2.17,2.17,0,0,0-.05-2.43,2.3,2.3,0,0,0-1-.8l-1.28-.64L242,318.83c-1.71-.82-3.43-1.62-5.15-2.38s-3.45-1.5-5.2-2.14-3.52-1.31-5.3-.86a51.7,51.7,0,0,0-10.28,3.71c-1.64.78-3.27,1.56-4.84,2.43a28.7,28.7,0,0,0-4.45,2.87,2,2,0,0,0-.44.43l-.19.23a2,2,0,0,0,0,.26c-.05.39-.1.86-.14,1.29-.08.88-.16,1.75-.23,2.63q-.21,2.63-.42,5.22c-.51,6.92-1,13.67-1.48,20.21v.08l-.06.07a18,18,0,0,0-4.1,8.33,30.66,30.66,0,0,0-.33,4.6c0,1.54-.09,3.07-.14,4.58q-.27,9.11-.54,17.57c-.35,11.27-.68,21.65-1,31v0l0,0c-7.61,15.07-13.71,27.17-17.93,35.51-2.1,4.16-3.74,7.37-4.85,9.56-.55,1.08-1,1.91-1.27,2.47S173.2,467.37,173.2,467.37Z" style="fill:#6f4439"></path><path d="M236.07,410.9a15.51,15.51,0,0,0,3.41-1.07,12.09,12.09,0,0,0,3.36-2.45,32.11,32.11,0,0,0,3.48-4.34c2.41-3.36,4.27-8,6.1-13.12a26.64,26.64,0,0,0,2-8.25,9.45,9.45,0,0,0-.87-4.3,9.1,9.1,0,0,0-3-3.39,18.19,18.19,0,0,0-8.56-2.82c-2.94-.32-5.84-.38-8.57-.92a33.3,33.3,0,0,1-7.37-2.6,21.26,21.26,0,0,0-6.41-1.92,10.19,10.19,0,0,0-2.89.14,14.31,14.31,0,0,0-2.47.82,17.59,17.59,0,0,0-3.62,2.09,6.57,6.57,0,0,0-1.77,1.93,2.7,2.7,0,0,0-.26.63c0,.15-.07.23-.07.23a.87.87,0,0,1,0-.24,2.12,2.12,0,0,1,.21-.67,6.26,6.26,0,0,1,1.74-2,16.92,16.92,0,0,1,3.63-2.19,14,14,0,0,1,2.52-.89,10.14,10.14,0,0,1,3-.17,21.22,21.22,0,0,1,6.55,1.88,33,33,0,0,0,7.29,2.53c2.68.51,5.56.56,8.54.89a18.45,18.45,0,0,1,8.8,2.9,9.33,9.33,0,0,1,3.13,3.59,9.85,9.85,0,0,1,.92,4.53,26.93,26.93,0,0,1-2,8.41c-1.85,5.15-3.77,9.78-6.25,13.17a31.83,31.83,0,0,1-3.57,4.33,12.12,12.12,0,0,1-3.49,2.43,11.42,11.42,0,0,1-2.56.78l-.7.09A1,1,0,0,1,236.07,410.9Z" style="fill:#6f4439"></path><path d="M236.6,413.38a29.23,29.23,0,0,1-.95-3.36c-.55-2.08-1.38-4.94-2.45-8s-2.14-5.88-2.92-7.9a23.12,23.12,0,0,1-1.17-3.3,23,23,0,0,1,1.51,3.16c.87,2,2,4.74,3.08,7.87a79,79,0,0,1,2.31,8.13c.23,1.06.4,1.92.49,2.51A3,3,0,0,1,236.6,413.38Z" style="fill:#6f4439"></path><path d="M228.25,390.94a1.29,1.29,0,0,0,.47,0,1.69,1.69,0,0,0,.87-1,9.33,9.33,0,0,0,.8-2,4.77,4.77,0,0,0,0-2.7l-.14-.44.43.17a77.45,77.45,0,0,0,7.91,2.49l.88.24.41.11-.29.32a5.08,5.08,0,0,0-1.11,4.8l.06.2-.19.09a9.37,9.37,0,0,0-4.42,4.34,22.53,22.53,0,0,0-.87,2.31,2.2,2.2,0,0,1,.06-.66,7.66,7.66,0,0,1,.55-1.77,9.33,9.33,0,0,1,4.48-4.65l-.12.28a5.5,5.5,0,0,1,1.18-5.3l.12.43-.88-.24a62.7,62.7,0,0,1-7.93-2.59l.29-.26a5.08,5.08,0,0,1-.06,2.93,8.52,8.52,0,0,1-.92,2,1.76,1.76,0,0,1-1.05,1C228.4,391.09,228.24,391,228.25,390.94Z" style="fill:#6f4439"></path><path d="M205.31,361.54a3,3,0,0,1,.47-.51,8.34,8.34,0,0,1,1.61-1.16,16.65,16.65,0,0,1,7-1.79c6.14-.31,14.59-.49,23.95-.77,2.34,0,4.61-.15,6.84-.13a13.58,13.58,0,0,1,6.27,1.36,10.15,10.15,0,0,1,4,4.19,14.48,14.48,0,0,1,1.53,4.82,27.61,27.61,0,0,1-.16,7.28c-.11.85-.22,1.5-.29,1.95a5.5,5.5,0,0,1-.14.68,3,3,0,0,1,0-.69c.06-.51.12-1.16.2-2a29.43,29.43,0,0,0,0-7.2,14.07,14.07,0,0,0-1.54-4.67,9.77,9.77,0,0,0-3.87-4,13.19,13.19,0,0,0-6-1.27c-2.19,0-4.48.1-6.82.15-9.34.27-17.83.4-23.94.61a17,17,0,0,0-7,1.6A12.64,12.64,0,0,0,205.31,361.54Z" style="fill:#6f4439"></path><path d="M241.81,343.28a3.46,3.46,0,0,1,.89-.14,10.68,10.68,0,0,1,2.45,0,14.05,14.05,0,0,1,7.31,3.33,20.13,20.13,0,0,1,4.93,6.38,13.24,13.24,0,0,1,.58,1.26,9.58,9.58,0,0,1,.38,1,3.13,3.13,0,0,1,.23.87c-.09,0-.52-1.17-1.51-2.95a22.22,22.22,0,0,0-4.94-6.15,14.73,14.73,0,0,0-7-3.37C243.1,343.22,241.82,343.4,241.81,343.28Z" style="fill:#6f4439"></path><path d="M203.62,352.67s.21-.26.67-.65a13.37,13.37,0,0,1,2.09-1.45,18.37,18.37,0,0,1,3.47-1.51,32.48,32.48,0,0,1,4.52-1c3.24-.47,6.17-.69,8.27-1s3.4-.57,3.42-.49a2.9,2.9,0,0,1-.88.3c-.58.17-1.42.35-2.48.56-2.1.4-5,.69-8.26,1.16a34.74,34.74,0,0,0-4.45.94,20.37,20.37,0,0,0-3.43,1.37C204.69,351.88,203.68,352.75,203.62,352.67Z" style="fill:#6f4439"></path></g></svg>